<svg width="193" height="64" viewBox="0 0 193 64" fill="none" xmlns="http://www.w3.org/2000/svg">
<path d="M64.4177 35.2569C64.4177 36.1662 64.9093 36.8482 65.9303 37.3786C66.9134 37.909 68.1234 38.3637 69.5225 38.8183C70.9216 39.2351 72.3585 39.6898 73.8332 40.1444C75.308 40.5991 76.518 41.4326 77.5011 42.6451C78.4843 43.8575 78.9758 45.4109 78.9758 47.2674C78.9758 49.8817 77.9927 51.8898 75.9886 53.3674C73.9845 54.8451 71.4888 55.6028 68.4638 55.6028C65.8168 55.6028 63.5102 55.0345 61.6195 53.9357C59.7289 52.837 58.3298 51.2836 57.4601 49.2755L62.4892 46.3581C63.4346 48.9724 65.4387 50.2606 68.4638 50.2606C71.5266 50.2606 73.0392 49.2376 73.0392 47.2295C73.0392 46.3581 72.5476 45.6761 71.5644 45.1078C70.5813 44.5773 69.3713 44.0848 67.9722 43.668C66.5731 43.2513 65.1362 42.7966 63.6615 42.342C62.1867 41.8873 60.9767 41.0916 59.9936 39.9171C59.0104 38.7426 58.5189 37.2649 58.5189 35.4463C58.5189 32.9457 59.4642 30.9376 61.3548 29.46C63.2455 27.9444 65.5899 27.1867 68.3881 27.1867C70.6191 27.1867 72.6232 27.6792 74.3626 28.6643C76.102 29.6494 77.4633 31.0513 78.3708 32.7941L73.4551 35.56C72.5098 33.514 70.846 32.491 68.3881 32.491C67.2537 32.491 66.3462 32.7183 65.5899 33.2109C64.7959 33.6277 64.4177 34.3097 64.4177 35.2569Z" fill="white"/>
<path d="M104.424 27.8308H110.247V54.8829H104.424V50.9805C102.231 54.0494 99.0925 55.5649 94.9708 55.5649C91.2651 55.5649 88.0888 54.201 85.4797 51.4351C82.8706 48.6693 81.5471 45.2972 81.5471 41.3569C81.5471 37.3407 82.8706 33.9687 85.4797 31.2407C88.0888 28.5128 91.2651 27.1109 94.9708 27.1109C99.0925 27.1109 102.231 28.6264 104.424 31.6575V27.8308ZM89.7904 47.5326C91.4164 49.1618 93.4583 49.9954 95.8784 49.9954C98.3362 49.9954 100.378 49.1618 101.966 47.5326C103.592 45.9034 104.386 43.8196 104.386 41.3569C104.386 38.8562 103.592 36.8103 101.966 35.1811C100.34 33.5519 98.2984 32.7184 95.8784 32.7184C93.4205 32.7184 91.3786 33.5519 89.7904 35.1811C88.1645 36.8103 87.3704 38.8941 87.3704 41.3569C87.3326 43.8196 88.1645 45.9034 89.7904 47.5326Z" fill="white"/>
<path d="M137.662 27.8308H143.485V54.8829H137.662V50.9805C135.469 54.0494 132.33 55.5649 128.209 55.5649C124.503 55.5649 121.327 54.201 118.718 51.4351C116.108 48.6693 114.785 45.2972 114.785 41.3569C114.785 37.3407 116.108 33.9687 118.718 31.2407C121.327 28.5128 124.503 27.1109 128.209 27.1109C132.33 27.1109 135.469 28.6264 137.662 31.6575V27.8308ZM123.028 47.5326C124.654 49.1618 126.696 49.9954 129.116 49.9954C131.574 49.9954 133.616 49.1618 135.204 47.5326C136.83 45.9034 137.624 43.8196 137.624 41.3569C137.624 38.8562 136.83 36.8103 135.204 35.1811C133.578 33.5519 131.536 32.7184 129.116 32.7184C126.658 32.7184 124.616 33.5519 123.028 35.1811C121.402 36.8103 120.608 38.8941 120.608 41.3569C120.57 43.8196 121.402 45.9034 123.028 47.5326Z" fill="white"/>
<path d="M163.451 21.9202C159.216 21.5414 157.098 23.3221 157.098 27.2625V27.7929H163.451V33.4004H157.098V54.8072H151.275V33.4004H147.153V27.7929H151.275V27.2625C151.275 23.5494 152.296 20.7078 154.376 18.8134C156.455 16.8811 159.48 16.0476 163.489 16.3128V21.9202H163.451Z" fill="white"/>
<path d="M170.673 43.8196C171.089 45.8656 172.11 47.4569 173.66 48.5556C175.211 49.6544 177.101 50.2227 179.332 50.2227C182.433 50.2227 184.74 49.124 186.29 46.8507L191.092 49.6923C188.445 53.6326 184.475 55.6028 179.257 55.6028C174.87 55.6028 171.316 54.2767 168.631 51.5867C165.946 48.8966 164.585 45.4867 164.585 41.3948C164.585 37.3407 165.909 33.9687 168.593 31.2407C171.24 28.5128 174.681 27.1488 178.841 27.1488C182.811 27.1488 186.063 28.5507 188.597 31.3165C191.13 34.0823 192.416 37.4544 192.416 41.4327C192.416 42.0389 192.34 42.8724 192.189 43.8575H170.673V43.8196ZM170.635 39.0836H186.517C186.139 36.8861 185.193 35.219 183.794 34.1202C182.357 33.0215 180.694 32.4531 178.803 32.4531C176.648 32.4531 174.833 33.0594 173.396 34.2339C171.921 35.4084 171.013 36.9997 170.635 39.0836Z" fill="white"/>
<path d="M12.5795 25.3806H6.17609V16.4917C6.17609 7.41371 13.6025 0 22.6961 0C31.7897 0 39.2162 7.41371 39.2162 16.4917H32.8128C32.8128 10.9314 28.266 6.39243 22.6961 6.39243C17.1263 6.39243 12.5795 10.9314 12.5795 16.4917V25.3806Z" fill="#FCB034"/>
<path d="M6.21396 23.6407C4.09212 24.3215 2.00817 25.1158 0 26.0615C0.26523 28.2931 0.644129 30.487 1.17459 32.6052C3.10698 31.6217 5.11515 30.7896 7.16121 30.0709C6.70653 27.9527 6.36552 25.7967 6.21396 23.6407Z" fill="#00B2C1"/>
<path d="M44.1798 32.5674C44.7102 30.4114 45.0892 28.2553 45.3544 26.0237C43.3462 25.1159 41.2623 24.2837 39.1404 23.6028C38.951 25.7967 38.6478 27.9527 38.1553 30.0331C40.2771 30.7518 42.2853 31.6218 44.1798 32.5674Z" fill="#00B2C1"/>
<path d="M6.21399 23.6407C6.40344 25.8345 6.70656 27.9905 7.19913 30.0709C12.0491 28.4066 17.2779 27.4988 22.6961 27.4988C28.1144 27.4988 33.3432 28.4066 38.1931 30.0709C38.6478 27.9905 38.9888 25.8345 39.1783 23.6407C33.9874 21.9764 28.4554 21.1064 22.6961 21.1064C16.9369 21.0686 11.4049 21.9764 6.21399 23.6407Z" fill="#00B2C1"/>
<path d="M17.4294 59.8014C19.0965 61.3144 20.8395 62.7139 22.6961 64C24.5527 62.7139 26.2956 61.3144 27.9628 59.8014C26.1062 58.591 24.3632 57.305 22.6961 55.8676C21.0289 57.305 19.286 58.591 17.4294 59.8014Z" fill="#00B2C1"/>
<path d="M9.13147 36.5012L3.18274 38.922C6.21394 46.9787 11.1396 54.1276 17.4294 59.8014C19.286 58.591 21.0289 57.3049 22.6961 55.8676C16.6716 50.6856 11.9732 44.0662 9.13147 36.5012Z" fill="#00B2C1"/>
<path d="M22.6962 55.8676C24.3633 57.3049 26.1063 58.591 27.9629 59.8014C35.844 52.6525 41.6033 43.234 44.2177 32.5674C42.2853 31.5839 40.2771 30.7518 38.2311 30.0331C35.9198 40.2837 30.3499 49.2482 22.6962 55.8676Z" fill="#00B2C1"/>
</svg>
