<svg width="436" height="409" viewBox="0 0 436 409" fill="none" xmlns="http://www.w3.org/2000/svg">
<g clip-path="url(#clip0_174_918)">
<rect x="38.3765" y="182.763" width="359.442" height="185.971" rx="6.18976" fill="white" fill-opacity="0.2"/>
<rect x="38.3765" y="182.763" width="359.442" height="185.971" rx="6.18976" stroke="url(#paint0_linear_174_918)" stroke-width="0.825301"/>
<rect x="26.71" y="128.282" width="382.774" height="204.687" rx="6.81268" fill="white" fill-opacity="0.05"/>
<rect x="26.71" y="128.282" width="382.774" height="204.687" rx="6.81268" stroke="url(#paint1_linear_174_918)" stroke-width="0.908357"/>
<rect x="15.0225" y="88.3629" width="406.149" height="204.821" rx="7.10489" fill="white" fill-opacity="0.05"/>
<rect x="15.0225" y="88.3629" width="406.149" height="204.821" rx="7.10489" stroke="url(#paint2_linear_174_918)" stroke-width="0.947319"/>
<rect x="1.00214" y="64.7203" width="429.507" height="193.116" rx="7.53211" fill="white" fill-opacity="0.15"/>
<rect x="1.00214" y="64.7203" width="429.507" height="193.116" rx="7.53211" stroke="url(#paint3_linear_174_918)" stroke-width="1.00428"/>
<path d="M36.1351 111.904C38.2471 115.495 40.3774 119.075 42.4666 122.68C39.0898 128.575 35.7618 134.499 32.2707 140.33C30.9313 142.568 29.6284 144.827 28.3042 147.072C24.0101 147.098 19.716 147.097 15.4219 147.091C15.5529 146.8 15.6824 146.507 15.8409 146.229C22.6021 134.786 29.3892 123.357 36.1351 111.904Z" fill="#AE285D"/>
<path d="M36.1367 133.796C40.4461 133.795 44.7554 133.764 49.0648 133.835C51.6309 138.263 54.2793 142.643 56.8225 147.083C52.5132 147.104 48.2053 147.087 43.896 147.084C41.3314 142.641 38.6525 138.266 36.1367 133.796Z" fill="#AE285D"/>
<path d="M80.9307 109.424L76.5101 117.947V122.499H73.8876V117.947L69.4482 109.424H72.4078L75.2176 115.4L78.0086 109.424H80.9307ZM87.0512 122.668C86.0521 122.668 85.153 122.449 84.3538 122.012C83.5546 121.562 82.924 120.932 82.4619 120.12C82.0123 119.308 81.7876 118.372 81.7876 117.31C81.7876 116.249 82.0186 115.312 82.4806 114.501C82.9552 113.689 83.5983 113.065 84.41 112.627C85.2217 112.178 86.1271 111.953 87.1261 111.953C88.1251 111.953 89.0305 112.178 89.8422 112.627C90.6539 113.065 91.2908 113.689 91.7528 114.501C92.2273 115.312 92.4646 116.249 92.4646 117.31C92.4646 118.372 92.2211 119.308 91.7341 120.12C91.2595 120.932 90.6102 121.562 89.786 122.012C88.9743 122.449 88.0627 122.668 87.0512 122.668ZM87.0512 120.382C87.5257 120.382 87.969 120.27 88.3811 120.045C88.8057 119.808 89.1429 119.458 89.3926 118.996C89.6424 118.534 89.7672 117.972 89.7672 117.31C89.7672 116.324 89.505 115.568 88.9805 115.044C88.4685 114.507 87.8379 114.238 87.0886 114.238C86.3394 114.238 85.7087 114.507 85.1967 115.044C84.6972 115.568 84.4475 116.324 84.4475 117.31C84.4475 118.297 84.691 119.059 85.178 119.596C85.6775 120.12 86.3019 120.382 87.0512 120.382ZM104.185 112.122V122.499H101.544V121.188C101.207 121.637 100.763 121.993 100.214 122.256C99.6768 122.505 99.0899 122.63 98.453 122.63C97.6413 122.63 96.9233 122.462 96.2989 122.124C95.6745 121.775 95.1812 121.269 94.8191 120.607C94.4694 119.933 94.2946 119.134 94.2946 118.209V112.122H96.917V117.835C96.917 118.659 97.1231 119.296 97.5352 119.745C97.9473 120.183 98.5092 120.401 99.221 120.401C99.9453 120.401 100.514 120.183 100.926 119.745C101.338 119.296 101.544 118.659 101.544 117.835V112.122H104.185ZM108.421 107.551L108.196 111.522H106.416L106.173 107.551H108.421ZM114.758 120.083L117.38 112.122H120.171L116.331 122.499H113.147L109.326 112.122H112.135L114.758 120.083ZM131.291 117.086C131.291 117.46 131.266 117.797 131.216 118.097H123.63C123.692 118.846 123.955 119.433 124.417 119.858C124.879 120.282 125.447 120.495 126.121 120.495C127.095 120.495 127.788 120.076 128.2 119.24H131.029C130.729 120.239 130.155 121.063 129.306 121.712C128.456 122.349 127.414 122.668 126.177 122.668C125.178 122.668 124.279 122.449 123.48 122.012C122.693 121.562 122.075 120.932 121.626 120.12C121.188 119.308 120.97 118.372 120.97 117.31C120.97 116.236 121.188 115.294 121.626 114.482C122.063 113.67 122.675 113.046 123.461 112.609C124.248 112.172 125.153 111.953 126.177 111.953C127.164 111.953 128.044 112.165 128.818 112.59C129.605 113.015 130.211 113.62 130.635 114.407C131.073 115.181 131.291 116.074 131.291 117.086ZM128.575 116.336C128.562 115.662 128.319 115.125 127.844 114.725C127.37 114.313 126.789 114.107 126.102 114.107C125.453 114.107 124.904 114.307 124.454 114.707C124.017 115.094 123.748 115.637 123.649 116.336H128.575ZM140.291 113.733C140.628 113.183 141.065 112.752 141.602 112.44C142.152 112.128 142.776 111.972 143.475 111.972V114.725H142.782C141.958 114.725 141.334 114.919 140.909 115.306C140.497 115.693 140.291 116.368 140.291 117.329V122.499H137.669V112.122H140.291V113.733ZM154.889 117.086C154.889 117.46 154.864 117.797 154.814 118.097H147.227C147.29 118.846 147.552 119.433 148.014 119.858C148.476 120.282 149.044 120.495 149.719 120.495C150.693 120.495 151.386 120.076 151.798 119.24H154.626C154.327 120.239 153.752 121.063 152.903 121.712C152.054 122.349 151.011 122.668 149.775 122.668C148.776 122.668 147.877 122.449 147.077 122.012C146.291 121.562 145.673 120.932 145.223 120.12C144.786 119.308 144.567 118.372 144.567 117.31C144.567 116.236 144.786 115.294 145.223 114.482C145.66 113.67 146.272 113.046 147.059 112.609C147.845 112.172 148.751 111.953 149.775 111.953C150.761 111.953 151.642 112.165 152.416 112.59C153.203 113.015 153.808 113.62 154.233 114.407C154.67 115.181 154.889 116.074 154.889 117.086ZM152.172 116.336C152.16 115.662 151.916 115.125 151.442 114.725C150.967 114.313 150.387 114.107 149.7 114.107C149.051 114.107 148.501 114.307 148.052 114.707C147.614 115.094 147.346 115.637 147.246 116.336H152.172ZM156.128 117.31C156.128 116.236 156.347 115.3 156.784 114.501C157.221 113.689 157.827 113.065 158.601 112.627C159.375 112.178 160.262 111.953 161.261 111.953C162.547 111.953 163.609 112.278 164.445 112.927C165.294 113.564 165.863 114.463 166.15 115.625H163.321C163.171 115.175 162.915 114.825 162.553 114.576C162.204 114.313 161.767 114.182 161.242 114.182C160.493 114.182 159.9 114.457 159.463 115.006C159.026 115.543 158.807 116.311 158.807 117.31C158.807 118.297 159.026 119.065 159.463 119.614C159.9 120.151 160.493 120.42 161.242 120.42C162.304 120.42 162.997 119.945 163.321 118.996H166.15C165.863 120.12 165.294 121.013 164.445 121.675C163.596 122.337 162.535 122.668 161.261 122.668C160.262 122.668 159.375 122.449 158.601 122.012C157.827 121.562 157.221 120.938 156.784 120.139C156.347 119.327 156.128 118.384 156.128 117.31ZM177.718 117.086C177.718 117.46 177.693 117.797 177.643 118.097H170.057C170.119 118.846 170.381 119.433 170.843 119.858C171.305 120.282 171.873 120.495 172.548 120.495C173.522 120.495 174.215 120.076 174.627 119.24H177.456C177.156 120.239 176.581 121.063 175.732 121.712C174.883 122.349 173.84 122.668 172.604 122.668C171.605 122.668 170.706 122.449 169.907 122.012C169.12 121.562 168.502 120.932 168.052 120.12C167.615 119.308 167.397 118.372 167.397 117.31C167.397 116.236 167.615 115.294 168.052 114.482C168.489 113.67 169.101 113.046 169.888 112.609C170.675 112.172 171.58 111.953 172.604 111.953C173.591 111.953 174.471 112.165 175.245 112.59C176.032 113.015 176.638 113.62 177.062 114.407C177.499 115.181 177.718 116.074 177.718 117.086ZM175.002 116.336C174.989 115.662 174.746 115.125 174.271 114.725C173.797 114.313 173.216 114.107 172.529 114.107C171.88 114.107 171.33 114.307 170.881 114.707C170.444 115.094 170.175 115.637 170.075 116.336H175.002ZM180.962 110.885C180.5 110.885 180.113 110.742 179.8 110.455C179.501 110.155 179.351 109.786 179.351 109.349C179.351 108.912 179.501 108.55 179.8 108.263C180.113 107.963 180.5 107.813 180.962 107.813C181.424 107.813 181.805 107.963 182.104 108.263C182.417 108.55 182.573 108.912 182.573 109.349C182.573 109.786 182.417 110.155 182.104 110.455C181.805 110.742 181.424 110.885 180.962 110.885ZM182.254 112.122V122.499H179.632V112.122H182.254ZM189.172 120.083L191.795 112.122H194.586L190.746 122.499H187.561L183.74 112.122H186.55L189.172 120.083ZM205.705 117.086C205.705 117.46 205.681 117.797 205.631 118.097H198.044C198.107 118.846 198.369 119.433 198.831 119.858C199.293 120.282 199.861 120.495 200.536 120.495C201.51 120.495 202.203 120.076 202.615 119.24H205.443C205.144 120.239 204.569 121.063 203.72 121.712C202.871 122.349 201.828 122.668 200.592 122.668C199.593 122.668 198.694 122.449 197.894 122.012C197.108 121.562 196.49 120.932 196.04 120.12C195.603 119.308 195.384 118.372 195.384 117.31C195.384 116.236 195.603 115.294 196.04 114.482C196.477 113.67 197.089 113.046 197.876 112.609C198.662 112.172 199.568 111.953 200.592 111.953C201.578 111.953 202.459 112.165 203.233 112.59C204.02 113.015 204.625 113.62 205.05 114.407C205.487 115.181 205.705 116.074 205.705 117.086ZM202.989 116.336C202.977 115.662 202.733 115.125 202.259 114.725C201.784 114.313 201.204 114.107 200.517 114.107C199.867 114.107 199.318 114.307 198.868 114.707C198.431 115.094 198.163 115.637 198.063 116.336H202.989ZM206.945 117.273C206.945 116.224 207.151 115.294 207.563 114.482C207.988 113.67 208.562 113.046 209.287 112.609C210.011 112.172 210.817 111.953 211.703 111.953C212.377 111.953 213.021 112.103 213.632 112.403C214.244 112.69 214.731 113.077 215.094 113.564V108.638H217.753V122.499H215.094V120.963C214.769 121.475 214.313 121.887 213.726 122.199C213.139 122.512 212.459 122.668 211.684 122.668C210.81 122.668 210.011 122.443 209.287 121.993C208.562 121.544 207.988 120.913 207.563 120.101C207.151 119.277 206.945 118.334 206.945 117.273ZM215.112 117.31C215.112 116.673 214.987 116.13 214.738 115.681C214.488 115.219 214.151 114.869 213.726 114.632C213.302 114.382 212.846 114.257 212.359 114.257C211.872 114.257 211.422 114.376 211.01 114.613C210.598 114.85 210.261 115.2 209.999 115.662C209.749 116.112 209.624 116.649 209.624 117.273C209.624 117.897 209.749 118.447 209.999 118.921C210.261 119.383 210.598 119.739 211.01 119.989C211.435 120.239 211.884 120.364 212.359 120.364C212.846 120.364 213.302 120.245 213.726 120.008C214.151 119.758 214.488 119.408 214.738 118.959C214.987 118.497 215.112 117.947 215.112 117.31ZM230.529 111.972C231.765 111.972 232.764 112.365 233.526 113.152C234.288 113.926 234.668 115.013 234.668 116.411V122.499H232.046V116.767C232.046 115.943 231.84 115.312 231.428 114.875C231.016 114.426 230.454 114.201 229.742 114.201C229.018 114.201 228.443 114.426 228.019 114.875C227.607 115.312 227.401 115.943 227.401 116.767V122.499H224.778V112.122H227.401V113.414C227.75 112.965 228.194 112.615 228.73 112.365C229.28 112.103 229.879 111.972 230.529 111.972ZM246.809 117.086C246.809 117.46 246.784 117.797 246.734 118.097H239.148C239.21 118.846 239.472 119.433 239.935 119.858C240.397 120.282 240.965 120.495 241.639 120.495C242.613 120.495 243.306 120.076 243.718 119.24H246.547C246.247 120.239 245.673 121.063 244.823 121.712C243.974 122.349 242.932 122.668 241.695 122.668C240.696 122.668 239.797 122.449 238.998 122.012C238.211 121.562 237.593 120.932 237.143 120.12C236.706 119.308 236.488 118.372 236.488 117.31C236.488 116.236 236.706 115.294 237.143 114.482C237.581 113.67 238.192 113.046 238.979 112.609C239.766 112.172 240.671 111.953 241.695 111.953C242.682 111.953 243.562 112.165 244.336 112.59C245.123 113.015 245.729 113.62 246.153 114.407C246.59 115.181 246.809 116.074 246.809 117.086ZM244.093 116.336C244.08 115.662 243.837 115.125 243.362 114.725C242.888 114.313 242.307 114.107 241.62 114.107C240.971 114.107 240.422 114.307 239.972 114.707C239.535 115.094 239.266 115.637 239.167 116.336H244.093ZM263.109 112.122L260.075 122.499H257.246L255.354 115.25L253.462 122.499H250.615L247.562 112.122H250.222L252.057 120.026L254.043 112.122H256.815L258.763 120.008L260.599 112.122H263.109ZM268.317 117.31C268.317 116.236 268.536 115.3 268.973 114.501C269.41 113.689 270.015 113.065 270.79 112.627C271.564 112.178 272.451 111.953 273.45 111.953C274.736 111.953 275.797 112.278 276.634 112.927C277.483 113.564 278.051 114.463 278.338 115.625H275.51C275.36 115.175 275.104 114.825 274.742 114.576C274.392 114.313 273.955 114.182 273.431 114.182C272.682 114.182 272.088 114.457 271.651 115.006C271.214 115.543 270.996 116.311 270.996 117.31C270.996 118.297 271.214 119.065 271.651 119.614C272.088 120.151 272.682 120.42 273.431 120.42C274.492 120.42 275.185 119.945 275.51 118.996H278.338C278.051 120.12 277.483 121.013 276.634 121.675C275.785 122.337 274.723 122.668 273.45 122.668C272.451 122.668 271.564 122.449 270.79 122.012C270.015 121.562 269.41 120.938 268.973 120.139C268.536 119.327 268.317 118.384 268.317 117.31ZM284.868 122.668C283.869 122.668 282.969 122.449 282.17 122.012C281.371 121.562 280.74 120.932 280.278 120.12C279.829 119.308 279.604 118.372 279.604 117.31C279.604 116.249 279.835 115.312 280.297 114.501C280.772 113.689 281.415 113.065 282.226 112.627C283.038 112.178 283.944 111.953 284.943 111.953C285.942 111.953 286.847 112.178 287.659 112.627C288.47 113.065 289.107 113.689 289.569 114.501C290.044 115.312 290.281 116.249 290.281 117.31C290.281 118.372 290.038 119.308 289.551 120.12C289.076 120.932 288.427 121.562 287.602 122.012C286.791 122.449 285.879 122.668 284.868 122.668ZM284.868 120.382C285.342 120.382 285.785 120.27 286.198 120.045C286.622 119.808 286.959 119.458 287.209 118.996C287.459 118.534 287.584 117.972 287.584 117.31C287.584 116.324 287.321 115.568 286.797 115.044C286.285 114.507 285.654 114.238 284.905 114.238C284.156 114.238 283.525 114.507 283.013 115.044C282.514 115.568 282.264 116.324 282.264 117.31C282.264 118.297 282.507 119.059 282.994 119.596C283.494 120.12 284.118 120.382 284.868 120.382ZM297.955 111.972C299.192 111.972 300.191 112.365 300.952 113.152C301.714 113.926 302.095 115.013 302.095 116.411V122.499H299.473V116.767C299.473 115.943 299.267 115.312 298.854 114.875C298.442 114.426 297.88 114.201 297.169 114.201C296.444 114.201 295.87 114.426 295.445 114.875C295.033 115.312 294.827 115.943 294.827 116.767V122.499H292.205V112.122H294.827V113.414C295.177 112.965 295.62 112.615 296.157 112.365C296.707 112.103 297.306 111.972 297.955 111.972ZM308.56 122.668C307.711 122.668 306.949 122.518 306.275 122.218C305.6 121.906 305.063 121.488 304.664 120.963C304.277 120.439 304.064 119.858 304.027 119.221H306.668C306.718 119.621 306.912 119.952 307.249 120.214C307.598 120.476 308.029 120.607 308.541 120.607C309.041 120.607 309.428 120.507 309.703 120.307C309.99 120.108 310.133 119.852 310.133 119.539C310.133 119.202 309.959 118.952 309.609 118.79C309.272 118.615 308.729 118.428 307.979 118.228C307.205 118.041 306.568 117.847 306.069 117.648C305.582 117.448 305.157 117.142 304.795 116.73C304.445 116.318 304.27 115.762 304.27 115.063C304.27 114.488 304.433 113.964 304.757 113.489C305.095 113.015 305.569 112.64 306.181 112.365C306.805 112.09 307.536 111.953 308.373 111.953C309.609 111.953 310.595 112.265 311.332 112.89C312.069 113.502 312.475 114.332 312.55 115.381H310.04C310.002 114.969 309.827 114.644 309.515 114.407C309.216 114.157 308.81 114.032 308.298 114.032C307.823 114.032 307.455 114.12 307.193 114.295C306.943 114.469 306.818 114.713 306.818 115.025C306.818 115.375 306.993 115.643 307.342 115.831C307.692 116.005 308.235 116.186 308.972 116.374C309.721 116.561 310.339 116.755 310.826 116.954C311.314 117.154 311.732 117.466 312.082 117.891C312.444 118.303 312.631 118.853 312.643 119.539C312.643 120.139 312.475 120.676 312.138 121.15C311.813 121.625 311.338 122 310.714 122.274C310.102 122.536 309.384 122.668 308.56 122.668ZM324.443 117.086C324.443 117.46 324.418 117.797 324.368 118.097H316.782C316.844 118.846 317.106 119.433 317.568 119.858C318.03 120.282 318.599 120.495 319.273 120.495C320.247 120.495 320.94 120.076 321.352 119.24H324.181C323.881 120.239 323.307 121.063 322.457 121.712C321.608 122.349 320.565 122.668 319.329 122.668C318.33 122.668 317.431 122.449 316.632 122.012C315.845 121.562 315.227 120.932 314.777 120.12C314.34 119.308 314.122 118.372 314.122 117.31C314.122 116.236 314.34 115.294 314.777 114.482C315.214 113.67 315.826 113.046 316.613 112.609C317.4 112.172 318.305 111.953 319.329 111.953C320.316 111.953 321.196 112.165 321.97 112.59C322.757 113.015 323.363 113.62 323.787 114.407C324.224 115.181 324.443 116.074 324.443 117.086ZM321.727 116.336C321.714 115.662 321.471 115.125 320.996 114.725C320.522 114.313 319.941 114.107 319.254 114.107C318.605 114.107 318.055 114.307 317.606 114.707C317.169 115.094 316.9 115.637 316.8 116.336H321.727ZM332.108 111.972C333.344 111.972 334.343 112.365 335.105 113.152C335.867 113.926 336.247 115.013 336.247 116.411V122.499H333.625V116.767C333.625 115.943 333.419 115.312 333.007 114.875C332.595 114.426 332.033 114.201 331.321 114.201C330.597 114.201 330.022 114.426 329.598 114.875C329.186 115.312 328.98 115.943 328.98 116.767V122.499H326.357V112.122H328.98V113.414C329.329 112.965 329.772 112.615 330.309 112.365C330.859 112.103 331.458 111.972 332.108 111.972ZM341.794 114.276V119.296C341.794 119.646 341.876 119.902 342.038 120.064C342.213 120.214 342.5 120.289 342.9 120.289H344.117V122.499H342.469C340.258 122.499 339.153 121.425 339.153 119.277V114.276H337.917V112.122H339.153V109.555H341.794V112.122H344.117V114.276H341.794ZM355.225 114.276H353.408V122.499H350.748V114.276H349.568V112.122H350.748V111.597C350.748 110.323 351.11 109.387 351.834 108.787C352.558 108.188 353.651 107.907 355.112 107.945V110.155C354.475 110.142 354.032 110.249 353.782 110.473C353.533 110.698 353.408 111.104 353.408 111.691V112.122H355.225V114.276ZM359.546 113.733C359.884 113.183 360.321 112.752 360.858 112.44C361.407 112.128 362.032 111.972 362.731 111.972V114.725H362.038C361.214 114.725 360.589 114.919 360.165 115.306C359.753 115.693 359.546 116.368 359.546 117.329V122.499H356.924V112.122H359.546V113.733ZM369.105 122.668C368.106 122.668 367.207 122.449 366.408 122.012C365.609 121.562 364.978 120.932 364.516 120.12C364.066 119.308 363.842 118.372 363.842 117.31C363.842 116.249 364.073 115.312 364.535 114.501C365.009 113.689 365.652 113.065 366.464 112.627C367.276 112.178 368.181 111.953 369.18 111.953C370.179 111.953 371.084 112.178 371.896 112.627C372.708 113.065 373.345 113.689 373.807 114.501C374.281 115.312 374.519 116.249 374.519 117.31C374.519 118.372 374.275 119.308 373.788 120.12C373.314 120.932 372.664 121.562 371.84 122.012C371.028 122.449 370.117 122.668 369.105 122.668ZM369.105 120.382C369.58 120.382 370.023 120.27 370.435 120.045C370.86 119.808 371.197 119.458 371.447 118.996C371.696 118.534 371.821 117.972 371.821 117.31C371.821 116.324 371.559 115.568 371.035 115.044C370.523 114.507 369.892 114.238 369.143 114.238C368.393 114.238 367.763 114.507 367.251 115.044C366.751 115.568 366.501 116.324 366.501 117.31C366.501 118.297 366.745 119.059 367.232 119.596C367.732 120.12 368.356 120.382 369.105 120.382ZM389.33 111.972C390.603 111.972 391.627 112.365 392.402 113.152C393.188 113.926 393.582 115.013 393.582 116.411V122.499H390.959V116.767C390.959 115.955 390.753 115.337 390.341 114.913C389.929 114.476 389.367 114.257 388.655 114.257C387.944 114.257 387.375 114.476 386.951 114.913C386.539 115.337 386.333 115.955 386.333 116.767V122.499H383.71V116.767C383.71 115.955 383.504 115.337 383.092 114.913C382.68 114.476 382.118 114.257 381.406 114.257C380.682 114.257 380.107 114.476 379.683 114.913C379.271 115.337 379.065 115.955 379.065 116.767V122.499H376.442V112.122H379.065V113.377C379.402 112.94 379.833 112.596 380.357 112.346C380.894 112.097 381.481 111.972 382.118 111.972C382.93 111.972 383.654 112.147 384.291 112.496C384.928 112.833 385.421 113.321 385.771 113.957C386.108 113.358 386.595 112.877 387.232 112.515C387.881 112.153 388.58 111.972 389.33 111.972ZM78.5518 148.008H73.3444L72.4828 150.499H69.7292L74.4309 137.406H77.4841L82.1858 150.499H79.4135L78.5518 148.008ZM77.84 145.91L75.9481 140.44L74.0562 145.91H77.84ZM89.6751 150.499L87.5396 147.277L85.6477 150.499H82.838L86.2284 145.292L82.8005 140.122H85.7601L87.8768 143.325L89.7874 140.122H92.5972L89.188 145.292L92.6347 150.499H89.6751ZM95.3889 138.885C94.9269 138.885 94.5398 138.742 94.2276 138.455C93.9279 138.155 93.778 137.786 93.778 137.349C93.778 136.912 93.9279 136.55 94.2276 136.263C94.5398 135.963 94.9269 135.813 95.3889 135.813C95.851 135.813 96.2319 135.963 96.5316 136.263C96.8438 136.55 96.9999 136.912 96.9999 137.349C96.9999 137.786 96.8438 138.155 96.5316 138.455C96.2319 138.742 95.851 138.885 95.3889 138.885ZM96.6814 140.122V150.499H94.059V140.122H96.6814ZM103.244 150.668C102.394 150.668 101.633 150.518 100.958 150.218C100.284 149.906 99.7469 149.488 99.3473 148.963C98.9602 148.439 98.7479 147.858 98.7104 147.221H101.352C101.402 147.621 101.595 147.952 101.932 148.214C102.282 148.476 102.713 148.607 103.225 148.607C103.724 148.607 104.111 148.507 104.386 148.307C104.673 148.108 104.817 147.852 104.817 147.539C104.817 147.202 104.642 146.952 104.292 146.79C103.955 146.615 103.412 146.428 102.663 146.228C101.889 146.041 101.252 145.847 100.752 145.648C100.265 145.448 99.8406 145.142 99.4784 144.73C99.1288 144.318 98.954 143.762 98.954 143.063C98.954 142.488 99.1163 141.964 99.441 141.489C99.7781 141.015 100.253 140.64 100.865 140.365C101.489 140.09 102.22 139.953 103.056 139.953C104.292 139.953 105.279 140.265 106.016 140.89C106.753 141.502 107.158 142.332 107.233 143.381H104.723C104.686 142.969 104.511 142.644 104.199 142.407C103.899 142.157 103.493 142.032 102.981 142.032C102.507 142.032 102.138 142.12 101.876 142.295C101.626 142.469 101.501 142.713 101.501 143.025C101.501 143.375 101.676 143.643 102.026 143.831C102.376 144.005 102.919 144.186 103.656 144.374C104.405 144.561 105.023 144.755 105.51 144.954C105.997 145.154 106.415 145.466 106.765 145.891C107.127 146.303 107.315 146.853 107.327 147.539C107.327 148.139 107.158 148.676 106.821 149.15C106.497 149.625 106.022 150 105.398 150.274C104.786 150.536 104.068 150.668 103.244 150.668ZM116.566 141.639C116.903 141.139 117.365 140.734 117.952 140.421C118.551 140.109 119.232 139.953 119.993 139.953C120.88 139.953 121.679 140.172 122.391 140.609C123.115 141.046 123.684 141.67 124.096 142.482C124.52 143.281 124.733 144.211 124.733 145.273C124.733 146.334 124.52 147.277 124.096 148.101C123.684 148.913 123.115 149.544 122.391 149.993C121.679 150.443 120.88 150.668 119.993 150.668C119.219 150.668 118.539 150.518 117.952 150.218C117.377 149.906 116.915 149.506 116.566 149.019V150.499H113.943V136.638H116.566V141.639ZM122.054 145.273C122.054 144.649 121.923 144.112 121.661 143.662C121.411 143.2 121.074 142.85 120.649 142.613C120.237 142.376 119.787 142.257 119.3 142.257C118.826 142.257 118.376 142.382 117.952 142.632C117.54 142.869 117.202 143.219 116.94 143.681C116.69 144.143 116.566 144.686 116.566 145.31C116.566 145.935 116.69 146.478 116.94 146.94C117.202 147.402 117.54 147.758 117.952 148.008C118.376 148.245 118.826 148.364 119.3 148.364C119.787 148.364 120.237 148.239 120.649 147.989C121.074 147.739 121.411 147.383 121.661 146.921C121.923 146.459 122.054 145.91 122.054 145.273ZM125.964 145.273C125.964 144.224 126.17 143.294 126.582 142.482C127.007 141.67 127.575 141.046 128.287 140.609C129.011 140.172 129.816 139.953 130.703 139.953C131.477 139.953 132.152 140.109 132.726 140.421C133.313 140.734 133.781 141.127 134.131 141.601V140.122H136.772V150.499H134.131V148.982C133.794 149.469 133.325 149.875 132.726 150.199C132.139 150.512 131.458 150.668 130.684 150.668C129.81 150.668 129.011 150.443 128.287 149.993C127.575 149.544 127.007 148.913 126.582 148.101C126.17 147.277 125.964 146.334 125.964 145.273ZM134.131 145.31C134.131 144.673 134.006 144.13 133.756 143.681C133.506 143.219 133.169 142.869 132.745 142.632C132.32 142.382 131.864 142.257 131.377 142.257C130.89 142.257 130.441 142.376 130.029 142.613C129.616 142.85 129.279 143.2 129.017 143.662C128.767 144.112 128.642 144.649 128.642 145.273C128.642 145.897 128.767 146.447 129.017 146.921C129.279 147.383 129.616 147.739 130.029 147.989C130.453 148.239 130.903 148.364 131.377 148.364C131.864 148.364 132.32 148.245 132.745 148.008C133.169 147.758 133.506 147.408 133.756 146.959C134.006 146.497 134.131 145.947 134.131 145.31ZM145.084 139.972C146.32 139.972 147.319 140.365 148.081 141.152C148.843 141.926 149.224 143.013 149.224 144.411V150.499H146.601V144.767C146.601 143.943 146.395 143.312 145.983 142.875C145.571 142.426 145.009 142.201 144.297 142.201C143.573 142.201 142.998 142.426 142.574 142.875C142.162 143.312 141.956 143.943 141.956 144.767V150.499H139.333V140.122H141.956V141.414C142.305 140.965 142.749 140.615 143.286 140.365C143.835 140.103 144.435 139.972 145.084 139.972ZM157.861 150.499L154.34 146.078V150.499H151.717V136.638H154.34V144.524L157.824 140.122H161.233L156.663 145.329L161.271 150.499H157.861Z" fill="white"/>
<rect x="15.4219" y="178.816" width="401.811" height="1.00428" fill="#EAECF0" fill-opacity="0.18"/>
<g clip-path="url(#clip1_174_918)">
<path d="M25.4649 220.007C30.0871 220.007 33.8341 216.26 33.8341 211.638C33.8341 207.016 30.0871 203.269 25.4649 203.269C20.8427 203.269 17.0957 207.016 17.0957 211.638C17.0957 216.26 20.8427 220.007 25.4649 220.007Z" stroke="#EAECF0" stroke-width="2.0086" stroke-linecap="round" stroke-linejoin="round"/>
<path d="M33.834 211.638H30.4863" stroke="#EAECF0" stroke-width="2.0086" stroke-linecap="round" stroke-linejoin="round"/>
<path d="M20.4434 211.638H17.0957" stroke="#EAECF0" stroke-width="2.0086" stroke-linecap="round" stroke-linejoin="round"/>
<path d="M25.4648 206.616V203.269" stroke="#EAECF0" stroke-width="2.0086" stroke-linecap="round" stroke-linejoin="round"/>
<path d="M25.4648 220.007V216.659" stroke="#EAECF0" stroke-width="2.0086" stroke-linecap="round" stroke-linejoin="round"/>
</g>
<path d="M55.2054 206.018L51.9094 217.138H49.8454L47.5094 208.722L45.0294 217.138L42.9814 217.154L39.8294 206.018H41.7654L44.0694 215.074L46.5654 206.018H48.6134L50.9334 215.026L53.2534 206.018H55.2054ZM64.7898 212.514C64.7898 212.844 64.7684 213.143 64.7258 213.41H57.9898C58.0431 214.114 58.3044 214.679 58.7738 215.106C59.2431 215.532 59.8191 215.746 60.5018 215.746C61.4831 215.746 62.1764 215.335 62.5818 214.514H64.5498C64.2831 215.324 63.7978 215.991 63.0938 216.514C62.4004 217.026 61.5364 217.282 60.5018 217.282C59.6591 217.282 58.9018 217.095 58.2298 216.722C57.5684 216.338 57.0458 215.804 56.6618 215.122C56.2884 214.428 56.1018 213.628 56.1018 212.722C56.1018 211.815 56.2831 211.02 56.6458 210.338C57.0191 209.644 57.5364 209.111 58.1978 208.738C58.8698 208.364 59.6378 208.178 60.5018 208.178C61.3338 208.178 62.0751 208.359 62.7258 208.722C63.3764 209.084 63.8831 209.596 64.2458 210.258C64.6084 210.908 64.7898 211.66 64.7898 212.514ZM62.8858 211.938C62.8751 211.266 62.6351 210.727 62.1658 210.322C61.6964 209.916 61.1151 209.714 60.4218 209.714C59.7924 209.714 59.2538 209.916 58.8058 210.322C58.3578 210.716 58.0911 211.255 58.0058 211.938H62.8858ZM65.9768 212.69C65.9768 211.804 66.1581 211.02 66.5208 210.338C66.8941 209.655 67.3954 209.127 68.0248 208.754C68.6648 208.37 69.3688 208.178 70.1368 208.178C70.8301 208.178 71.4328 208.316 71.9448 208.594C72.4674 208.86 72.8834 209.196 73.1928 209.602V208.322H75.0328V217.138H73.1928V215.826C72.8834 216.242 72.4621 216.588 71.9288 216.866C71.3954 217.143 70.7874 217.282 70.1048 217.282C69.3474 217.282 68.6541 217.09 68.0248 216.706C67.3954 216.311 66.8941 215.767 66.5208 215.074C66.1581 214.37 65.9768 213.575 65.9768 212.69ZM73.1928 212.722C73.1928 212.114 73.0648 211.586 72.8088 211.138C72.5634 210.69 72.2381 210.348 71.8328 210.114C71.4274 209.879 70.9901 209.762 70.5208 209.762C70.0514 209.762 69.6141 209.879 69.2088 210.114C68.8034 210.338 68.4728 210.674 68.2168 211.122C67.9714 211.559 67.8488 212.082 67.8488 212.69C67.8488 213.298 67.9714 213.831 68.2168 214.29C68.4728 214.748 68.8034 215.1 69.2088 215.346C69.6248 215.58 70.0621 215.698 70.5208 215.698C70.9901 215.698 71.4274 215.58 71.8328 215.346C72.2381 215.111 72.5634 214.77 72.8088 214.322C73.0648 213.863 73.1928 213.33 73.1928 212.722ZM79.2525 205.298V217.138H77.4285V205.298H79.2525ZM83.7753 209.81V214.69C83.7753 215.02 83.8499 215.26 83.9993 215.41C84.1593 215.548 84.4259 215.618 84.7993 215.618H85.9193V217.138H84.4793C83.6579 217.138 83.0286 216.946 82.5913 216.562C82.1539 216.178 81.9353 215.554 81.9353 214.69V209.81H80.8953V208.322H81.9353V206.13H83.7753V208.322H85.9193V209.81H83.7753ZM92.1604 208.178C92.8324 208.178 93.4297 208.322 93.9524 208.61C94.4857 208.898 94.9017 209.324 95.2004 209.89C95.5097 210.455 95.6644 211.138 95.6644 211.938V217.138H93.8564V212.21C93.8564 211.42 93.6591 210.818 93.2644 210.402C92.8697 209.975 92.3311 209.762 91.6484 209.762C90.9657 209.762 90.4217 209.975 90.0164 210.402C89.6217 210.818 89.4244 211.42 89.4244 212.21V217.138H87.6004V205.298H89.4244V209.346C89.7337 208.972 90.1231 208.684 90.5924 208.482C91.0724 208.279 91.5951 208.178 92.1604 208.178ZM112.819 208.178C113.513 208.178 114.131 208.322 114.675 208.61C115.23 208.898 115.662 209.324 115.971 209.89C116.291 210.455 116.451 211.138 116.451 211.938V217.138H114.643V212.21C114.643 211.42 114.446 210.818 114.051 210.402C113.657 209.975 113.118 209.762 112.435 209.762C111.753 209.762 111.209 209.975 110.803 210.402C110.409 210.818 110.211 211.42 110.211 212.21V217.138H108.403V212.21C108.403 211.42 108.206 210.818 107.811 210.402C107.417 209.975 106.878 209.762 106.195 209.762C105.513 209.762 104.969 209.975 104.563 210.402C104.169 210.818 103.971 211.42 103.971 212.21V217.138H102.147V208.322H103.971V209.33C104.27 208.967 104.649 208.684 105.107 208.482C105.566 208.279 106.057 208.178 106.579 208.178C107.283 208.178 107.913 208.327 108.467 208.626C109.022 208.924 109.449 209.356 109.747 209.922C110.014 209.388 110.43 208.967 110.995 208.658C111.561 208.338 112.169 208.178 112.819 208.178ZM118.164 212.69C118.164 211.804 118.346 211.02 118.708 210.338C119.082 209.655 119.583 209.127 120.212 208.754C120.852 208.37 121.556 208.178 122.324 208.178C123.018 208.178 123.62 208.316 124.132 208.594C124.655 208.86 125.071 209.196 125.38 209.602V208.322H127.22V217.138H125.38V215.826C125.071 216.242 124.65 216.588 124.116 216.866C123.583 217.143 122.975 217.282 122.292 217.282C121.535 217.282 120.842 217.09 120.212 216.706C119.583 216.311 119.082 215.767 118.708 215.074C118.346 214.37 118.164 213.575 118.164 212.69ZM125.38 212.722C125.38 212.114 125.252 211.586 124.996 211.138C124.751 210.69 124.426 210.348 124.02 210.114C123.615 209.879 123.178 209.762 122.708 209.762C122.239 209.762 121.802 209.879 121.396 210.114C120.991 210.338 120.66 210.674 120.404 211.122C120.159 211.559 120.036 212.082 120.036 212.69C120.036 213.298 120.159 213.831 120.404 214.29C120.66 214.748 120.991 215.1 121.396 215.346C121.812 215.58 122.25 215.698 122.708 215.698C123.178 215.698 123.615 215.58 124.02 215.346C124.426 215.111 124.751 214.77 124.996 214.322C125.252 213.863 125.38 213.33 125.38 212.722ZM134.064 208.178C134.757 208.178 135.376 208.322 135.92 208.61C136.475 208.898 136.907 209.324 137.216 209.89C137.525 210.455 137.68 211.138 137.68 211.938V217.138H135.872V212.21C135.872 211.42 135.675 210.818 135.28 210.402C134.885 209.975 134.347 209.762 133.664 209.762C132.981 209.762 132.437 209.975 132.032 210.402C131.637 210.818 131.44 211.42 131.44 212.21V217.138H129.616V208.322H131.44V209.33C131.739 208.967 132.117 208.684 132.576 208.482C133.045 208.279 133.541 208.178 134.064 208.178ZM139.399 212.69C139.399 211.804 139.58 211.02 139.943 210.338C140.316 209.655 140.817 209.127 141.447 208.754C142.087 208.37 142.791 208.178 143.559 208.178C144.252 208.178 144.855 208.316 145.367 208.594C145.889 208.86 146.305 209.196 146.615 209.602V208.322H148.455V217.138H146.615V215.826C146.305 216.242 145.884 216.588 145.351 216.866C144.817 217.143 144.209 217.282 143.527 217.282C142.769 217.282 142.076 217.09 141.447 216.706C140.817 216.311 140.316 215.767 139.943 215.074C139.58 214.37 139.399 213.575 139.399 212.69ZM146.615 212.722C146.615 212.114 146.487 211.586 146.231 211.138C145.985 210.69 145.66 210.348 145.255 210.114C144.849 209.879 144.412 209.762 143.943 209.762C143.473 209.762 143.036 209.879 142.631 210.114C142.225 210.338 141.895 210.674 141.639 211.122C141.393 211.559 141.271 212.082 141.271 212.69C141.271 213.298 141.393 213.831 141.639 214.29C141.895 214.748 142.225 215.1 142.631 215.346C143.047 215.58 143.484 215.698 143.943 215.698C144.412 215.698 144.849 215.58 145.255 215.346C145.66 215.111 145.985 214.77 146.231 214.322C146.487 213.863 146.615 213.33 146.615 212.722ZM154.402 208.178C155.085 208.178 155.688 208.316 156.21 208.594C156.744 208.86 157.16 209.196 157.458 209.602V208.322H159.298V217.282C159.298 218.092 159.128 218.812 158.786 219.442C158.445 220.082 157.949 220.583 157.298 220.946C156.658 221.308 155.89 221.49 154.994 221.49C153.8 221.49 152.808 221.207 152.018 220.642C151.229 220.087 150.781 219.33 150.674 218.37H152.482C152.621 218.828 152.914 219.196 153.362 219.474C153.821 219.762 154.365 219.906 154.994 219.906C155.73 219.906 156.322 219.682 156.77 219.234C157.229 218.786 157.458 218.135 157.458 217.282V215.81C157.149 216.226 156.728 216.578 156.194 216.866C155.672 217.143 155.074 217.282 154.402 217.282C153.634 217.282 152.93 217.09 152.29 216.706C151.661 216.311 151.16 215.767 150.786 215.074C150.424 214.37 150.242 213.575 150.242 212.69C150.242 211.804 150.424 211.02 150.786 210.338C151.16 209.655 151.661 209.127 152.29 208.754C152.93 208.37 153.634 208.178 154.402 208.178ZM157.458 212.722C157.458 212.114 157.33 211.586 157.074 211.138C156.829 210.69 156.504 210.348 156.098 210.114C155.693 209.879 155.256 209.762 154.786 209.762C154.317 209.762 153.88 209.879 153.474 210.114C153.069 210.338 152.738 210.674 152.482 211.122C152.237 211.559 152.114 212.082 152.114 212.69C152.114 213.298 152.237 213.831 152.482 214.29C152.738 214.748 153.069 215.1 153.474 215.346C153.89 215.58 154.328 215.698 154.786 215.698C155.256 215.698 155.693 215.58 156.098 215.346C156.504 215.111 156.829 214.77 157.074 214.322C157.33 213.863 157.458 213.33 157.458 212.722ZM169.774 212.514C169.774 212.844 169.753 213.143 169.71 213.41H162.974C163.027 214.114 163.289 214.679 163.758 215.106C164.227 215.532 164.803 215.746 165.486 215.746C166.467 215.746 167.161 215.335 167.566 214.514H169.534C169.267 215.324 168.782 215.991 168.078 216.514C167.385 217.026 166.521 217.282 165.486 217.282C164.643 217.282 163.886 217.095 163.214 216.722C162.553 216.338 162.03 215.804 161.646 215.122C161.273 214.428 161.086 213.628 161.086 212.722C161.086 211.815 161.267 211.02 161.63 210.338C162.003 209.644 162.521 209.111 163.182 208.738C163.854 208.364 164.622 208.178 165.486 208.178C166.318 208.178 167.059 208.359 167.71 208.722C168.361 209.084 168.867 209.596 169.23 210.258C169.593 210.908 169.774 211.66 169.774 212.514ZM167.87 211.938C167.859 211.266 167.619 210.727 167.15 210.322C166.681 209.916 166.099 209.714 165.406 209.714C164.777 209.714 164.238 209.916 163.79 210.322C163.342 210.716 163.075 211.255 162.99 211.938H167.87ZM182.241 208.178C182.934 208.178 183.553 208.322 184.097 208.61C184.652 208.898 185.084 209.324 185.393 209.89C185.713 210.455 185.873 211.138 185.873 211.938V217.138H184.065V212.21C184.065 211.42 183.868 210.818 183.473 210.402C183.078 209.975 182.54 209.762 181.857 209.762C181.174 209.762 180.63 209.975 180.225 210.402C179.83 210.818 179.633 211.42 179.633 212.21V217.138H177.825V212.21C177.825 211.42 177.628 210.818 177.233 210.402C176.838 209.975 176.3 209.762 175.617 209.762C174.934 209.762 174.39 209.975 173.985 210.402C173.59 210.818 173.393 211.42 173.393 212.21V217.138H171.569V208.322H173.393V209.33C173.692 208.967 174.07 208.684 174.529 208.482C174.988 208.279 175.478 208.178 176.001 208.178C176.705 208.178 177.334 208.327 177.889 208.626C178.444 208.924 178.87 209.356 179.169 209.922C179.436 209.388 179.852 208.967 180.417 208.658C180.982 208.338 181.59 208.178 182.241 208.178ZM196.274 212.514C196.274 212.844 196.253 213.143 196.21 213.41H189.474C189.527 214.114 189.789 214.679 190.258 215.106C190.727 215.532 191.303 215.746 191.986 215.746C192.967 215.746 193.661 215.335 194.066 214.514H196.034C195.767 215.324 195.282 215.991 194.578 216.514C193.885 217.026 193.021 217.282 191.986 217.282C191.143 217.282 190.386 217.095 189.714 216.722C189.053 216.338 188.53 215.804 188.146 215.122C187.773 214.428 187.586 213.628 187.586 212.722C187.586 211.815 187.767 211.02 188.13 210.338C188.503 209.644 189.021 209.111 189.682 208.738C190.354 208.364 191.122 208.178 191.986 208.178C192.818 208.178 193.559 208.359 194.21 208.722C194.861 209.084 195.367 209.596 195.73 210.258C196.093 210.908 196.274 211.66 196.274 212.514ZM194.37 211.938C194.359 211.266 194.119 210.727 193.65 210.322C193.181 209.916 192.599 209.714 191.906 209.714C191.277 209.714 190.738 209.916 190.29 210.322C189.842 210.716 189.575 211.255 189.49 211.938H194.37ZM202.517 208.178C203.21 208.178 203.829 208.322 204.373 208.61C204.928 208.898 205.36 209.324 205.669 209.89C205.978 210.455 206.133 211.138 206.133 211.938V217.138H204.325V212.21C204.325 211.42 204.128 210.818 203.733 210.402C203.338 209.975 202.8 209.762 202.117 209.762C201.434 209.762 200.89 209.975 200.485 210.402C200.09 210.818 199.893 211.42 199.893 212.21V217.138H198.069V208.322H199.893V209.33C200.192 208.967 200.57 208.684 201.029 208.482C201.498 208.279 201.994 208.178 202.517 208.178ZM210.588 209.81V214.69C210.588 215.02 210.662 215.26 210.812 215.41C210.972 215.548 211.238 215.618 211.612 215.618H212.732V217.138H211.292C210.47 217.138 209.841 216.946 209.404 216.562C208.966 216.178 208.748 215.554 208.748 214.69V209.81H207.708V208.322H208.748V206.13H210.588V208.322H212.732V209.81H210.588Z" fill="#EAECF0"/>
<g clip-path="url(#clip2_174_918)">
<path d="M292.031 204.942H280.314C279.39 204.942 278.641 205.692 278.641 206.616V218.333C278.641 219.258 279.39 220.007 280.314 220.007H292.031C292.956 220.007 293.705 219.258 293.705 218.333V206.616C293.705 205.692 292.956 204.942 292.031 204.942Z" stroke="#EAECF0" stroke-width="2.0086" stroke-linecap="round" stroke-linejoin="round"/>
<path d="M289.521 203.269V206.616" stroke="#EAECF0" stroke-width="2.0086" stroke-linecap="round" stroke-linejoin="round"/>
<path d="M282.825 203.269V206.616" stroke="#EAECF0" stroke-width="2.0086" stroke-linecap="round" stroke-linejoin="round"/>
<path d="M278.641 209.964H293.705" stroke="#EAECF0" stroke-width="2.0086" stroke-linecap="round" stroke-linejoin="round"/>
</g>
<path d="M301.865 208.354C301.929 207.362 302.307 206.588 303.001 206.034C303.705 205.479 304.601 205.202 305.689 205.202C306.435 205.202 307.081 205.335 307.625 205.602C308.169 205.868 308.579 206.231 308.857 206.69C309.134 207.148 309.273 207.666 309.273 208.242C309.273 208.903 309.097 209.468 308.745 209.938C308.393 210.407 307.971 210.722 307.481 210.882V210.946C308.11 211.138 308.601 211.49 308.953 212.002C309.305 212.503 309.481 213.148 309.481 213.938C309.481 214.567 309.337 215.127 309.049 215.618C308.761 216.108 308.334 216.498 307.769 216.786C307.203 217.063 306.526 217.202 305.737 217.202C304.585 217.202 303.635 216.908 302.889 216.322C302.153 215.724 301.758 214.871 301.705 213.762H303.465C303.507 214.327 303.726 214.791 304.121 215.154C304.515 215.506 305.049 215.682 305.721 215.682C306.371 215.682 306.873 215.506 307.225 215.154C307.577 214.791 307.753 214.327 307.753 213.762C307.753 213.015 307.513 212.487 307.033 212.178C306.563 211.858 305.838 211.698 304.857 211.698H304.441V210.194H304.873C305.737 210.183 306.393 210.039 306.841 209.762C307.299 209.484 307.529 209.047 307.529 208.45C307.529 207.938 307.363 207.532 307.033 207.234C306.702 206.924 306.233 206.77 305.625 206.77C305.027 206.77 304.563 206.924 304.233 207.234C303.902 207.532 303.705 207.906 303.641 208.354H301.865ZM311.157 207.138V205.474H314.485V217.138H312.645V207.138H311.157ZM333.099 206.018V217.138H331.275V209.522L327.883 217.138H326.619L323.211 209.522V217.138H321.387V206.018H323.355L327.259 214.738L331.147 206.018H333.099ZM334.888 212.69C334.888 211.804 335.069 211.02 335.432 210.338C335.805 209.655 336.307 209.127 336.936 208.754C337.576 208.37 338.28 208.178 339.048 208.178C339.741 208.178 340.344 208.316 340.856 208.594C341.379 208.86 341.795 209.196 342.104 209.602V208.322H343.944V217.138H342.104V215.826C341.795 216.242 341.373 216.588 340.84 216.866C340.307 217.143 339.699 217.282 339.016 217.282C338.259 217.282 337.565 217.09 336.936 216.706C336.307 216.311 335.805 215.767 335.432 215.074C335.069 214.37 334.888 213.575 334.888 212.69ZM342.104 212.722C342.104 212.114 341.976 211.586 341.72 211.138C341.475 210.69 341.149 210.348 340.744 210.114C340.339 209.879 339.901 209.762 339.432 209.762C338.963 209.762 338.525 209.879 338.12 210.114C337.715 210.338 337.384 210.674 337.128 211.122C336.883 211.559 336.76 212.082 336.76 212.69C336.76 213.298 336.883 213.831 337.128 214.29C337.384 214.748 337.715 215.1 338.12 215.346C338.536 215.58 338.973 215.698 339.432 215.698C339.901 215.698 340.339 215.58 340.744 215.346C341.149 215.111 341.475 214.77 341.72 214.322C341.976 213.863 342.104 213.33 342.104 212.722ZM348.164 209.602C348.43 209.154 348.782 208.807 349.22 208.562C349.668 208.306 350.196 208.178 350.804 208.178V210.066H350.34C349.625 210.066 349.081 210.247 348.708 210.61C348.345 210.972 348.164 211.602 348.164 212.498V217.138H346.34V208.322H348.164V209.602ZM351.872 212.722C351.872 211.815 352.054 211.02 352.416 210.338C352.79 209.644 353.302 209.111 353.952 208.738C354.603 208.364 355.35 208.178 356.192 208.178C357.259 208.178 358.139 208.434 358.832 208.946C359.536 209.447 360.011 210.167 360.256 211.106H358.288C358.128 210.668 357.872 210.327 357.52 210.082C357.168 209.836 356.726 209.714 356.192 209.714C355.446 209.714 354.848 209.98 354.4 210.514C353.963 211.036 353.744 211.772 353.744 212.722C353.744 213.671 353.963 214.412 354.4 214.946C354.848 215.479 355.446 215.746 356.192 215.746C357.248 215.746 357.947 215.282 358.288 214.354H360.256C360 215.25 359.52 215.964 358.816 216.498C358.112 217.02 357.238 217.282 356.192 217.282C355.35 217.282 354.603 217.095 353.952 216.722C353.302 216.338 352.79 215.804 352.416 215.122C352.054 214.428 351.872 213.628 351.872 212.722ZM366.634 208.178C367.306 208.178 367.903 208.322 368.426 208.61C368.959 208.898 369.375 209.324 369.674 209.89C369.983 210.455 370.138 211.138 370.138 211.938V217.138H368.33V212.21C368.33 211.42 368.133 210.818 367.738 210.402C367.343 209.975 366.805 209.762 366.122 209.762C365.439 209.762 364.895 209.975 364.49 210.402C364.095 210.818 363.898 211.42 363.898 212.21V217.138H362.074V205.298H363.898V209.346C364.207 208.972 364.597 208.684 365.066 208.482C365.546 208.279 366.069 208.178 366.634 208.178ZM374.465 214.946L372.529 219.362H371.345L372.481 214.946H374.465ZM380.983 214.658C382.007 213.772 382.812 213.047 383.399 212.482C383.996 211.906 384.492 211.308 384.887 210.69C385.281 210.071 385.479 209.452 385.479 208.834C385.479 208.194 385.324 207.692 385.015 207.33C384.716 206.967 384.241 206.786 383.591 206.786C382.961 206.786 382.471 206.988 382.119 207.394C381.777 207.788 381.596 208.322 381.575 208.994H379.815C379.847 207.778 380.209 206.85 380.903 206.21C381.607 205.559 382.497 205.234 383.575 205.234C384.737 205.234 385.644 205.554 386.295 206.194C386.956 206.834 387.287 207.687 387.287 208.754C387.287 209.522 387.089 210.263 386.695 210.978C386.311 211.682 385.847 212.316 385.303 212.882C384.769 213.436 384.087 214.082 383.255 214.818L382.535 215.458H387.607V216.978H379.831V215.65L380.983 214.658ZM389.209 211.154C389.209 209.308 389.518 207.868 390.137 206.834C390.766 205.788 391.844 205.266 393.369 205.266C394.894 205.266 395.966 205.788 396.585 206.834C397.214 207.868 397.529 209.308 397.529 211.154C397.529 213.02 397.214 214.482 396.585 215.538C395.966 216.583 394.894 217.106 393.369 217.106C391.844 217.106 390.766 216.583 390.137 215.538C389.518 214.482 389.209 213.02 389.209 211.154ZM395.737 211.154C395.737 210.29 395.678 209.559 395.561 208.962C395.454 208.364 395.23 207.879 394.889 207.506C394.548 207.122 394.041 206.93 393.369 206.93C392.697 206.93 392.19 207.122 391.849 207.506C391.508 207.879 391.278 208.364 391.161 208.962C391.054 209.559 391.001 210.29 391.001 211.154C391.001 212.05 391.054 212.802 391.161 213.41C391.268 214.018 391.492 214.508 391.833 214.882C392.185 215.255 392.697 215.442 393.369 215.442C394.041 215.442 394.548 215.255 394.889 214.882C395.241 214.508 395.47 214.018 395.577 213.41C395.684 212.802 395.737 212.05 395.737 211.154ZM400.467 214.658C401.491 213.772 402.296 213.047 402.883 212.482C403.48 211.906 403.976 211.308 404.371 210.69C404.766 210.071 404.963 209.452 404.963 208.834C404.963 208.194 404.808 207.692 404.499 207.33C404.2 206.967 403.726 206.786 403.075 206.786C402.446 206.786 401.955 206.988 401.603 207.394C401.262 207.788 401.08 208.322 401.059 208.994H399.299C399.331 207.778 399.694 206.85 400.387 206.21C401.091 205.559 401.982 205.234 403.059 205.234C404.222 205.234 405.128 205.554 405.779 206.194C406.44 206.834 406.771 207.687 406.771 208.754C406.771 209.522 406.574 210.263 406.179 210.978C405.795 211.682 405.331 212.316 404.787 212.882C404.254 213.436 403.571 214.082 402.739 214.818L402.019 215.458H407.091V216.978H399.315V215.65L400.467 214.658ZM408.661 208.354C408.725 207.362 409.104 206.588 409.797 206.034C410.501 205.479 411.397 205.202 412.485 205.202C413.232 205.202 413.877 205.335 414.421 205.602C414.965 205.868 415.376 206.231 415.653 206.69C415.931 207.148 416.069 207.666 416.069 208.242C416.069 208.903 415.893 209.468 415.541 209.938C415.189 210.407 414.768 210.722 414.277 210.882V210.946C414.907 211.138 415.397 211.49 415.749 212.002C416.101 212.503 416.277 213.148 416.277 213.938C416.277 214.567 416.133 215.127 415.845 215.618C415.557 216.108 415.131 216.498 414.565 216.786C414 217.063 413.323 217.202 412.533 217.202C411.381 217.202 410.432 216.908 409.685 216.322C408.949 215.724 408.555 214.871 408.501 213.762H410.261C410.304 214.327 410.523 214.791 410.917 215.154C411.312 215.506 411.845 215.682 412.517 215.682C413.168 215.682 413.669 215.506 414.021 215.154C414.373 214.791 414.549 214.327 414.549 213.762C414.549 213.015 414.309 212.487 413.829 212.178C413.36 211.858 412.635 211.698 411.653 211.698H411.237V210.194H411.669C412.533 210.183 413.189 210.039 413.637 209.762C414.096 209.484 414.325 209.047 414.325 208.45C414.325 207.938 414.16 207.532 413.829 207.234C413.499 206.924 413.029 206.77 412.421 206.77C411.824 206.77 411.36 206.924 411.029 207.234C410.699 207.532 410.501 207.906 410.437 208.354H408.661Z" fill="#EAECF0"/>
</g>
<defs>
<linearGradient id="paint0_linear_174_918" x1="398.231" y1="183.764" x2="16.5549" y2="292.768" gradientUnits="userSpaceOnUse">
<stop stop-color="#E0E0E0" stop-opacity="0.18"/>
<stop offset="1" stop-color="#C9C9C9" stop-opacity="0.3"/>
</linearGradient>
<linearGradient id="paint1_linear_174_918" x1="409.938" y1="129.385" x2="1.49271" y2="242.255" gradientUnits="userSpaceOnUse">
<stop stop-color="#E0E0E0" stop-opacity="0.18"/>
<stop offset="1" stop-color="#C9C9C9" stop-opacity="0.3"/>
</linearGradient>
<linearGradient id="paint2_linear_174_918" x1="421.646" y1="89.4475" x2="-7.94971" y2="215.301" gradientUnits="userSpaceOnUse">
<stop stop-color="#E0E0E0" stop-opacity="0.18"/>
<stop offset="1" stop-color="#C9C9C9" stop-opacity="0.3"/>
</linearGradient>
<linearGradient id="paint3_linear_174_918" x1="431.011" y1="65.6882" x2="-14.2624" y2="211.915" gradientUnits="userSpaceOnUse">
<stop stop-color="#E0E0E0" stop-opacity="0.18"/>
<stop offset="1" stop-color="#C9C9C9" stop-opacity="0.3"/>
</linearGradient>
<clipPath id="clip0_174_918">
<rect width="435" height="407.782" fill="white" transform="translate(0.5 0.608887)"/>
</clipPath>
<clipPath id="clip1_174_918">
<rect width="20.086" height="20.086" fill="white" transform="translate(15.4219 201.595)"/>
</clipPath>
<clipPath id="clip2_174_918">
<rect width="20.086" height="20.086" fill="white" transform="translate(276.13 201.595)"/>
</clipPath>
</defs>
</svg>
