<svg width="1819" height="1039" viewBox="0 0 1819 1039" fill="none" xmlns="http://www.w3.org/2000/svg">
<g clip-path="url(#clip0_211_1106)">
<rect width="1819" height="1039" fill="white"/>
<g clip-path="url(#clip1_211_1106)">
<rect width="1059" height="3481" transform="matrix(0 -1 1 0 0 1059)" fill="#008E9A"/>
<g filter="url(#filter0_f_211_1106)">
<path fill-rule="evenodd" clip-rule="evenodd" d="M3034.16 -272.974C3193.84 -223.189 3198.94 4.02269 3232.73 171.053C3269.48 352.772 3324.83 546.324 3236.72 728.436C3147.53 912.777 2963.35 1057.19 2773.19 1120.88C2600.67 1178.67 2455.71 1020.82 2280.15 1048.82C2016.58 1090.85 1754.53 1416.8 1525.7 1319.85C1314.22 1230.24 1285.33 899.04 1352.24 655.645C1414.49 429.179 1735.01 356.455 1848.83 144.307C1960.74 -64.3034 1758.75 -444.402 1978.76 -512.181C2230.74 -589.806 2262.7 -111.031 2501.77 -56.8441C2677.82 -16.9416 2863.36 -326.227 3034.16 -272.974Z" fill="#00B2C1"/>
<path fill-rule="evenodd" clip-rule="evenodd" d="M1051.49 212.635C1045.1 104.466 1192.74 28.1454 1305.15 -49.8547C1420.97 -130.219 1531.35 -240.655 1698.24 -236.13C1863.28 -231.656 1965.65 -119.601 2060.65 -29.3727C2136.15 42.3245 2159.41 125.317 2170.76 212.635C2183.76 312.527 2204.68 413.85 2129.6 500.682C2029.18 616.812 1898.32 770.562 1698.24 759.108C1497.19 747.599 1460.11 560.91 1335 455.196C1235.99 371.542 1057.78 319.175 1051.49 212.635Z" fill="#006B74"/>
<path fill-rule="evenodd" clip-rule="evenodd" d="M605.883 1264.49C598.695 1142.86 764.718 1057.03 891.122 969.326C1021.36 878.958 1145.48 754.775 1333.14 759.863C1518.72 764.894 1633.83 890.898 1740.66 992.357C1825.55 1072.98 1851.71 1166.3 1864.48 1264.49C1879.09 1376.82 1902.62 1490.75 1818.19 1588.39C1705.28 1718.98 1558.13 1891.86 1333.14 1878.99C1107.07 1866.04 1065.37 1656.12 924.681 1537.24C813.354 1443.18 612.962 1384.29 605.883 1264.49Z" fill="#00474D"/>
<path fill-rule="evenodd" clip-rule="evenodd" d="M523.931 972.33C646.674 1045.84 824.755 979.614 907.971 1111.47C1006.26 1267.21 1043.67 1491.32 986.215 1704.84C925.87 1929.13 781.639 2132.89 606.902 2230.44C444.229 2321.26 267.6 2280.67 133.449 2180.91C24.8022 2100.11 8.53101 1922.21 -21.4492 1763.14C-44.8669 1638.88 -24.0375 1513.98 -17.3806 1380.59C-3.73724 1107.19 -163.377 741.089 37.0993 589.89C234.767 440.808 342.702 863.788 523.931 972.33Z" fill="#008E9A"/>
<path fill-rule="evenodd" clip-rule="evenodd" d="M-312.622 240.542C-319.348 126.721 -163.988 46.4125 -45.7024 -35.6634C76.1692 -120.227 192.315 -236.434 367.925 -231.673C541.589 -226.965 649.307 -109.054 749.276 -14.1112C828.715 61.3326 853.19 148.662 865.141 240.542C878.813 345.654 900.832 452.272 821.826 543.642C716.164 665.84 578.462 827.624 367.925 815.571C156.375 803.461 117.352 607.017 -14.2993 495.778C-118.476 407.754 -305.997 352.65 -312.622 240.542Z" fill="#00474D"/>
</g>
</g>
</g>
<defs>
<filter id="filter0_f_211_1106" x="-841.009" y="-1048.85" width="6028.4" height="3858.05" filterUnits="userSpaceOnUse" color-interpolation-filters="sRGB">
<feFlood flood-opacity="0" result="BackgroundImageFix"/>
<feBlend mode="normal" in="SourceGraphic" in2="BackgroundImageFix" result="shape"/>
<feGaussianBlur stdDeviation="264.088" result="effect1_foregroundBlur_211_1106"/>
</filter>
<clipPath id="clip0_211_1106">
<rect width="1819" height="1039" fill="white"/>
</clipPath>
<clipPath id="clip1_211_1106">
<rect width="1059" height="3481" fill="white" transform="matrix(0 -1 1 0 0 1059)"/>
</clipPath>
</defs>
</svg>
