<svg width="476" height="96" viewBox="0 0 476 96" fill="none" xmlns="http://www.w3.org/2000/svg" xmlns:xlink="http://www.w3.org/1999/xlink">
<rect x="1.08292" y="0.507485" width="473.834" height="94.2477" rx="7.08859" fill="white" fill-opacity="0.26"/>
<rect x="1.08292" y="0.507485" width="473.834" height="94.2477" rx="7.08859" stroke="url(#paint0_linear_174_686)" stroke-width="0.945145"/>
<image x="32" y="24" width="40" height="40" href="./gstn-removebg-preview.png" xlink:href="./gstn-removebg-preview.png"/>
<path d="M86.3099 23.9046V38.9359H83.295V23.9046H86.3099ZM88.5564 31.3987C88.5564 29.92 88.8866 28.5992 89.547 27.4363C90.2218 26.259 91.1334 25.3474 92.2819 24.7014C93.4448 24.041 94.7441 23.7108 96.1797 23.7108C97.8595 23.7108 99.331 24.1414 100.594 25.0028C101.858 25.8642 102.741 27.0558 103.243 28.5776H99.7761C99.4315 27.8598 98.9434 27.3214 98.3117 26.9625C97.6944 26.6036 96.9765 26.4241 96.1582 26.4241C95.2825 26.4241 94.5 26.6323 93.8109 27.0487C93.1362 27.4506 92.605 28.0249 92.2173 28.7714C91.8441 29.518 91.6574 30.3937 91.6574 31.3987C91.6574 32.3893 91.8441 33.2651 92.2173 34.026C92.605 34.7725 93.1362 35.3539 93.8109 35.7703C94.5 36.1723 95.2825 36.3733 96.1582 36.3733C96.9765 36.3733 97.6944 36.1938 98.3117 35.8349C98.9434 35.4616 99.4315 34.9161 99.7761 34.1982H103.243C102.741 35.7344 101.858 36.9332 100.594 37.7946C99.3454 38.6416 97.8738 39.0651 96.1797 39.0651C94.7441 39.0651 93.4448 38.7421 92.2819 38.0961C91.1334 37.4356 90.2218 36.524 89.547 35.3611C88.8866 34.1982 88.5564 32.8774 88.5564 31.3987ZM108.833 23.9046V38.9359H105.818V23.9046H108.833ZM111.08 31.3987C111.08 29.92 111.41 28.5992 112.07 27.4363C112.745 26.259 113.657 25.3474 114.805 24.7014C115.968 24.041 117.267 23.7108 118.703 23.7108C120.383 23.7108 121.854 24.1414 123.118 25.0028C124.381 25.8642 125.264 27.0558 125.766 28.5776H122.299C121.955 27.8598 121.467 27.3214 120.835 26.9625C120.218 26.6036 119.5 26.4241 118.682 26.4241C117.806 26.4241 117.023 26.6323 116.334 27.0487C115.659 27.4506 115.128 28.0249 114.741 28.7714C114.367 29.518 114.181 30.3937 114.181 31.3987C114.181 32.3893 114.367 33.2651 114.741 34.026C115.128 34.7725 115.659 35.3539 116.334 35.7703C117.023 36.1723 117.806 36.3733 118.682 36.3733C119.5 36.3733 120.218 36.1938 120.835 35.8349C121.467 35.4616 121.955 34.9161 122.299 34.1982H125.766C125.264 35.7344 124.381 36.9332 123.118 37.7946C121.869 38.6416 120.397 39.0651 118.703 39.0651C117.267 39.0651 115.968 38.7421 114.805 38.0961C113.657 37.4356 112.745 36.524 112.07 35.3611C111.41 34.1982 111.08 32.8774 111.08 31.3987ZM131.356 23.9046V38.9359H128.342V23.9046H131.356ZM150.428 28.5561C150.428 29.3601 150.234 30.1138 149.846 30.8173C149.473 31.5207 148.877 32.0878 148.059 32.5185C147.255 32.9492 146.236 33.1646 145.001 33.1646H142.481V38.9359H139.467V23.9046H145.001C146.164 23.9046 147.154 24.1056 147.973 24.5075C148.791 24.9095 149.401 25.4623 149.803 26.1657C150.22 26.8692 150.428 27.666 150.428 28.5561ZM144.872 30.7311C145.704 30.7311 146.322 30.5445 146.724 30.1712C147.126 29.7836 147.327 29.2452 147.327 28.5561C147.327 27.0917 146.508 26.3595 144.872 26.3595H142.481V30.7311H144.872ZM155.583 28.8576C155.971 28.2259 156.473 27.7306 157.091 27.3717C157.722 27.0128 158.44 26.8333 159.244 26.8333V29.9989H158.447C157.5 29.9989 156.782 30.2215 156.294 30.6665C155.82 31.1116 155.583 31.8868 155.583 32.9923V38.9359H152.568V27.0056H155.583V28.8576ZM172.538 27.0056V38.9359H169.501V37.4285C169.114 37.9453 168.604 38.3545 167.972 38.656C167.355 38.9431 166.68 39.0867 165.948 39.0867C165.015 39.0867 164.189 38.8928 163.471 38.5052C162.754 38.1032 162.186 37.5218 161.77 36.7609C161.368 35.9856 161.167 35.0668 161.167 34.0044V27.0056H164.182V33.5737C164.182 34.5213 164.419 35.2534 164.893 35.7703C165.366 36.2728 166.012 36.524 166.831 36.524C167.663 36.524 168.317 36.2728 168.79 35.7703C169.264 35.2534 169.501 34.5213 169.501 33.5737V27.0056H172.538ZM174.737 32.9277C174.737 31.7217 174.974 30.6522 175.448 29.719C175.936 28.7858 176.596 28.068 177.429 27.5655C178.262 27.063 179.188 26.8118 180.207 26.8118C180.982 26.8118 181.721 26.9841 182.425 27.3286C183.128 27.6588 183.688 28.1039 184.105 28.6638V23.0001H187.163V38.9359H184.105V37.1701C183.731 37.7587 183.207 38.2324 182.533 38.5914C181.858 38.9503 181.075 39.1297 180.185 39.1297C179.18 39.1297 178.262 38.8713 177.429 38.3545C176.596 37.8376 175.936 37.1126 175.448 36.1794C174.974 35.2319 174.737 34.148 174.737 32.9277ZM184.126 32.9708C184.126 32.2386 183.983 31.6141 183.695 31.0972C183.408 30.566 183.021 30.164 182.533 29.8913C182.044 29.6041 181.52 29.4606 180.961 29.4606C180.401 29.4606 179.884 29.597 179.41 29.8697C178.936 30.1425 178.549 30.5445 178.247 31.0757C177.96 31.5925 177.816 32.2099 177.816 32.9277C177.816 33.6455 177.96 34.2772 178.247 34.8228C178.549 35.3539 178.936 35.7631 179.41 36.0502C179.898 36.3374 180.415 36.4809 180.961 36.4809C181.52 36.4809 182.044 36.3445 182.533 36.0718C183.021 35.7846 183.408 35.3827 183.695 34.8658C183.983 34.3346 184.126 33.7029 184.126 32.9708ZM201.198 32.7123C201.198 33.143 201.169 33.5307 201.111 33.8752H192.39C192.462 34.7366 192.763 35.4114 193.294 35.8995C193.826 36.3876 194.479 36.6317 195.254 36.6317C196.374 36.6317 197.171 36.1507 197.644 35.1888H200.896C200.552 36.3374 199.891 37.2849 198.915 38.0314C197.939 38.7636 196.74 39.1297 195.319 39.1297C194.17 39.1297 193.136 38.8785 192.218 38.376C191.313 37.8592 190.602 37.1342 190.086 36.201C189.583 35.2678 189.332 34.1911 189.332 32.9708C189.332 31.7361 189.583 30.6522 190.086 29.719C190.588 28.7858 191.292 28.068 192.196 27.5655C193.101 27.063 194.141 26.8118 195.319 26.8118C196.453 26.8118 197.465 27.0558 198.355 27.544C199.259 28.0321 199.956 28.7284 200.444 29.6328C200.946 30.523 201.198 31.5494 201.198 32.7123ZM198.075 31.8509C198.061 31.0757 197.781 30.4583 197.235 29.9989C196.69 29.5252 196.022 29.2883 195.232 29.2883C194.486 29.2883 193.854 29.518 193.337 29.9774C192.835 30.4225 192.526 31.047 192.411 31.8509H198.075ZM210.009 26.8333C211.431 26.8333 212.579 27.2855 213.455 28.19C214.331 29.0801 214.769 30.3291 214.769 31.9371V38.9359H211.754V32.3462C211.754 31.3987 211.517 30.6737 211.043 30.1712C210.569 29.6544 209.923 29.396 209.105 29.396C208.272 29.396 207.612 29.6544 207.124 30.1712C206.65 30.6737 206.413 31.3987 206.413 32.3462V38.9359H203.398V27.0056H206.413V28.4915C206.815 27.9747 207.325 27.5727 207.942 27.2855C208.574 26.9841 209.263 26.8333 210.009 26.8333ZM221.146 29.4821V35.2534C221.146 35.6554 221.239 35.9497 221.426 36.1364C221.627 36.3087 221.957 36.3948 222.416 36.3948H223.816V38.9359H221.921C219.38 38.9359 218.109 37.7012 218.109 35.2319V29.4821H216.688V27.0056H218.109V24.0553H221.146V27.0056H223.816V29.4821H221.146ZM227.514 25.5843C226.982 25.5843 226.537 25.4192 226.178 25.089C225.834 24.7444 225.662 24.3209 225.662 23.8184C225.662 23.3159 225.834 22.8996 226.178 22.5694C226.537 22.2248 226.982 22.0526 227.514 22.0526C228.045 22.0526 228.483 22.2248 228.827 22.5694C229.186 22.8996 229.366 23.3159 229.366 23.8184C229.366 24.3209 229.186 24.7444 228.827 25.089C228.483 25.4192 228.045 25.5843 227.514 25.5843ZM229 27.0056V38.9359H225.985V27.0056H229ZM231.203 32.9277C231.203 31.7217 231.44 30.6522 231.914 29.719C232.402 28.7858 233.055 28.068 233.873 27.5655C234.706 27.063 235.632 26.8118 236.651 26.8118C237.541 26.8118 238.317 26.9912 238.977 27.3501C239.652 27.7091 240.19 28.1613 240.592 28.7068V27.0056H243.629V38.9359H240.592V37.1916C240.205 37.7515 239.666 38.2181 238.977 38.5914C238.302 38.9503 237.52 39.1297 236.63 39.1297C235.625 39.1297 234.706 38.8713 233.873 38.3545C233.055 37.8376 232.402 37.1126 231.914 36.1794C231.44 35.2319 231.203 34.148 231.203 32.9277ZM240.592 32.9708C240.592 32.2386 240.449 31.6141 240.161 31.0972C239.874 30.566 239.487 30.164 238.999 29.8913C238.51 29.6041 237.986 29.4606 237.427 29.4606C236.867 29.4606 236.35 29.597 235.876 29.8697C235.402 30.1425 235.015 30.5445 234.713 31.0757C234.426 31.5925 234.282 32.2099 234.282 32.9277C234.282 33.6455 234.426 34.2772 234.713 34.8228C235.015 35.3539 235.402 35.7631 235.876 36.0502C236.364 36.3374 236.881 36.4809 237.427 36.4809C237.986 36.4809 238.51 36.3445 238.999 36.0718C239.487 35.7846 239.874 35.3827 240.161 34.8658C240.449 34.3346 240.592 33.7029 240.592 32.9708ZM249.588 23.0001V38.9359H246.573V23.0001H249.588ZM274.086 23.9046V38.9359H271.071V29.1591L267.044 38.9359H264.762L260.713 29.1591V38.9359H257.698V23.9046H261.122L265.903 35.0812L270.684 23.9046H274.086ZM288.33 27.0056V38.9359H285.293V37.4285C284.906 37.9453 284.396 38.3545 283.764 38.656C283.147 38.9431 282.472 39.0867 281.74 39.0867C280.807 39.0867 279.981 38.8928 279.263 38.5052C278.546 38.1032 277.979 37.5218 277.562 36.7609C277.16 35.9856 276.959 35.0668 276.959 34.0044V27.0056H279.974V33.5737C279.974 34.5213 280.211 35.2534 280.685 35.7703C281.159 36.2728 281.805 36.524 282.623 36.524C283.456 36.524 284.109 36.2728 284.583 35.7703C285.056 35.2534 285.293 34.5213 285.293 33.5737V27.0056H288.33ZM294.814 29.4821V35.2534C294.814 35.6554 294.908 35.9497 295.094 36.1364C295.295 36.3087 295.626 36.3948 296.085 36.3948H297.485V38.9359H295.59C293.049 38.9359 291.778 37.7012 291.778 35.2319V29.4821H290.357V27.0056H291.778V24.0553H294.814V27.0056H297.485V29.4821H294.814ZM310.916 27.0056V38.9359H307.88V37.4285C307.492 37.9453 306.982 38.3545 306.351 38.656C305.733 38.9431 305.059 39.0867 304.326 39.0867C303.393 39.0867 302.568 38.8928 301.85 38.5052C301.132 38.1032 300.565 37.5218 300.149 36.7609C299.747 35.9856 299.546 35.0668 299.546 34.0044V27.0056H302.56V33.5737C302.56 34.5213 302.797 35.2534 303.271 35.7703C303.745 36.2728 304.391 36.524 305.209 36.524C306.042 36.524 306.695 36.2728 307.169 35.7703C307.643 35.2534 307.88 34.5213 307.88 33.5737V27.0056H310.916ZM313.115 32.9277C313.115 31.7217 313.352 30.6522 313.826 29.719C314.314 28.7858 314.967 28.068 315.786 27.5655C316.618 27.063 317.544 26.8118 318.564 26.8118C319.454 26.8118 320.229 26.9912 320.89 27.3501C321.564 27.7091 322.103 28.1613 322.505 28.7068V27.0056H325.541V38.9359H322.505V37.1916C322.117 37.7515 321.579 38.2181 320.89 38.5914C320.215 38.9503 319.432 39.1297 318.542 39.1297C317.537 39.1297 316.618 38.8713 315.786 38.3545C314.967 37.8376 314.314 37.1126 313.826 36.1794C313.352 35.2319 313.115 34.148 313.115 32.9277ZM322.505 32.9708C322.505 32.2386 322.361 31.6141 322.074 31.0972C321.787 30.566 321.399 30.164 320.911 29.8913C320.423 29.6041 319.899 29.4606 319.339 29.4606C318.779 29.4606 318.262 29.597 317.789 29.8697C317.315 30.1425 316.927 30.5445 316.626 31.0757C316.338 31.5925 316.195 32.2099 316.195 32.9277C316.195 33.6455 316.338 34.2772 316.626 34.8228C316.927 35.3539 317.315 35.7631 317.789 36.0502C318.277 36.3374 318.793 36.4809 319.339 36.4809C319.899 36.4809 320.423 36.3445 320.911 36.0718C321.399 35.7846 321.787 35.3827 322.074 34.8658C322.361 34.3346 322.505 33.7029 322.505 32.9708ZM331.501 23.0001V38.9359H328.486V23.0001H331.501ZM348.892 23.9046V26.338H342.625V30.1927H347.428V32.5831H342.625V38.9359H339.611V23.9046H348.892ZM362.293 27.0056V38.9359H359.256V37.4285C358.869 37.9453 358.359 38.3545 357.727 38.656C357.11 38.9431 356.435 39.0867 355.703 39.0867C354.77 39.0867 353.944 38.8928 353.227 38.5052C352.509 38.1032 351.942 37.5218 351.525 36.7609C351.123 35.9856 350.922 35.0668 350.922 34.0044V27.0056H353.937V33.5737C353.937 34.5213 354.174 35.2534 354.648 35.7703C355.122 36.2728 355.768 36.524 356.586 36.524C357.419 36.524 358.072 36.2728 358.546 35.7703C359.019 35.2534 359.256 34.5213 359.256 33.5737V27.0056H362.293ZM371.879 26.8333C373.3 26.8333 374.448 27.2855 375.324 28.19C376.2 29.0801 376.638 30.3291 376.638 31.9371V38.9359H373.623V32.3462C373.623 31.3987 373.386 30.6737 372.912 30.1712C372.438 29.6544 371.792 29.396 370.974 29.396C370.141 29.396 369.481 29.6544 368.993 30.1712C368.519 30.6737 368.282 31.3987 368.282 32.3462V38.9359H365.267V27.0056H368.282V28.4915C368.684 27.9747 369.194 27.5727 369.811 27.2855C370.443 26.9841 371.132 26.8333 371.879 26.8333ZM378.73 32.9277C378.73 31.7217 378.966 30.6522 379.44 29.719C379.928 28.7858 380.589 28.068 381.421 27.5655C382.254 27.063 383.18 26.8118 384.199 26.8118C384.975 26.8118 385.714 26.9841 386.417 27.3286C387.121 27.6588 387.681 28.1039 388.097 28.6638V23.0001H391.155V38.9359H388.097V37.1701C387.724 37.7587 387.2 38.2324 386.525 38.5914C385.85 38.9503 385.068 39.1297 384.178 39.1297C383.173 39.1297 382.254 38.8713 381.421 38.3545C380.589 37.8376 379.928 37.1126 379.44 36.1794C378.966 35.2319 378.73 34.148 378.73 32.9277ZM388.119 32.9708C388.119 32.2386 387.975 31.6141 387.688 31.0972C387.401 30.566 387.013 30.164 386.525 29.8913C386.037 29.6041 385.513 29.4606 384.953 29.4606C384.393 29.4606 383.876 29.597 383.403 29.8697C382.929 30.1425 382.541 30.5445 382.24 31.0757C381.953 31.5925 381.809 32.2099 381.809 32.9277C381.809 33.6455 381.953 34.2772 382.24 34.8228C382.541 35.3539 382.929 35.7631 383.403 36.0502C383.891 36.3374 384.408 36.4809 384.953 36.4809C385.513 36.4809 386.037 36.3445 386.525 36.0718C387.013 35.7846 387.401 35.3827 387.688 34.8658C387.975 34.3346 388.119 33.7029 388.119 32.9708ZM400.151 39.0867C399.605 39.0867 399.153 38.9216 398.794 38.5914C398.45 38.2468 398.277 37.8233 398.277 37.3208C398.277 36.8183 398.45 36.402 398.794 36.0718C399.153 35.7272 399.605 35.5549 400.151 35.5549C400.682 35.5549 401.12 35.7272 401.465 36.0718C401.809 36.402 401.981 36.8183 401.981 37.3208C401.981 37.8233 401.809 38.2468 401.465 38.5914C401.12 38.9216 400.682 39.0867 400.151 39.0867ZM404.889 39.0867C404.343 39.0867 403.891 38.9216 403.532 38.5914C403.187 38.2468 403.015 37.8233 403.015 37.3208C403.015 36.8183 403.187 36.402 403.532 36.0718C403.891 35.7272 404.343 35.5549 404.889 35.5549C405.42 35.5549 405.858 35.7272 406.202 36.0718C406.547 36.402 406.719 36.8183 406.719 37.3208C406.719 37.8233 406.547 38.2468 406.202 38.5914C405.858 38.9216 405.42 39.0867 404.889 39.0867ZM395.435 39.0867C394.889 39.0867 394.437 38.9216 394.078 38.5914C393.734 38.2468 393.561 37.8233 393.561 37.3208C393.561 36.8183 393.734 36.402 394.078 36.0718C394.437 35.7272 394.889 35.5549 395.435 35.5549C395.966 35.5549 396.404 35.7272 396.748 36.0718C397.093 36.402 397.265 36.8183 397.265 37.3208C397.265 37.8233 397.093 38.2468 396.748 38.5914C396.404 38.9216 395.966 39.0867 395.435 39.0867Z" fill="white"/>
<path d="M94.4716 63.1502V74.3268H93.0018V65.9928L89.2871 74.3268H88.2534L84.5225 65.9766V74.3268H83.0527V63.1502H84.6355L88.7702 72.3886L92.9049 63.1502H94.4716ZM104.814 65.4759V74.3268H103.344V73.0185C103.064 73.4708 102.671 73.8261 102.165 74.0845C101.67 74.3322 101.12 74.456 100.517 74.456C99.8283 74.456 99.2092 74.316 98.66 74.0361C98.1109 73.7453 97.6748 73.3146 97.3518 72.744C97.0395 72.1733 96.8834 71.4788 96.8834 70.6605V65.4759H98.337V70.4667C98.337 71.3388 98.5578 72.0118 98.9992 72.4855C99.4407 72.9485 100.044 73.18 100.808 73.18C101.594 73.18 102.213 72.9378 102.666 72.4532C103.118 71.9687 103.344 71.2634 103.344 70.3374V65.4759H104.814ZM109.088 66.6873V71.9041C109.088 72.3348 109.18 72.6417 109.363 72.8247C109.546 72.997 109.863 73.0831 110.316 73.0831H111.398V74.3268H110.073C109.255 74.3268 108.641 74.1384 108.232 73.7615C107.823 73.3846 107.618 72.7655 107.618 71.9041V66.6873H106.472V65.4759H107.618V63.2471H109.088V65.4759H111.398V66.6873H109.088ZM121.028 65.4759V74.3268H119.558V73.0185C119.278 73.4708 118.885 73.8261 118.379 74.0845C117.884 74.3322 117.335 74.456 116.732 74.456C116.043 74.456 115.423 74.316 114.874 74.0361C114.325 73.7453 113.889 73.3146 113.566 72.744C113.254 72.1733 113.098 71.4788 113.098 70.6605V65.4759H114.551V70.4667C114.551 71.3388 114.772 72.0118 115.213 72.4855C115.655 72.9485 116.258 73.18 117.022 73.18C117.808 73.18 118.428 72.9378 118.88 72.4532C119.332 71.9687 119.558 71.2634 119.558 70.3374V65.4759H121.028ZM122.96 69.8691C122.96 68.9646 123.143 68.1732 123.509 67.4948C123.876 66.8057 124.376 66.2727 125.012 65.8959C125.658 65.519 126.374 65.3306 127.16 65.3306C127.935 65.3306 128.608 65.4975 129.179 65.8313C129.749 66.1651 130.175 66.585 130.454 67.0911V65.4759H131.94V74.3268H130.454V72.6794C130.164 73.1962 129.728 73.6269 129.146 73.9715C128.576 74.3052 127.908 74.4721 127.144 74.4721C126.357 74.4721 125.647 74.2783 125.012 73.8907C124.376 73.5031 123.876 72.9593 123.509 72.2594C123.143 71.5595 122.96 70.7628 122.96 69.8691ZM130.454 69.8852C130.454 69.2176 130.32 68.6362 130.051 68.1409C129.782 67.6456 129.415 67.2687 128.952 67.0103C128.5 66.7411 128 66.6065 127.45 66.6065C126.901 66.6065 126.401 66.7357 125.948 66.9942C125.496 67.2526 125.135 67.6294 124.866 68.1247C124.597 68.62 124.462 69.2015 124.462 69.8691C124.462 70.5474 124.597 71.1396 124.866 71.6457C125.135 72.141 125.496 72.5232 125.948 72.7924C126.401 73.0508 126.901 73.18 127.45 73.18C128 73.18 128.5 73.0508 128.952 72.7924C129.415 72.5232 129.782 72.141 130.051 71.6457C130.32 71.1396 130.454 70.5528 130.454 69.8852ZM135.894 62.3749V74.3268H134.424V62.3749H135.894ZM149.068 63.0694V64.2646H144.175V68.0601H148.148V69.2553H144.175V74.3268H142.705V63.0694H149.068ZM158.693 65.4759V74.3268H157.223V73.0185C156.943 73.4708 156.55 73.8261 156.044 74.0845C155.549 74.3322 155 74.456 154.397 74.456C153.708 74.456 153.088 74.316 152.539 74.0361C151.99 73.7453 151.554 73.3146 151.231 72.744C150.919 72.1733 150.763 71.4788 150.763 70.6605V65.4759H152.216V70.4667C152.216 71.3388 152.437 72.0118 152.878 72.4855C153.32 72.9485 153.923 73.18 154.687 73.18C155.473 73.18 156.093 72.9378 156.545 72.4532C156.997 71.9687 157.223 71.2634 157.223 70.3374V65.4759H158.693ZM165.487 65.3144C166.564 65.3144 167.436 65.6428 168.103 66.2997C168.771 66.9457 169.105 67.8825 169.105 69.11V74.3268H167.651V69.3199C167.651 68.437 167.43 67.764 166.989 67.301C166.547 66.8273 165.944 66.5904 165.18 66.5904C164.405 66.5904 163.786 66.8326 163.323 67.3172C162.87 67.8017 162.644 68.507 162.644 69.433V74.3268H161.175V65.4759H162.644V66.7357C162.935 66.2835 163.328 65.9336 163.823 65.6859C164.329 65.4383 164.884 65.3144 165.487 65.3144ZM170.956 69.8691C170.956 68.9646 171.139 68.1732 171.506 67.4948C171.872 66.8057 172.372 66.2727 173.008 65.8959C173.654 65.519 174.375 65.3306 175.172 65.3306C175.861 65.3306 176.502 65.4921 177.094 65.8151C177.686 66.1274 178.138 66.5419 178.451 67.0588V62.3749H179.936V74.3268H178.451V72.6632C178.16 73.1908 177.729 73.6269 177.158 73.9715C176.588 74.3052 175.92 74.4721 175.156 74.4721C174.37 74.4721 173.654 74.2783 173.008 73.8907C172.372 73.5031 171.872 72.9593 171.506 72.2594C171.139 71.5595 170.956 70.7628 170.956 69.8691ZM178.451 69.8852C178.451 69.2176 178.316 68.6362 178.047 68.1409C177.778 67.6456 177.412 67.2687 176.949 67.0103C176.496 66.7411 175.996 66.6065 175.446 66.6065C174.897 66.6065 174.397 66.7357 173.944 66.9942C173.492 67.2526 173.131 67.6294 172.862 68.1247C172.593 68.62 172.458 69.2015 172.458 69.8691C172.458 70.5474 172.593 71.1396 172.862 71.6457C173.131 72.141 173.492 72.5232 173.944 72.7924C174.397 73.0508 174.897 73.18 175.446 73.18C175.996 73.18 176.496 73.0508 176.949 72.7924C177.412 72.5232 177.778 72.141 178.047 71.6457C178.316 71.1396 178.451 70.5528 178.451 69.8852ZM185.554 74.4721C184.875 74.4721 184.267 74.3591 183.728 74.133C183.19 73.8961 182.765 73.5731 182.453 73.1639C182.14 72.744 181.968 72.2648 181.936 71.7264H183.454C183.497 72.1679 183.702 72.5286 184.068 72.8086C184.445 73.0885 184.934 73.2285 185.537 73.2285C186.097 73.2285 186.539 73.1047 186.862 72.857C187.185 72.6094 187.346 72.2971 187.346 71.9203C187.346 71.5326 187.174 71.2473 186.829 71.0642C186.485 70.8704 185.952 70.682 185.231 70.499C184.574 70.3267 184.035 70.1544 183.615 69.9821C183.206 69.7991 182.851 69.5353 182.549 69.1907C182.259 68.8354 182.113 68.3724 182.113 67.8017C182.113 67.3495 182.248 66.9349 182.517 66.5581C182.786 66.1812 183.169 65.8851 183.664 65.6698C184.159 65.4436 184.724 65.3306 185.36 65.3306C186.34 65.3306 187.131 65.5782 187.734 66.0735C188.337 66.5688 188.66 67.2472 188.703 68.1086H187.233C187.201 67.6456 187.013 67.2741 186.668 66.9942C186.334 66.7142 185.882 66.5742 185.311 66.5742C184.784 66.5742 184.364 66.6873 184.051 66.9134C183.739 67.1395 183.583 67.4356 183.583 67.8017C183.583 68.0924 183.675 68.3347 183.858 68.5285C184.051 68.7116 184.288 68.8623 184.568 68.9807C184.859 69.0884 185.257 69.2122 185.764 69.3522C186.399 69.5245 186.916 69.6968 187.314 69.8691C187.712 70.0306 188.052 70.2782 188.332 70.612C188.622 70.9458 188.773 71.3819 188.784 71.9203C188.784 72.4048 188.649 72.8409 188.38 73.2285C188.111 73.6161 187.729 73.923 187.233 74.1491C186.749 74.3645 186.189 74.4721 185.554 74.4721ZM197.006 76.0388H195.536V61.4866H197.006V76.0388ZM209.178 63.5055L209.759 64.5553L207.514 65.4921L209.775 66.4127L209.161 67.4948L207.207 66.0735L207.466 68.5124H206.254L206.496 66.0735L204.542 67.511L203.912 66.4127L206.157 65.4759L203.912 64.5715L204.51 63.4894L206.513 64.9268L206.254 62.4718H207.482L207.207 64.9268L209.178 63.5055ZM217.032 63.5055L217.614 64.5553L215.369 65.4921L217.63 66.4127L217.016 67.4948L215.062 66.0735L215.32 68.5124H214.109L214.351 66.0735L212.397 67.511L211.767 66.4127L214.012 65.4759L211.767 64.5715L212.365 63.4894L214.367 64.9268L214.109 62.4718H215.336L215.062 64.9268L217.032 63.5055ZM219.46 73.1477C220.828 72.0495 221.899 71.1504 222.674 70.4505C223.45 69.7399 224.101 69.0023 224.629 68.2378C225.167 67.4625 225.436 66.7034 225.436 65.9605C225.436 65.2606 225.264 64.7115 224.919 64.3131C224.586 63.9039 224.042 63.6993 223.288 63.6993C222.556 63.6993 221.985 63.9308 221.576 64.3938C221.178 64.846 220.962 65.4544 220.93 66.2189H219.509C219.552 65.0129 219.918 64.0816 220.607 63.4247C221.296 62.7679 222.184 62.4395 223.272 62.4395C224.381 62.4395 225.259 62.7464 225.905 63.3601C226.561 63.9739 226.89 64.8191 226.89 65.8959C226.89 66.7896 226.621 67.6617 226.082 68.5124C225.555 69.3522 224.952 70.0952 224.273 70.7412C223.595 71.3765 222.728 72.1195 221.673 72.9701H227.229V74.1976H219.46V73.1477ZM231.06 68.2539C230.457 68.0171 229.994 67.6725 229.671 67.2203C229.348 66.768 229.186 66.2189 229.186 65.5729C229.186 64.9914 229.332 64.4692 229.623 64.0062C229.913 63.5324 230.344 63.1609 230.915 62.8918C231.496 62.6118 232.196 62.4718 233.014 62.4718C233.833 62.4718 234.527 62.6118 235.098 62.8918C235.679 63.1609 236.115 63.5324 236.406 64.0062C236.707 64.4692 236.858 64.9914 236.858 65.5729C236.858 66.1974 236.691 66.7465 236.358 67.2203C236.024 67.6833 235.566 68.0278 234.985 68.2539C235.652 68.4585 236.18 68.8192 236.568 69.3361C236.966 69.8421 237.165 70.4559 237.165 71.1773C237.165 71.8772 236.993 72.4909 236.648 73.0185C236.304 73.5354 235.814 73.9392 235.179 74.2299C234.554 74.5098 233.833 74.6498 233.014 74.6498C232.196 74.6498 231.475 74.5098 230.85 74.2299C230.236 73.9392 229.757 73.5354 229.413 73.0185C229.068 72.4909 228.896 71.8772 228.896 71.1773C228.896 70.4559 229.09 69.8368 229.477 69.3199C229.865 68.8031 230.392 68.4478 231.06 68.2539ZM235.437 65.7505C235.437 65.0937 235.222 64.5876 234.791 64.2323C234.36 63.877 233.768 63.6993 233.014 63.6993C232.271 63.6993 231.684 63.877 231.254 64.2323C230.823 64.5876 230.608 65.0991 230.608 65.7667C230.608 66.3696 230.828 66.8542 231.27 67.2203C231.722 67.5864 232.304 67.7694 233.014 67.7694C233.736 67.7694 234.317 67.5864 234.759 67.2203C235.211 66.8434 235.437 66.3535 235.437 65.7505ZM233.014 68.9C232.217 68.9 231.566 69.0884 231.06 69.4653C230.554 69.8314 230.301 70.3859 230.301 71.1289C230.301 71.818 230.543 72.3725 231.028 72.7924C231.523 73.2124 232.185 73.4223 233.014 73.4223C233.843 73.4223 234.5 73.2124 234.985 72.7924C235.469 72.3725 235.711 71.818 235.711 71.1289C235.711 70.4074 235.464 69.8583 234.969 69.4814C234.473 69.0938 233.822 68.9 233.014 68.9ZM239.085 65.589C239.16 64.5984 239.542 63.8231 240.232 63.2632C240.921 62.7033 241.814 62.4234 242.913 62.4234C243.645 62.4234 244.275 62.558 244.802 62.8272C245.341 63.0856 245.744 63.4409 246.014 63.8931C246.294 64.3454 246.434 64.8568 246.434 65.4275C246.434 66.0951 246.24 66.6711 245.852 67.1557C245.475 67.6402 244.98 67.9525 244.366 68.0924V68.1732C245.066 68.3455 245.621 68.6846 246.03 69.1907C246.439 69.6968 246.644 70.359 246.644 71.1773C246.644 71.791 246.504 72.3456 246.224 72.8409C245.944 73.3254 245.524 73.7077 244.964 73.9876C244.404 74.2676 243.731 74.4075 242.945 74.4075C241.804 74.4075 240.867 74.1114 240.135 73.5192C239.402 72.9162 238.993 72.0656 238.907 70.9673H240.328C240.404 71.6134 240.668 72.141 241.12 72.5502C241.572 72.9593 242.175 73.1639 242.929 73.1639C243.683 73.1639 244.253 72.9701 244.641 72.5825C245.039 72.1841 245.238 71.6726 245.238 71.0481C245.238 70.2405 244.969 69.6591 244.431 69.3038C243.892 68.9484 243.08 68.7708 241.992 68.7708H241.621V67.5433H242.008C242.999 67.5325 243.747 67.371 244.253 67.0588C244.759 66.7357 245.012 66.2404 245.012 65.5729C245.012 65.0022 244.824 64.5446 244.447 64.2C244.081 63.8554 243.553 63.6832 242.864 63.6832C242.197 63.6832 241.658 63.8554 241.249 64.2C240.84 64.5446 240.598 65.0076 240.522 65.589H239.085ZM248.45 73.1477C249.818 72.0495 250.889 71.1504 251.664 70.4505C252.44 69.7399 253.091 69.0023 253.619 68.2378C254.157 67.4625 254.426 66.7034 254.426 65.9605C254.426 65.2606 254.254 64.7115 253.909 64.3131C253.576 63.9039 253.032 63.6993 252.278 63.6993C251.546 63.6993 250.975 63.9308 250.566 64.3938C250.168 64.846 249.952 65.4544 249.92 66.2189H248.499C248.542 65.0129 248.908 64.0816 249.597 63.4247C250.286 62.7679 251.175 62.4395 252.262 62.4395C253.371 62.4395 254.249 62.7464 254.895 63.3601C255.551 63.9739 255.88 64.8191 255.88 65.8959C255.88 66.7896 255.611 67.6617 255.072 68.5124C254.545 69.3522 253.942 70.0952 253.263 70.7412C252.585 71.3765 251.718 72.1195 250.663 72.9701H256.219V74.1976H248.45V73.1477Z" fill="white"/>
<defs>
<linearGradient id="paint0_linear_174_686" x1="0.610351" y1="93.4375" x2="455.938" y2="-57.0352" gradientUnits="userSpaceOnUse">
<stop stop-color="#DBDBDB" stop-opacity="0.28"/>
<stop offset="1" stop-color="#999999" stop-opacity="0.3"/>
</linearGradient>
</defs>
</svg>
