<svg width="476" height="96" viewBox="0 0 476 96" fill="none" xmlns="http://www.w3.org/2000/svg">
<rect x="1.08292" y="0.730385" width="473.834" height="94.2477" rx="7.08859" fill="white" fill-opacity="0.25"/>
<rect x="1.08292" y="0.730385" width="473.834" height="94.2477" rx="7.08859" stroke="url(#paint0_linear_174_698)" stroke-width="0.945145"/>
<path d="M46.604 33.4863C48.3286 36.4186 50.0682 39.3423 51.7742 42.2856C49.0168 47.0997 46.2992 51.9372 43.4484 56.6983C42.3547 58.5259 41.2908 60.3707 40.2094 62.2045C36.7029 62.2254 33.1964 62.2242 29.6899 62.2193C29.797 61.9816 29.9027 61.7426 30.0321 61.516C35.5532 52.1712 41.0954 42.8386 46.604 33.4863Z" fill="#AE285D"/>
<path d="M46.6055 51.3633C50.1244 51.3621 53.6434 51.3374 57.1623 51.3953C59.2577 55.0111 61.4204 58.5875 63.4971 62.2131C59.9782 62.2304 56.4605 62.2168 52.9416 62.2144C50.8474 58.5863 48.6598 55.0136 46.6055 51.3633Z" fill="#AE285D"/>
<path d="M93.7609 28.6498C93.4164 28.0181 92.9426 27.5372 92.3396 27.207C91.7367 26.8768 91.0332 26.7117 90.2292 26.7117C89.3391 26.7117 88.5495 26.9126 87.8604 27.3146C87.1713 27.7166 86.6329 28.2909 86.2453 29.0374C85.8576 29.784 85.6638 30.6454 85.6638 31.6216C85.6638 32.6266 85.8576 33.5023 86.2453 34.2489C86.6473 34.9954 87.2 35.5697 87.9035 35.9717C88.6069 36.3736 89.4253 36.5746 90.3584 36.5746C91.507 36.5746 92.4473 36.2731 93.1795 35.6702C93.9117 35.0528 94.3926 34.1986 94.6223 33.1075H89.454V30.8033H97.5942V33.4305C97.3932 34.4786 96.9625 35.4476 96.3021 36.3377C95.6417 37.2279 94.7874 37.9457 93.7394 38.4912C92.7057 39.0224 91.5428 39.288 90.2508 39.288C88.8007 39.288 87.4871 38.965 86.3099 38.319C85.147 37.6585 84.2282 36.7469 83.5534 35.584C82.893 34.4211 82.5628 33.1003 82.5628 31.6216C82.5628 30.1429 82.893 28.8221 83.5534 27.6592C84.2282 26.4819 85.147 25.5703 86.3099 24.9243C87.4871 24.2639 88.7936 23.9337 90.2292 23.9337C91.9233 23.9337 93.3948 24.35 94.6439 25.1827C95.8929 26.001 96.7543 27.1567 97.2281 28.6498H93.7609ZM105.122 39.3526C103.974 39.3526 102.94 39.1014 102.021 38.5989C101.102 38.0821 100.377 37.3571 99.8462 36.4239C99.3294 35.4907 99.071 34.414 99.071 33.1937C99.071 31.9733 99.3366 30.8966 99.8678 29.9634C100.413 29.0302 101.153 28.3124 102.086 27.8099C103.019 27.2931 104.06 27.0347 105.208 27.0347C106.357 27.0347 107.398 27.2931 108.331 27.8099C109.264 28.3124 109.996 29.0302 110.528 29.9634C111.073 30.8966 111.346 31.9733 111.346 33.1937C111.346 34.414 111.066 35.4907 110.506 36.4239C109.96 37.3571 109.214 38.0821 108.266 38.5989C107.333 39.1014 106.285 39.3526 105.122 39.3526ZM105.122 36.7254C105.668 36.7254 106.177 36.5962 106.651 36.3377C107.139 36.065 107.527 35.663 107.814 35.1318C108.101 34.6006 108.245 33.9545 108.245 33.1937C108.245 32.0595 107.943 31.1909 107.34 30.5879C106.752 29.9706 106.027 29.6619 105.165 29.6619C104.304 29.6619 103.579 29.9706 102.99 30.5879C102.416 31.1909 102.129 32.0595 102.129 33.1937C102.129 34.3278 102.409 35.2036 102.969 35.8209C103.543 36.4239 104.261 36.7254 105.122 36.7254ZM118.855 39.3526C117.706 39.3526 116.673 39.1014 115.754 38.5989C114.835 38.0821 114.11 37.3571 113.579 36.4239C113.062 35.4907 112.804 34.414 112.804 33.1937C112.804 31.9733 113.069 30.8966 113.6 29.9634C114.146 29.0302 114.885 28.3124 115.819 27.8099C116.752 27.2931 117.793 27.0347 118.941 27.0347C120.09 27.0347 121.13 27.2931 122.064 27.8099C122.997 28.3124 123.729 29.0302 124.26 29.9634C124.806 30.8966 125.079 31.9733 125.079 33.1937C125.079 34.414 124.799 35.4907 124.239 36.4239C123.693 37.3571 122.947 38.0821 121.999 38.5989C121.066 39.1014 120.018 39.3526 118.855 39.3526ZM118.855 36.7254C119.401 36.7254 119.91 36.5962 120.384 36.3377C120.872 36.065 121.26 35.663 121.547 35.1318C121.834 34.6006 121.978 33.9545 121.978 33.1937C121.978 32.0595 121.676 31.1909 121.073 30.5879C120.484 29.9706 119.759 29.6619 118.898 29.6619C118.037 29.6619 117.312 29.9706 116.723 30.5879C116.149 31.1909 115.862 32.0595 115.862 33.1937C115.862 34.3278 116.142 35.2036 116.701 35.8209C117.276 36.4239 117.994 36.7254 118.855 36.7254ZM126.515 33.1506C126.515 31.9446 126.752 30.8751 127.225 29.9419C127.714 29.0087 128.374 28.2909 129.207 27.7884C130.039 27.2859 130.965 27.0347 131.985 27.0347C132.76 27.0347 133.499 27.207 134.203 27.5515C134.906 27.8817 135.466 28.3268 135.883 28.8867V23.223H138.94V39.1588H135.883V37.393C135.509 37.9816 134.985 38.4553 134.31 38.8143C133.636 39.1732 132.853 39.3526 131.963 39.3526C130.958 39.3526 130.039 39.0942 129.207 38.5774C128.374 38.0605 127.714 37.3355 127.225 36.4023C126.752 35.4548 126.515 34.3709 126.515 33.1506ZM135.904 33.1937C135.904 32.4615 135.76 31.837 135.473 31.3201C135.186 30.7889 134.799 30.3869 134.31 30.1142C133.822 29.827 133.298 29.6835 132.738 29.6835C132.179 29.6835 131.662 29.8199 131.188 30.0926C130.714 30.3654 130.327 30.7674 130.025 31.2986C129.738 31.8154 129.594 32.4328 129.594 33.1506C129.594 33.8684 129.738 34.5001 130.025 35.0457C130.327 35.5768 130.714 35.986 131.188 36.2731C131.676 36.5603 132.193 36.7038 132.738 36.7038C133.298 36.7038 133.822 36.5674 134.31 36.2947C134.799 36.0075 135.186 35.6056 135.473 35.0887C135.76 34.5575 135.904 33.9258 135.904 33.1937ZM146.45 39.3526C145.474 39.3526 144.598 39.1803 143.823 38.8358C143.048 38.4769 142.431 37.9959 141.971 37.393C141.526 36.79 141.282 36.1224 141.239 35.3902H144.275C144.333 35.8496 144.555 36.2301 144.943 36.5316C145.345 36.833 145.84 36.9838 146.429 36.9838C147.003 36.9838 147.448 36.8689 147.764 36.6392C148.094 36.4095 148.259 36.1152 148.259 35.7563C148.259 35.3687 148.058 35.0815 147.656 34.8949C147.269 34.6939 146.644 34.4786 145.783 34.2489C144.893 34.0335 144.161 33.811 143.586 33.5813C143.026 33.3516 142.538 32.9998 142.122 32.5261C141.72 32.0523 141.519 31.4134 141.519 30.6095C141.519 29.9491 141.706 29.3461 142.079 28.8005C142.466 28.255 143.012 27.8243 143.715 27.5084C144.433 27.1926 145.273 27.0347 146.235 27.0347C147.656 27.0347 148.791 27.3936 149.638 28.1114C150.485 28.8149 150.951 29.7696 151.037 30.9756H148.152C148.109 30.5018 147.908 30.1285 147.549 29.8557C147.204 29.5686 146.738 29.425 146.149 29.425C145.603 29.425 145.18 29.5255 144.878 29.7265C144.591 29.9275 144.448 30.2075 144.448 30.5664C144.448 30.9684 144.649 31.277 145.051 31.4924C145.453 31.6934 146.077 31.9016 146.924 32.1169C147.786 32.3323 148.496 32.5548 149.056 32.7845C149.616 33.0142 150.097 33.3731 150.499 33.8612C150.915 34.335 151.131 34.9667 151.145 35.7563C151.145 36.4454 150.951 37.0628 150.564 37.6083C150.19 38.1539 149.645 38.5845 148.927 38.9004C148.223 39.2019 147.398 39.3526 146.45 39.3526ZM157.976 33.1506C157.976 31.9446 158.213 30.8751 158.687 29.9419C159.175 29.0087 159.828 28.2909 160.646 27.7884C161.479 27.2859 162.405 27.0347 163.424 27.0347C164.314 27.0347 165.09 27.2141 165.75 27.573C166.425 27.932 166.963 28.3842 167.365 28.9297V27.2285H170.402V39.1588H167.365V37.4145C166.978 37.9744 166.439 38.441 165.75 38.8143C165.075 39.1732 164.293 39.3526 163.403 39.3526C162.398 39.3526 161.479 39.0942 160.646 38.5774C159.828 38.0605 159.175 37.3355 158.687 36.4023C158.213 35.4548 157.976 34.3709 157.976 33.1506ZM167.365 33.1937C167.365 32.4615 167.222 31.837 166.934 31.3201C166.647 30.7889 166.26 30.3869 165.772 30.1142C165.283 29.827 164.759 29.6835 164.2 29.6835C163.64 29.6835 163.123 29.8199 162.649 30.0926C162.175 30.3654 161.788 30.7674 161.486 31.2986C161.199 31.8154 161.055 32.4328 161.055 33.1506C161.055 33.8684 161.199 34.5001 161.486 35.0457C161.788 35.5768 162.175 35.986 162.649 36.2731C163.137 36.5603 163.654 36.7038 164.2 36.7038C164.759 36.7038 165.283 36.5674 165.772 36.2947C166.26 36.0075 166.647 35.6056 166.934 35.0887C167.222 34.5575 167.365 33.9258 167.365 33.1937ZM179.957 27.0562C181.379 27.0562 182.527 27.5084 183.403 28.4129C184.279 29.303 184.717 30.552 184.717 32.16V39.1588H181.702V32.5691C181.702 31.6216 181.465 30.8966 180.991 30.3941C180.517 29.8773 179.871 29.6189 179.053 29.6189C178.22 29.6189 177.56 29.8773 177.072 30.3941C176.598 30.8966 176.361 31.6216 176.361 32.5691V39.1588H173.346V27.2285H176.361V28.7144C176.763 28.1976 177.273 27.7956 177.89 27.5084C178.522 27.207 179.211 27.0562 179.957 27.0562ZM186.808 33.1506C186.808 31.9446 187.045 30.8751 187.519 29.9419C188.007 29.0087 188.667 28.2909 189.5 27.7884C190.333 27.2859 191.259 27.0347 192.278 27.0347C193.053 27.0347 193.793 27.207 194.496 27.5515C195.2 27.8817 195.76 28.3268 196.176 28.8867V23.223H199.234V39.1588H196.176V37.393C195.803 37.9816 195.279 38.4553 194.604 38.8143C193.929 39.1732 193.147 39.3526 192.257 39.3526C191.252 39.3526 190.333 39.0942 189.5 38.5774C188.667 38.0605 188.007 37.3355 187.519 36.4023C187.045 35.4548 186.808 34.3709 186.808 33.1506ZM196.198 33.1937C196.198 32.4615 196.054 31.837 195.767 31.3201C195.48 30.7889 195.092 30.3869 194.604 30.1142C194.116 29.827 193.592 29.6835 193.032 29.6835C192.472 29.6835 191.955 29.8199 191.481 30.0926C191.008 30.3654 190.62 30.7674 190.318 31.2986C190.031 31.8154 189.888 32.4328 189.888 33.1506C189.888 33.8684 190.031 34.5001 190.318 35.0457C190.62 35.5768 191.008 35.986 191.481 36.2731C191.969 36.5603 192.486 36.7038 193.032 36.7038C193.592 36.7038 194.116 36.5674 194.604 36.2947C195.092 36.0075 195.48 35.6056 195.767 35.0887C196.054 34.5575 196.198 33.9258 196.198 33.1937ZM212.5 39.3096C211.452 39.3096 210.504 39.1301 209.657 38.7712C208.824 38.4123 208.164 37.8954 207.676 37.2207C207.188 36.5459 206.937 35.7491 206.922 34.8303H210.152C210.196 35.4476 210.411 35.9358 210.798 36.2947C211.2 36.6536 211.746 36.833 212.435 36.833C213.139 36.833 213.691 36.6679 214.093 36.3377C214.495 35.9932 214.696 35.5481 214.696 35.0026C214.696 34.5575 214.56 34.1914 214.287 33.9043C214.014 33.6172 213.67 33.3946 213.253 33.2367C212.851 33.0644 212.292 32.8778 211.574 32.6768C210.598 32.3897 209.801 32.1097 209.183 31.837C208.58 31.5498 208.056 31.1263 207.611 30.5664C207.181 29.9921 206.965 29.2312 206.965 28.2837C206.965 27.3936 207.188 26.6183 207.633 25.9579C208.078 25.2975 208.702 24.795 209.506 24.4505C210.31 24.0916 211.229 23.9121 212.263 23.9121C213.813 23.9121 215.07 24.2926 216.031 25.0535C217.008 25.8 217.546 26.848 217.647 28.1976H214.33C214.302 27.6807 214.079 27.2572 213.663 26.927C213.261 26.5824 212.722 26.4102 212.048 26.4102C211.459 26.4102 210.985 26.5609 210.626 26.8624C210.282 27.1639 210.109 27.6018 210.109 28.176C210.109 28.578 210.239 28.9154 210.497 29.1882C210.77 29.4466 211.1 29.6619 211.488 29.8342C211.89 29.9921 212.45 30.1788 213.167 30.3941C214.144 30.6812 214.94 30.9684 215.558 31.2555C216.175 31.5426 216.706 31.9733 217.151 32.5476C217.596 33.1219 217.819 33.8756 217.819 34.8088C217.819 35.6127 217.611 36.3593 217.194 37.0484C216.778 37.7375 216.168 38.2902 215.364 38.7066C214.56 39.1086 213.605 39.3096 212.5 39.3096ZM231.523 32.9352C231.523 33.3659 231.494 33.7536 231.437 34.0981H222.715C222.787 34.9595 223.089 35.6343 223.62 36.1224C224.151 36.6105 224.804 36.8546 225.579 36.8546C226.699 36.8546 227.496 36.3736 227.97 35.4117H231.222C230.877 36.5603 230.217 37.5078 229.24 38.2543C228.264 38.9865 227.065 39.3526 225.644 39.3526C224.496 39.3526 223.462 39.1014 222.543 38.5989C221.639 38.0821 220.928 37.3571 220.411 36.4239C219.909 35.4907 219.657 34.414 219.657 33.1937C219.657 31.959 219.909 30.8751 220.411 29.9419C220.914 29.0087 221.617 28.2909 222.522 27.7884C223.426 27.2859 224.467 27.0347 225.644 27.0347C226.778 27.0347 227.79 27.2787 228.681 27.7669C229.585 28.255 230.281 28.9513 230.769 29.8557C231.272 30.7459 231.523 31.7723 231.523 32.9352ZM228.401 32.0738C228.386 31.2986 228.106 30.6812 227.561 30.2218C227.015 29.7481 226.348 29.5112 225.558 29.5112C224.811 29.5112 224.18 29.7409 223.663 30.2003C223.16 30.6454 222.852 31.2699 222.737 32.0738H228.401ZM236.739 29.0805C237.126 28.4488 237.629 27.9535 238.246 27.5946C238.878 27.2357 239.596 27.0562 240.4 27.0562V30.2218H239.603C238.655 30.2218 237.937 30.4444 237.449 30.8894C236.975 31.3345 236.739 32.1097 236.739 33.2152V39.1588H233.724V27.2285H236.739V29.0805ZM247.405 36.3808L250.42 27.2285H253.628L249.214 39.1588H245.553L241.16 27.2285H244.39L247.405 36.3808ZM256.851 25.8072C256.319 25.8072 255.874 25.6421 255.516 25.3119C255.171 24.9673 254.999 24.5438 254.999 24.0413C254.999 23.5388 255.171 23.1225 255.516 22.7923C255.874 22.4477 256.319 22.2755 256.851 22.2755C257.382 22.2755 257.82 22.4477 258.164 22.7923C258.523 23.1225 258.703 23.5388 258.703 24.0413C258.703 24.5438 258.523 24.9673 258.164 25.3119C257.82 25.6421 257.382 25.8072 256.851 25.8072ZM258.337 27.2285V39.1588H255.322V27.2285H258.337ZM260.54 33.1937C260.54 31.959 260.791 30.8822 261.294 29.9634C261.796 29.0302 262.493 28.3124 263.383 27.8099C264.273 27.2931 265.292 27.0347 266.441 27.0347C267.919 27.0347 269.14 27.4079 270.102 28.1545C271.078 28.8867 271.731 29.9203 272.061 31.2555H268.809C268.637 30.7387 268.343 30.3367 267.926 30.0496C267.525 29.7481 267.022 29.5973 266.419 29.5973C265.558 29.5973 264.876 29.9132 264.373 30.5449C263.871 31.1622 263.62 32.0451 263.62 33.1937C263.62 34.3278 263.871 35.2108 264.373 35.8424C264.876 36.4598 265.558 36.7684 266.419 36.7684C267.639 36.7684 268.436 36.2229 268.809 35.1318H272.061C271.731 36.4239 271.078 37.4504 270.102 38.2113C269.125 38.9722 267.905 39.3526 266.441 39.3526C265.292 39.3526 264.273 39.1014 263.383 38.5989C262.493 38.0821 261.796 37.3642 261.294 36.4454C260.791 35.5122 260.54 34.4283 260.54 33.1937ZM285.36 32.9352C285.36 33.3659 285.332 33.7536 285.274 34.0981H276.553C276.624 34.9595 276.926 35.6343 277.457 36.1224C277.988 36.6105 278.641 36.8546 279.417 36.8546C280.537 36.8546 281.333 36.3736 281.807 35.4117H285.059C284.714 36.5603 284.054 37.5078 283.078 38.2543C282.101 38.9865 280.903 39.3526 279.481 39.3526C278.333 39.3526 277.299 39.1014 276.38 38.5989C275.476 38.0821 274.765 37.3571 274.248 36.4239C273.746 35.4907 273.495 34.414 273.495 33.1937C273.495 31.959 273.746 30.8751 274.248 29.9419C274.751 29.0087 275.454 28.2909 276.359 27.7884C277.263 27.2859 278.304 27.0347 279.481 27.0347C280.615 27.0347 281.628 27.2787 282.518 27.7669C283.422 28.255 284.118 28.9513 284.607 29.8557C285.109 30.7459 285.36 31.7723 285.36 32.9352ZM282.238 32.0738C282.223 31.2986 281.943 30.6812 281.398 30.2218C280.852 29.7481 280.185 29.5112 279.395 29.5112C278.649 29.5112 278.017 29.7409 277.5 30.2003C276.998 30.6454 276.689 31.2699 276.574 32.0738H282.238ZM299.303 27.0562C300.725 27.0562 301.873 27.5084 302.749 28.4129C303.625 29.303 304.063 30.552 304.063 32.16V39.1588H301.048V32.5691C301.048 31.6216 300.811 30.8966 300.337 30.3941C299.863 29.8773 299.217 29.6189 298.399 29.6189C297.566 29.6189 296.906 29.8773 296.418 30.3941C295.944 30.8966 295.707 31.6216 295.707 32.5691V39.1588H292.692V27.2285H295.707V28.7144C296.109 28.1976 296.619 27.7956 297.236 27.5084C297.868 27.207 298.557 27.0562 299.303 27.0562ZM318.02 32.9352C318.02 33.3659 317.991 33.7536 317.934 34.0981H309.212C309.284 34.9595 309.586 35.6343 310.117 36.1224C310.648 36.6105 311.301 36.8546 312.077 36.8546C313.196 36.8546 313.993 36.3736 314.467 35.4117H317.719C317.374 36.5603 316.714 37.5078 315.737 38.2543C314.761 38.9865 313.562 39.3526 312.141 39.3526C310.993 39.3526 309.959 39.1014 309.04 38.5989C308.136 38.0821 307.425 37.3571 306.908 36.4239C306.406 35.4907 306.154 34.414 306.154 33.1937C306.154 31.959 306.406 30.8751 306.908 29.9419C307.411 29.0087 308.114 28.2909 309.019 27.7884C309.923 27.2859 310.964 27.0347 312.141 27.0347C313.275 27.0347 314.287 27.2787 315.178 27.7669C316.082 28.255 316.778 28.9513 317.266 29.8557C317.769 30.7459 318.02 31.7723 318.02 32.9352ZM314.898 32.0738C314.883 31.2986 314.603 30.6812 314.058 30.2218C313.512 29.7481 312.845 29.5112 312.055 29.5112C311.308 29.5112 310.677 29.7409 310.16 30.2003C309.657 30.6454 309.349 31.2699 309.234 32.0738H314.898ZM323.731 29.705V35.4763C323.731 35.8783 323.824 36.1726 324.011 36.3593C324.212 36.5316 324.542 36.6177 325.002 36.6177H326.401V39.1588H324.506C321.965 39.1588 320.695 37.9241 320.695 35.4548V29.705H319.273V27.2285H320.695V24.2782H323.731V27.2285H326.401V29.705H323.731ZM345.109 27.2285L341.62 39.1588H338.368L336.193 30.8248L334.018 39.1588H330.745L327.235 27.2285H330.293L332.403 36.3162L334.686 27.2285H337.873L340.112 36.2947L342.223 27.2285H345.109ZM352.037 39.3526C350.889 39.3526 349.855 39.1014 348.936 38.5989C348.018 38.0821 347.293 37.3571 346.761 36.4239C346.244 35.4907 345.986 34.414 345.986 33.1937C345.986 31.9733 346.252 30.8966 346.783 29.9634C347.328 29.0302 348.068 28.3124 349.001 27.8099C349.934 27.2931 350.975 27.0347 352.124 27.0347C353.272 27.0347 354.313 27.2931 355.246 27.8099C356.179 28.3124 356.911 29.0302 357.443 29.9634C357.988 30.8966 358.261 31.9733 358.261 33.1937C358.261 34.414 357.981 35.4907 357.421 36.4239C356.876 37.3571 356.129 38.0821 355.181 38.5989C354.248 39.1014 353.2 39.3526 352.037 39.3526ZM352.037 36.7254C352.583 36.7254 353.093 36.5962 353.566 36.3377C354.054 36.065 354.442 35.663 354.729 35.1318C355.016 34.6006 355.16 33.9545 355.16 33.1937C355.16 32.0595 354.858 31.1909 354.255 30.5879C353.667 29.9706 352.942 29.6619 352.08 29.6619C351.219 29.6619 350.494 29.9706 349.905 30.5879C349.331 31.1909 349.044 32.0595 349.044 33.1937C349.044 34.3278 349.324 35.2036 349.884 35.8209C350.458 36.4239 351.176 36.7254 352.037 36.7254ZM363.487 29.0805C363.875 28.4488 364.377 27.9535 364.995 27.5946C365.626 27.2357 366.344 27.0562 367.148 27.0562V30.2218H366.352C365.404 30.2218 364.686 30.4444 364.198 30.8894C363.724 31.3345 363.487 32.1097 363.487 33.2152V39.1588H360.472V27.2285H363.487V29.0805ZM376.242 39.1588L372.194 34.0766V39.1588H369.179V23.223H372.194V32.2892L376.199 27.2285H380.119L374.864 33.2152L380.162 39.1588H376.242Z" fill="white"/>
<path d="M89.9816 63.2923V64.4875H86.9128V74.5497H85.4431V64.4875H82.3582V63.2923H89.9816ZM91.2416 70.092C91.2416 69.1875 91.4247 68.3961 91.7908 67.7177C92.1568 67.0286 92.6575 66.4956 93.2928 66.1188C93.9389 65.7419 94.6549 65.5535 95.4409 65.5535C96.2162 65.5535 96.8891 65.7204 97.4598 66.0542C98.0305 66.388 98.4558 66.8079 98.7358 67.314V65.6988H100.222V74.5497H98.7358V72.9023C98.445 73.4191 98.009 73.8498 97.4275 74.1944C96.8568 74.5281 96.1893 74.695 95.4248 74.695C94.6387 74.695 93.9281 74.5012 93.2928 74.1136C92.6575 73.726 92.1568 73.1822 91.7908 72.4823C91.4247 71.7824 91.2416 70.9857 91.2416 70.092ZM98.7358 70.1081C98.7358 69.4405 98.6012 68.8591 98.332 68.3638C98.0628 67.8685 97.6967 67.4916 97.2337 67.2332C96.7815 66.964 96.2808 66.8294 95.7316 66.8294C95.1825 66.8294 94.6818 66.9586 94.2296 67.2171C93.7773 67.4755 93.4166 67.8523 93.1475 68.3476C92.8783 68.8429 92.7437 69.4244 92.7437 70.092C92.7437 70.7703 92.8783 71.3625 93.1475 71.8686C93.4166 72.3639 93.7773 72.7461 94.2296 73.0153C94.6818 73.2737 95.1825 73.4029 95.7316 73.4029C96.2808 73.4029 96.7815 73.2737 97.2337 73.0153C97.6967 72.7461 98.0628 72.3639 98.332 71.8686C98.6012 71.3625 98.7358 70.7757 98.7358 70.1081ZM113.349 65.5373C114.038 65.5373 114.652 65.6827 115.19 65.9734C115.729 66.2534 116.154 66.6787 116.466 67.2494C116.778 67.82 116.935 68.5145 116.935 69.3329V74.5497H115.481V69.5428C115.481 68.6599 115.26 67.9869 114.819 67.5239C114.388 67.0502 113.801 66.8133 113.058 66.8133C112.294 66.8133 111.685 67.0609 111.233 67.5562C110.781 68.0408 110.555 68.746 110.555 69.672V74.5497H109.101V69.5428C109.101 68.6599 108.881 67.9869 108.439 67.5239C108.008 67.0502 107.422 66.8133 106.679 66.8133C105.914 66.8133 105.306 67.0609 104.854 67.5562C104.401 68.0408 104.175 68.746 104.175 69.672V74.5497H102.705V65.6988H104.175V66.9748C104.466 66.5118 104.854 66.1565 105.338 65.9088C105.833 65.6612 106.377 65.5373 106.969 65.5373C107.712 65.5373 108.369 65.7042 108.94 66.038C109.51 66.3718 109.936 66.8617 110.216 67.5078C110.463 66.8833 110.873 66.3987 111.443 66.0542C112.014 65.7096 112.649 65.5373 113.349 65.5373ZM120.105 64.2614C119.825 64.2614 119.588 64.1645 119.394 63.9707C119.2 63.7769 119.103 63.54 119.103 63.26C119.103 62.9801 119.2 62.7432 119.394 62.5494C119.588 62.3556 119.825 62.2586 120.105 62.2586C120.374 62.2586 120.6 62.3556 120.783 62.5494C120.977 62.7432 121.074 62.9801 121.074 63.26C121.074 63.54 120.977 63.7769 120.783 63.9707C120.6 64.1645 120.374 64.2614 120.105 64.2614ZM120.815 65.6988V74.5497H119.346V65.6988H120.815ZM124.79 62.5978V74.5497H123.32V62.5978H124.79ZM135.913 65.5373C136.99 65.5373 137.862 65.8657 138.53 66.5226C139.197 67.1686 139.531 68.1054 139.531 69.3329V74.5497H138.077V69.5428C138.077 68.6599 137.857 67.9869 137.415 67.5239C136.974 67.0502 136.371 66.8133 135.606 66.8133C134.831 66.8133 134.212 67.0555 133.749 67.5401C133.297 68.0246 133.071 68.7299 133.071 69.6559V74.5497H131.601V65.6988H133.071V66.9586C133.361 66.5064 133.754 66.1565 134.25 65.9088C134.756 65.6612 135.31 65.5373 135.913 65.5373ZM141.383 70.092C141.383 69.1875 141.566 68.3961 141.932 67.7177C142.298 67.0286 142.799 66.4956 143.434 66.1188C144.08 65.7419 144.796 65.5535 145.582 65.5535C146.357 65.5535 147.03 65.7204 147.601 66.0542C148.172 66.388 148.597 66.8079 148.877 67.314V65.6988H150.363V74.5497H148.877V72.9023C148.586 73.4191 148.15 73.8498 147.569 74.1944C146.998 74.5281 146.33 74.695 145.566 74.695C144.78 74.695 144.069 74.5012 143.434 74.1136C142.799 73.726 142.298 73.1822 141.932 72.4823C141.566 71.7824 141.383 70.9857 141.383 70.092ZM148.877 70.1081C148.877 69.4405 148.742 68.8591 148.473 68.3638C148.204 67.8685 147.838 67.4916 147.375 67.2332C146.923 66.964 146.422 66.8294 145.873 66.8294C145.324 66.8294 144.823 66.9586 144.371 67.2171C143.919 67.4755 143.558 67.8523 143.289 68.3476C143.019 68.8429 142.885 69.4244 142.885 70.092C142.885 70.7703 143.019 71.3625 143.289 71.8686C143.558 72.3639 143.919 72.7461 144.371 73.0153C144.823 73.2737 145.324 73.4029 145.873 73.4029C146.422 73.4029 146.923 73.2737 147.375 73.0153C147.838 72.7461 148.204 72.3639 148.473 71.8686C148.742 71.3625 148.877 70.7757 148.877 70.1081ZM152.297 70.092C152.297 69.1875 152.48 68.3961 152.847 67.7177C153.213 67.0286 153.713 66.4956 154.349 66.1188C154.995 65.7419 155.716 65.5535 156.513 65.5535C157.202 65.5535 157.843 65.715 158.435 66.038C159.027 66.3503 159.479 66.7648 159.792 67.2817V62.5978H161.277V74.5497H159.792V72.8861C159.501 73.4137 159.07 73.8498 158.499 74.1944C157.929 74.5281 157.261 74.695 156.497 74.695C155.711 74.695 154.995 74.5012 154.349 74.1136C153.713 73.726 153.213 73.1822 152.847 72.4823C152.48 71.7824 152.297 70.9857 152.297 70.092ZM159.792 70.1081C159.792 69.4405 159.657 68.8591 159.388 68.3638C159.119 67.8685 158.753 67.4916 158.29 67.2332C157.837 66.964 157.337 66.8294 156.787 66.8294C156.238 66.8294 155.738 66.9586 155.285 67.2171C154.833 67.4755 154.472 67.8523 154.203 68.3476C153.934 68.8429 153.799 69.4244 153.799 70.092C153.799 70.7703 153.934 71.3625 154.203 71.8686C154.472 72.3639 154.833 72.7461 155.285 73.0153C155.738 73.2737 156.238 73.4029 156.787 73.4029C157.337 73.4029 157.837 73.2737 158.29 73.0153C158.753 72.7461 159.119 72.3639 159.388 71.8686C159.657 71.3625 159.792 70.7757 159.792 70.1081ZM171.611 65.6988V74.5497H170.141V73.2414C169.861 73.6937 169.468 74.049 168.962 74.3074C168.467 74.5551 167.917 74.6789 167.314 74.6789C166.625 74.6789 166.006 74.5389 165.457 74.259C164.908 73.9682 164.472 73.5375 164.149 72.9669C163.837 72.3962 163.68 71.7017 163.68 70.8834V65.6988H165.134V70.6896C165.134 71.5617 165.355 72.2347 165.796 72.7084C166.238 73.1714 166.841 73.4029 167.605 73.4029C168.391 73.4029 169.01 73.1607 169.463 72.6761C169.915 72.1916 170.141 71.4863 170.141 70.5603V65.6988H171.611ZM180.239 76.2617H178.77V61.7095H180.239V76.2617ZM192.411 63.7284L192.993 64.7782L190.748 65.715L193.009 66.6356L192.395 67.7177L190.441 66.2964L190.699 68.7353H189.488L189.73 66.2964L187.776 67.7339L187.146 66.6356L189.391 65.6988L187.146 64.7944L187.744 63.7123L189.746 65.1497L189.488 62.6947H190.715L190.441 65.1497L192.411 63.7284ZM200.266 63.7284L200.847 64.7782L198.602 65.715L200.864 66.6356L200.25 67.7177L198.296 66.2964L198.554 68.7353H197.343L197.585 66.2964L195.631 67.7339L195.001 66.6356L197.246 65.6988L195.001 64.7944L195.598 63.7123L197.601 65.1497L197.343 62.6947H198.57L198.296 65.1497L200.266 63.7284ZM202.694 73.3706C204.061 72.2724 205.133 71.3733 205.908 70.6734C206.683 69.9628 207.335 69.2252 207.862 68.4607C208.401 67.6854 208.67 66.9263 208.67 66.1834C208.67 65.4835 208.498 64.9344 208.153 64.536C207.819 64.1268 207.276 63.9222 206.522 63.9222C205.79 63.9222 205.219 64.1537 204.81 64.6167C204.411 65.0689 204.196 65.6773 204.164 66.4418H202.742C202.785 65.2358 203.152 64.3045 203.841 63.6476C204.53 62.9908 205.418 62.6624 206.506 62.6624C207.615 62.6624 208.492 62.9693 209.138 63.583C209.795 64.1968 210.124 65.042 210.124 66.1188C210.124 67.0125 209.854 67.8846 209.316 68.7353C208.788 69.5751 208.185 70.3181 207.507 70.9641C206.829 71.5994 205.962 72.3424 204.907 73.193H210.463V74.4205H202.694V73.3706ZM214.294 68.4768C213.691 68.24 213.228 67.8954 212.905 67.4432C212.582 66.9909 212.42 66.4418 212.42 65.7958C212.42 65.2143 212.565 64.6921 212.856 64.2291C213.147 63.7553 213.578 63.3838 214.148 63.1147C214.73 62.8347 215.43 62.6947 216.248 62.6947C217.066 62.6947 217.761 62.8347 218.331 63.1147C218.913 63.3838 219.349 63.7553 219.64 64.2291C219.941 64.6921 220.092 65.2143 220.092 65.7958C220.092 66.4203 219.925 66.9694 219.591 67.4432C219.257 67.9062 218.8 68.2507 218.218 68.4768C218.886 68.6814 219.414 69.0421 219.801 69.559C220.2 70.065 220.399 70.6788 220.399 71.4002C220.399 72.1001 220.227 72.7138 219.882 73.2414C219.537 73.7583 219.047 74.1621 218.412 74.4528C217.788 74.7327 217.066 74.8727 216.248 74.8727C215.43 74.8727 214.708 74.7327 214.084 74.4528C213.47 74.1621 212.991 73.7583 212.646 73.2414C212.302 72.7138 212.129 72.1001 212.129 71.4002C212.129 70.6788 212.323 70.0597 212.711 69.5428C213.098 69.026 213.626 68.6707 214.294 68.4768ZM218.671 65.9734C218.671 65.3166 218.455 64.8105 218.025 64.4552C217.594 64.0999 217.002 63.9222 216.248 63.9222C215.505 63.9222 214.918 64.0999 214.487 64.4552C214.057 64.8105 213.841 65.322 213.841 65.9896C213.841 66.5925 214.062 67.0771 214.504 67.4432C214.956 67.8093 215.537 67.9923 216.248 67.9923C216.969 67.9923 217.551 67.8093 217.992 67.4432C218.445 67.0663 218.671 66.5764 218.671 65.9734ZM216.248 69.1229C215.451 69.1229 214.8 69.3113 214.294 69.6882C213.788 70.0543 213.535 70.6088 213.535 71.3518C213.535 72.0409 213.777 72.5954 214.261 73.0153C214.757 73.4353 215.419 73.6452 216.248 73.6452C217.077 73.6452 217.734 73.4353 218.218 73.0153C218.703 72.5954 218.945 72.0409 218.945 71.3518C218.945 70.6303 218.698 70.0812 218.202 69.7043C217.707 69.3167 217.056 69.1229 216.248 69.1229ZM222.319 65.8119C222.394 64.8213 222.776 64.046 223.465 63.4861C224.154 62.9262 225.048 62.6463 226.146 62.6463C226.879 62.6463 227.508 62.7809 228.036 63.0501C228.574 63.3085 228.978 63.6638 229.247 64.116C229.527 64.5683 229.667 65.0797 229.667 65.6504C229.667 66.318 229.473 66.894 229.086 67.3786C228.709 67.8631 228.214 68.1754 227.6 68.3153V68.3961C228.3 68.5684 228.854 68.9075 229.264 69.4136C229.673 69.9197 229.877 70.5819 229.877 71.4002C229.877 72.0139 229.737 72.5685 229.457 73.0638C229.177 73.5483 228.757 73.9306 228.198 74.2105C227.638 74.4905 226.965 74.6304 226.179 74.6304C225.037 74.6304 224.101 74.3343 223.368 73.7421C222.636 73.1391 222.227 72.2885 222.141 71.1902H223.562C223.638 71.8363 223.901 72.3639 224.354 72.7731C224.806 73.1822 225.409 73.3868 226.163 73.3868C226.916 73.3868 227.487 73.193 227.875 72.8054C228.273 72.407 228.472 71.8955 228.472 71.271C228.472 70.4634 228.203 69.882 227.665 69.5267C227.126 69.1713 226.313 68.9937 225.226 68.9937H224.854V67.7662H225.242C226.232 67.7554 226.981 67.5939 227.487 67.2817C227.993 66.9586 228.246 66.4633 228.246 65.7958C228.246 65.2251 228.058 64.7675 227.681 64.4229C227.315 64.0783 226.787 63.9061 226.098 63.9061C225.43 63.9061 224.892 64.0783 224.483 64.4229C224.074 64.7675 223.831 65.2305 223.756 65.8119H222.319ZM231.684 73.3706C233.052 72.2724 234.123 71.3733 234.898 70.6734C235.673 69.9628 236.325 69.2252 236.852 68.4607C237.391 67.6854 237.66 66.9263 237.66 66.1834C237.66 65.4835 237.488 64.9344 237.143 64.536C236.809 64.1268 236.266 63.9222 235.512 63.9222C234.78 63.9222 234.209 64.1537 233.8 64.6167C233.401 65.0689 233.186 65.6773 233.154 66.4418H231.732C231.776 65.2358 232.142 64.3045 232.831 63.6476C233.52 62.9908 234.408 62.6624 235.496 62.6624C236.605 62.6624 237.482 62.9693 238.128 63.583C238.785 64.1968 239.114 65.042 239.114 66.1188C239.114 67.0125 238.844 67.8846 238.306 68.7353C237.778 69.5751 237.175 70.3181 236.497 70.9641C235.819 71.5994 234.952 72.3424 233.897 73.193H239.453V74.4205H231.684V73.3706Z" fill="white"/>
<defs>
<linearGradient id="paint0_linear_174_698" x1="0.610351" y1="93.6604" x2="455.938" y2="-56.8122" gradientUnits="userSpaceOnUse">
<stop stop-color="#DBDBDB" stop-opacity="0.28"/>
<stop offset="1" stop-color="#999999" stop-opacity="0.3"/>
</linearGradient>
</defs>
</svg>
