<svg width="762" height="435" viewBox="0 0 762 435" fill="none" xmlns="http://www.w3.org/2000/svg">
<g clip-path="url(#clip0_174_988)">
<rect x="225.377" y="186.763" width="359.442" height="185.971" rx="6.18976" fill="white" fill-opacity="0.2"/>
<rect x="225.377" y="186.763" width="359.442" height="185.971" rx="6.18976" stroke="url(#paint0_linear_174_988)" stroke-width="0.825301"/>
<rect x="213.71" y="132.282" width="382.774" height="204.687" rx="6.81268" fill="white" fill-opacity="0.05"/>
<rect x="213.71" y="132.282" width="382.774" height="204.687" rx="6.81268" stroke="url(#paint1_linear_174_988)" stroke-width="0.908357"/>
<rect x="202.022" y="92.3629" width="406.149" height="204.821" rx="7.10489" fill="white" fill-opacity="0.05"/>
<rect x="202.022" y="92.3629" width="406.149" height="204.821" rx="7.10489" stroke="url(#paint2_linear_174_988)" stroke-width="0.947319"/>
<rect x="188.002" y="68.7203" width="429.507" height="193.116" rx="7.53211" fill="white" fill-opacity="0.15"/>
<rect x="188.002" y="68.7203" width="429.507" height="193.116" rx="7.53211" stroke="url(#paint3_linear_174_988)" stroke-width="1.00428"/>
<path d="M223.135 115.904C225.247 119.495 227.377 123.075 229.467 126.68C226.09 132.575 222.762 138.499 219.271 144.33C217.931 146.568 216.628 148.827 215.304 151.072C211.01 151.098 206.716 151.097 202.422 151.091C202.553 150.8 202.682 150.507 202.841 150.229C209.602 138.786 216.389 127.357 223.135 115.904Z" fill="#AE285D"/>
<path d="M223.137 137.796C227.446 137.795 231.755 137.764 236.065 137.835C238.631 142.263 241.279 146.643 243.823 151.083C239.513 151.104 235.205 151.087 230.896 151.084C228.331 146.641 225.653 142.266 223.137 137.796Z" fill="#AE285D"/>
<path d="M267.931 113.424L263.51 121.947V126.499H260.888V121.947L256.448 113.424H259.408L262.218 119.4L265.009 113.424H267.931ZM274.051 126.668C273.052 126.668 272.153 126.449 271.354 126.012C270.555 125.562 269.924 124.932 269.462 124.12C269.012 123.308 268.788 122.372 268.788 121.31C268.788 120.249 269.019 119.312 269.481 118.501C269.955 117.689 270.598 117.065 271.41 116.627C272.222 116.178 273.127 115.953 274.126 115.953C275.125 115.953 276.03 116.178 276.842 116.627C277.654 117.065 278.291 117.689 278.753 118.501C279.227 119.312 279.465 120.249 279.465 121.31C279.465 122.372 279.221 123.308 278.734 124.12C278.26 124.932 277.61 125.562 276.786 126.012C275.974 126.449 275.063 126.668 274.051 126.668ZM274.051 124.382C274.526 124.382 274.969 124.27 275.381 124.045C275.806 123.808 276.143 123.458 276.393 122.996C276.642 122.534 276.767 121.972 276.767 121.31C276.767 120.324 276.505 119.568 275.981 119.044C275.469 118.507 274.838 118.238 274.089 118.238C273.339 118.238 272.709 118.507 272.197 119.044C271.697 119.568 271.447 120.324 271.447 121.31C271.447 122.297 271.691 123.059 272.178 123.596C272.678 124.12 273.302 124.382 274.051 124.382ZM291.185 116.122V126.499H288.544V125.188C288.207 125.637 287.763 125.993 287.214 126.256C286.677 126.505 286.09 126.63 285.453 126.63C284.641 126.63 283.923 126.462 283.299 126.124C282.674 125.775 282.181 125.269 281.819 124.607C281.469 123.933 281.295 123.134 281.295 122.209V116.122H283.917V121.835C283.917 122.659 284.123 123.296 284.535 123.745C284.947 124.183 285.509 124.401 286.221 124.401C286.945 124.401 287.514 124.183 287.926 123.745C288.338 123.296 288.544 122.659 288.544 121.835V116.122H291.185ZM295.421 111.551L295.196 115.522H293.416L293.173 111.551H295.421ZM301.758 124.083L304.38 116.122H307.171L303.331 126.499H300.147L296.326 116.122H299.135L301.758 124.083ZM318.291 121.086C318.291 121.46 318.266 121.797 318.216 122.097H310.63C310.692 122.846 310.955 123.433 311.417 123.858C311.879 124.282 312.447 124.495 313.121 124.495C314.095 124.495 314.788 124.076 315.2 123.24H318.029C317.729 124.239 317.155 125.063 316.306 125.712C315.456 126.349 314.414 126.668 313.177 126.668C312.178 126.668 311.279 126.449 310.48 126.012C309.693 125.562 309.075 124.932 308.626 124.12C308.188 123.308 307.97 122.372 307.97 121.31C307.97 120.236 308.188 119.294 308.626 118.482C309.063 117.67 309.675 117.046 310.461 116.609C311.248 116.172 312.153 115.953 313.177 115.953C314.164 115.953 315.044 116.165 315.818 116.59C316.605 117.015 317.211 117.62 317.635 118.407C318.073 119.181 318.291 120.074 318.291 121.086ZM315.575 120.336C315.562 119.662 315.319 119.125 314.844 118.725C314.37 118.313 313.789 118.107 313.102 118.107C312.453 118.107 311.904 118.307 311.454 118.707C311.017 119.094 310.748 119.637 310.649 120.336H315.575ZM327.291 117.733C327.628 117.183 328.065 116.752 328.602 116.44C329.152 116.128 329.776 115.972 330.475 115.972V118.725H329.782C328.958 118.725 328.334 118.919 327.909 119.306C327.497 119.693 327.291 120.368 327.291 121.329V126.499H324.669V116.122H327.291V117.733ZM341.889 121.086C341.889 121.46 341.864 121.797 341.814 122.097H334.227C334.29 122.846 334.552 123.433 335.014 123.858C335.476 124.282 336.044 124.495 336.719 124.495C337.693 124.495 338.386 124.076 338.798 123.24H341.626C341.327 124.239 340.752 125.063 339.903 125.712C339.054 126.349 338.011 126.668 336.775 126.668C335.776 126.668 334.877 126.449 334.077 126.012C333.291 125.562 332.673 124.932 332.223 124.12C331.786 123.308 331.567 122.372 331.567 121.31C331.567 120.236 331.786 119.294 332.223 118.482C332.66 117.67 333.272 117.046 334.059 116.609C334.845 116.172 335.751 115.953 336.775 115.953C337.761 115.953 338.642 116.165 339.416 116.59C340.203 117.015 340.808 117.62 341.233 118.407C341.67 119.181 341.889 120.074 341.889 121.086ZM339.172 120.336C339.16 119.662 338.916 119.125 338.442 118.725C337.967 118.313 337.387 118.107 336.7 118.107C336.051 118.107 335.501 118.307 335.052 118.707C334.614 119.094 334.346 119.637 334.246 120.336H339.172ZM343.128 121.31C343.128 120.236 343.347 119.3 343.784 118.501C344.221 117.689 344.827 117.065 345.601 116.627C346.375 116.178 347.262 115.953 348.261 115.953C349.547 115.953 350.609 116.278 351.445 116.927C352.294 117.564 352.863 118.463 353.15 119.625H350.321C350.171 119.175 349.915 118.825 349.553 118.576C349.204 118.313 348.767 118.182 348.242 118.182C347.493 118.182 346.9 118.457 346.463 119.006C346.026 119.543 345.807 120.311 345.807 121.31C345.807 122.297 346.026 123.065 346.463 123.614C346.9 124.151 347.493 124.42 348.242 124.42C349.304 124.42 349.997 123.945 350.321 122.996H353.15C352.863 124.12 352.294 125.013 351.445 125.675C350.596 126.337 349.535 126.668 348.261 126.668C347.262 126.668 346.375 126.449 345.601 126.012C344.827 125.562 344.221 124.938 343.784 124.139C343.347 123.327 343.128 122.384 343.128 121.31ZM364.718 121.086C364.718 121.46 364.693 121.797 364.643 122.097H357.057C357.119 122.846 357.381 123.433 357.843 123.858C358.305 124.282 358.873 124.495 359.548 124.495C360.522 124.495 361.215 124.076 361.627 123.24H364.456C364.156 124.239 363.581 125.063 362.732 125.712C361.883 126.349 360.84 126.668 359.604 126.668C358.605 126.668 357.706 126.449 356.907 126.012C356.12 125.562 355.502 124.932 355.052 124.12C354.615 123.308 354.397 122.372 354.397 121.31C354.397 120.236 354.615 119.294 355.052 118.482C355.489 117.67 356.101 117.046 356.888 116.609C357.675 116.172 358.58 115.953 359.604 115.953C360.591 115.953 361.471 116.165 362.245 116.59C363.032 117.015 363.638 117.62 364.062 118.407C364.499 119.181 364.718 120.074 364.718 121.086ZM362.002 120.336C361.989 119.662 361.746 119.125 361.271 118.725C360.797 118.313 360.216 118.107 359.529 118.107C358.88 118.107 358.33 118.307 357.881 118.707C357.444 119.094 357.175 119.637 357.075 120.336H362.002ZM367.962 114.885C367.5 114.885 367.113 114.742 366.8 114.455C366.501 114.155 366.351 113.786 366.351 113.349C366.351 112.912 366.501 112.55 366.8 112.263C367.113 111.963 367.5 111.813 367.962 111.813C368.424 111.813 368.805 111.963 369.104 112.263C369.417 112.55 369.573 112.912 369.573 113.349C369.573 113.786 369.417 114.155 369.104 114.455C368.805 114.742 368.424 114.885 367.962 114.885ZM369.254 116.122V126.499H366.632V116.122H369.254ZM376.172 124.083L378.795 116.122H381.586L377.746 126.499H374.561L370.74 116.122H373.55L376.172 124.083ZM392.705 121.086C392.705 121.46 392.681 121.797 392.631 122.097H385.044C385.107 122.846 385.369 123.433 385.831 123.858C386.293 124.282 386.861 124.495 387.536 124.495C388.51 124.495 389.203 124.076 389.615 123.24H392.443C392.144 124.239 391.569 125.063 390.72 125.712C389.871 126.349 388.828 126.668 387.592 126.668C386.593 126.668 385.694 126.449 384.894 126.012C384.108 125.562 383.49 124.932 383.04 124.12C382.603 123.308 382.384 122.372 382.384 121.31C382.384 120.236 382.603 119.294 383.04 118.482C383.477 117.67 384.089 117.046 384.876 116.609C385.662 116.172 386.568 115.953 387.592 115.953C388.578 115.953 389.459 116.165 390.233 116.59C391.02 117.015 391.625 117.62 392.05 118.407C392.487 119.181 392.705 120.074 392.705 121.086ZM389.989 120.336C389.977 119.662 389.733 119.125 389.259 118.725C388.784 118.313 388.204 118.107 387.517 118.107C386.867 118.107 386.318 118.307 385.868 118.707C385.431 119.094 385.163 119.637 385.063 120.336H389.989ZM393.945 121.273C393.945 120.224 394.151 119.294 394.563 118.482C394.988 117.67 395.562 117.046 396.287 116.609C397.011 116.172 397.817 115.953 398.703 115.953C399.377 115.953 400.021 116.103 400.632 116.403C401.244 116.69 401.731 117.077 402.094 117.564V112.638H404.753V126.499H402.094V124.963C401.769 125.475 401.313 125.887 400.726 126.199C400.139 126.512 399.459 126.668 398.684 126.668C397.81 126.668 397.011 126.443 396.287 125.993C395.562 125.544 394.988 124.913 394.563 124.101C394.151 123.277 393.945 122.334 393.945 121.273ZM402.112 121.31C402.112 120.673 401.987 120.13 401.738 119.681C401.488 119.219 401.151 118.869 400.726 118.632C400.302 118.382 399.846 118.257 399.359 118.257C398.872 118.257 398.422 118.376 398.01 118.613C397.598 118.85 397.261 119.2 396.999 119.662C396.749 120.112 396.624 120.649 396.624 121.273C396.624 121.897 396.749 122.447 396.999 122.921C397.261 123.383 397.598 123.739 398.01 123.989C398.435 124.239 398.884 124.364 399.359 124.364C399.846 124.364 400.302 124.245 400.726 124.008C401.151 123.758 401.488 123.408 401.738 122.959C401.987 122.497 402.112 121.947 402.112 121.31ZM417.529 115.972C418.765 115.972 419.764 116.365 420.526 117.152C421.288 117.926 421.668 119.013 421.668 120.411V126.499H419.046V120.767C419.046 119.943 418.84 119.312 418.428 118.875C418.016 118.426 417.454 118.201 416.742 118.201C416.018 118.201 415.443 118.426 415.019 118.875C414.607 119.312 414.401 119.943 414.401 120.767V126.499H411.778V116.122H414.401V117.414C414.75 116.965 415.194 116.615 415.73 116.365C416.28 116.103 416.879 115.972 417.529 115.972ZM433.809 121.086C433.809 121.46 433.784 121.797 433.734 122.097H426.148C426.21 122.846 426.472 123.433 426.935 123.858C427.397 124.282 427.965 124.495 428.639 124.495C429.613 124.495 430.306 124.076 430.718 123.24H433.547C433.247 124.239 432.673 125.063 431.823 125.712C430.974 126.349 429.932 126.668 428.695 126.668C427.696 126.668 426.797 126.449 425.998 126.012C425.211 125.562 424.593 124.932 424.143 124.12C423.706 123.308 423.488 122.372 423.488 121.31C423.488 120.236 423.706 119.294 424.143 118.482C424.581 117.67 425.192 117.046 425.979 116.609C426.766 116.172 427.671 115.953 428.695 115.953C429.682 115.953 430.562 116.165 431.336 116.59C432.123 117.015 432.729 117.62 433.153 118.407C433.59 119.181 433.809 120.074 433.809 121.086ZM431.093 120.336C431.08 119.662 430.837 119.125 430.362 118.725C429.888 118.313 429.307 118.107 428.62 118.107C427.971 118.107 427.422 118.307 426.972 118.707C426.535 119.094 426.266 119.637 426.167 120.336H431.093ZM450.109 116.122L447.075 126.499H444.246L442.354 119.25L440.462 126.499H437.615L434.562 116.122H437.222L439.057 124.026L441.043 116.122H443.815L445.763 124.008L447.599 116.122H450.109ZM455.317 121.31C455.317 120.236 455.536 119.3 455.973 118.501C456.41 117.689 457.015 117.065 457.79 116.627C458.564 116.178 459.451 115.953 460.45 115.953C461.736 115.953 462.797 116.278 463.634 116.927C464.483 117.564 465.051 118.463 465.338 119.625H462.51C462.36 119.175 462.104 118.825 461.742 118.576C461.392 118.313 460.955 118.182 460.431 118.182C459.682 118.182 459.088 118.457 458.651 119.006C458.214 119.543 457.996 120.311 457.996 121.31C457.996 122.297 458.214 123.065 458.651 123.614C459.088 124.151 459.682 124.42 460.431 124.42C461.492 124.42 462.185 123.945 462.51 122.996H465.338C465.051 124.12 464.483 125.013 463.634 125.675C462.785 126.337 461.723 126.668 460.45 126.668C459.451 126.668 458.564 126.449 457.79 126.012C457.015 125.562 456.41 124.938 455.973 124.139C455.536 123.327 455.317 122.384 455.317 121.31ZM471.868 126.668C470.869 126.668 469.969 126.449 469.17 126.012C468.371 125.562 467.74 124.932 467.278 124.12C466.829 123.308 466.604 122.372 466.604 121.31C466.604 120.249 466.835 119.312 467.297 118.501C467.772 117.689 468.415 117.065 469.226 116.627C470.038 116.178 470.944 115.953 471.943 115.953C472.942 115.953 473.847 116.178 474.659 116.627C475.47 117.065 476.107 117.689 476.569 118.501C477.044 119.312 477.281 120.249 477.281 121.31C477.281 122.372 477.038 123.308 476.551 124.12C476.076 124.932 475.427 125.562 474.602 126.012C473.791 126.449 472.879 126.668 471.868 126.668ZM471.868 124.382C472.342 124.382 472.785 124.27 473.198 124.045C473.622 123.808 473.959 123.458 474.209 122.996C474.459 122.534 474.584 121.972 474.584 121.31C474.584 120.324 474.321 119.568 473.797 119.044C473.285 118.507 472.654 118.238 471.905 118.238C471.156 118.238 470.525 118.507 470.013 119.044C469.514 119.568 469.264 120.324 469.264 121.31C469.264 122.297 469.507 123.059 469.994 123.596C470.494 124.12 471.118 124.382 471.868 124.382ZM484.955 115.972C486.192 115.972 487.191 116.365 487.952 117.152C488.714 117.926 489.095 119.013 489.095 120.411V126.499H486.473V120.767C486.473 119.943 486.267 119.312 485.854 118.875C485.442 118.426 484.88 118.201 484.169 118.201C483.444 118.201 482.87 118.426 482.445 118.875C482.033 119.312 481.827 119.943 481.827 120.767V126.499H479.205V116.122H481.827V117.414C482.177 116.965 482.62 116.615 483.157 116.365C483.707 116.103 484.306 115.972 484.955 115.972ZM495.56 126.668C494.711 126.668 493.949 126.518 493.275 126.218C492.6 125.906 492.063 125.488 491.664 124.963C491.277 124.439 491.064 123.858 491.027 123.221H493.668C493.718 123.621 493.912 123.952 494.249 124.214C494.598 124.476 495.029 124.607 495.541 124.607C496.041 124.607 496.428 124.507 496.703 124.307C496.99 124.108 497.133 123.852 497.133 123.539C497.133 123.202 496.959 122.952 496.609 122.79C496.272 122.615 495.729 122.428 494.979 122.228C494.205 122.041 493.568 121.847 493.069 121.648C492.582 121.448 492.157 121.142 491.795 120.73C491.445 120.318 491.27 119.762 491.27 119.063C491.27 118.488 491.433 117.964 491.757 117.489C492.095 117.015 492.569 116.64 493.181 116.365C493.805 116.09 494.536 115.953 495.373 115.953C496.609 115.953 497.595 116.265 498.332 116.89C499.069 117.502 499.475 118.332 499.55 119.381H497.04C497.002 118.969 496.827 118.644 496.515 118.407C496.216 118.157 495.81 118.032 495.298 118.032C494.823 118.032 494.455 118.12 494.193 118.295C493.943 118.469 493.818 118.713 493.818 119.025C493.818 119.375 493.993 119.643 494.342 119.831C494.692 120.005 495.235 120.186 495.972 120.374C496.721 120.561 497.339 120.755 497.826 120.954C498.314 121.154 498.732 121.466 499.082 121.891C499.444 122.303 499.631 122.853 499.643 123.539C499.643 124.139 499.475 124.676 499.138 125.15C498.813 125.625 498.338 126 497.714 126.274C497.102 126.536 496.384 126.668 495.56 126.668ZM511.443 121.086C511.443 121.46 511.418 121.797 511.368 122.097H503.782C503.844 122.846 504.106 123.433 504.568 123.858C505.03 124.282 505.599 124.495 506.273 124.495C507.247 124.495 507.94 124.076 508.352 123.24H511.181C510.881 124.239 510.307 125.063 509.457 125.712C508.608 126.349 507.565 126.668 506.329 126.668C505.33 126.668 504.431 126.449 503.632 126.012C502.845 125.562 502.227 124.932 501.777 124.12C501.34 123.308 501.122 122.372 501.122 121.31C501.122 120.236 501.34 119.294 501.777 118.482C502.214 117.67 502.826 117.046 503.613 116.609C504.4 116.172 505.305 115.953 506.329 115.953C507.316 115.953 508.196 116.165 508.97 116.59C509.757 117.015 510.363 117.62 510.787 118.407C511.224 119.181 511.443 120.074 511.443 121.086ZM508.727 120.336C508.714 119.662 508.471 119.125 507.996 118.725C507.522 118.313 506.941 118.107 506.254 118.107C505.605 118.107 505.055 118.307 504.606 118.707C504.169 119.094 503.9 119.637 503.8 120.336H508.727ZM519.108 115.972C520.344 115.972 521.343 116.365 522.105 117.152C522.867 117.926 523.247 119.013 523.247 120.411V126.499H520.625V120.767C520.625 119.943 520.419 119.312 520.007 118.875C519.595 118.426 519.033 118.201 518.321 118.201C517.597 118.201 517.022 118.426 516.598 118.875C516.186 119.312 515.98 119.943 515.98 120.767V126.499H513.357V116.122H515.98V117.414C516.329 116.965 516.772 116.615 517.309 116.365C517.859 116.103 518.458 115.972 519.108 115.972ZM528.794 118.276V123.296C528.794 123.646 528.876 123.902 529.038 124.064C529.213 124.214 529.5 124.289 529.9 124.289H531.117V126.499H529.469C527.258 126.499 526.153 125.425 526.153 123.277V118.276H524.917V116.122H526.153V113.555H528.794V116.122H531.117V118.276H528.794ZM542.225 118.276H540.408V126.499H537.748V118.276H536.568V116.122H537.748V115.597C537.748 114.323 538.11 113.387 538.834 112.787C539.558 112.188 540.651 111.907 542.112 111.945V114.155C541.475 114.142 541.032 114.249 540.782 114.473C540.533 114.698 540.408 115.104 540.408 115.691V116.122H542.225V118.276ZM546.546 117.733C546.884 117.183 547.321 116.752 547.858 116.44C548.407 116.128 549.032 115.972 549.731 115.972V118.725H549.038C548.214 118.725 547.589 118.919 547.165 119.306C546.753 119.693 546.546 120.368 546.546 121.329V126.499H543.924V116.122H546.546V117.733ZM556.105 126.668C555.106 126.668 554.207 126.449 553.408 126.012C552.609 125.562 551.978 124.932 551.516 124.12C551.066 123.308 550.842 122.372 550.842 121.31C550.842 120.249 551.073 119.312 551.535 118.501C552.009 117.689 552.652 117.065 553.464 116.627C554.276 116.178 555.181 115.953 556.18 115.953C557.179 115.953 558.084 116.178 558.896 116.627C559.708 117.065 560.345 117.689 560.807 118.501C561.281 119.312 561.519 120.249 561.519 121.31C561.519 122.372 561.275 123.308 560.788 124.12C560.314 124.932 559.664 125.562 558.84 126.012C558.028 126.449 557.117 126.668 556.105 126.668ZM556.105 124.382C556.58 124.382 557.023 124.27 557.435 124.045C557.86 123.808 558.197 123.458 558.447 122.996C558.696 122.534 558.821 121.972 558.821 121.31C558.821 120.324 558.559 119.568 558.035 119.044C557.523 118.507 556.892 118.238 556.143 118.238C555.393 118.238 554.763 118.507 554.251 119.044C553.751 119.568 553.501 120.324 553.501 121.31C553.501 122.297 553.745 123.059 554.232 123.596C554.732 124.12 555.356 124.382 556.105 124.382ZM576.33 115.972C577.603 115.972 578.627 116.365 579.402 117.152C580.188 117.926 580.582 119.013 580.582 120.411V126.499H577.959V120.767C577.959 119.955 577.753 119.337 577.341 118.913C576.929 118.476 576.367 118.257 575.655 118.257C574.944 118.257 574.375 118.476 573.951 118.913C573.539 119.337 573.333 119.955 573.333 120.767V126.499H570.71V120.767C570.71 119.955 570.504 119.337 570.092 118.913C569.68 118.476 569.118 118.257 568.406 118.257C567.682 118.257 567.107 118.476 566.683 118.913C566.271 119.337 566.065 119.955 566.065 120.767V126.499H563.442V116.122H566.065V117.377C566.402 116.94 566.833 116.596 567.357 116.346C567.894 116.097 568.481 115.972 569.118 115.972C569.93 115.972 570.654 116.147 571.291 116.496C571.928 116.833 572.421 117.321 572.771 117.957C573.108 117.358 573.595 116.877 574.232 116.515C574.881 116.153 575.58 115.972 576.33 115.972ZM265.552 152.008H260.344L259.483 154.499H256.729L261.431 141.406H264.484L269.186 154.499H266.413L265.552 152.008ZM264.84 149.91L262.948 144.44L261.056 149.91H264.84ZM276.675 154.499L274.54 151.277L272.648 154.499H269.838L273.228 149.292L269.801 144.122H272.76L274.877 147.325L276.787 144.122H279.597L276.188 149.292L279.635 154.499H276.675ZM282.389 142.885C281.927 142.885 281.54 142.742 281.228 142.455C280.928 142.155 280.778 141.786 280.778 141.349C280.778 140.912 280.928 140.55 281.228 140.263C281.54 139.963 281.927 139.813 282.389 139.813C282.851 139.813 283.232 139.963 283.532 140.263C283.844 140.55 284 140.912 284 141.349C284 141.786 283.844 142.155 283.532 142.455C283.232 142.742 282.851 142.885 282.389 142.885ZM283.681 144.122V154.499H281.059V144.122H283.681ZM290.244 154.668C289.394 154.668 288.633 154.518 287.958 154.218C287.284 153.906 286.747 153.488 286.347 152.963C285.96 152.439 285.748 151.858 285.71 151.221H288.352C288.402 151.621 288.595 151.952 288.932 152.214C289.282 152.476 289.713 152.607 290.225 152.607C290.724 152.607 291.111 152.507 291.386 152.307C291.673 152.108 291.817 151.852 291.817 151.539C291.817 151.202 291.642 150.952 291.292 150.79C290.955 150.615 290.412 150.428 289.663 150.228C288.889 150.041 288.252 149.847 287.752 149.648C287.265 149.448 286.841 149.142 286.478 148.73C286.129 148.318 285.954 147.762 285.954 147.063C285.954 146.488 286.116 145.964 286.441 145.489C286.778 145.015 287.253 144.64 287.865 144.365C288.489 144.09 289.22 143.953 290.056 143.953C291.292 143.953 292.279 144.265 293.016 144.89C293.753 145.502 294.158 146.332 294.233 147.381H291.723C291.686 146.969 291.511 146.644 291.199 146.407C290.899 146.157 290.493 146.032 289.981 146.032C289.507 146.032 289.138 146.12 288.876 146.295C288.626 146.469 288.501 146.713 288.501 147.025C288.501 147.375 288.676 147.643 289.026 147.831C289.376 148.005 289.919 148.186 290.656 148.374C291.405 148.561 292.023 148.755 292.51 148.954C292.997 149.154 293.415 149.466 293.765 149.891C294.127 150.303 294.315 150.853 294.327 151.539C294.327 152.139 294.158 152.676 293.821 153.15C293.497 153.625 293.022 154 292.398 154.274C291.786 154.536 291.068 154.668 290.244 154.668ZM303.566 145.639C303.903 145.139 304.365 144.734 304.952 144.421C305.551 144.109 306.232 143.953 306.993 143.953C307.88 143.953 308.679 144.172 309.391 144.609C310.115 145.046 310.684 145.67 311.096 146.482C311.52 147.281 311.733 148.211 311.733 149.273C311.733 150.334 311.52 151.277 311.096 152.101C310.684 152.913 310.115 153.544 309.391 153.993C308.679 154.443 307.88 154.668 306.993 154.668C306.219 154.668 305.539 154.518 304.952 154.218C304.377 153.906 303.915 153.506 303.566 153.019V154.499H300.943V140.638H303.566V145.639ZM309.054 149.273C309.054 148.649 308.923 148.112 308.661 147.662C308.411 147.2 308.074 146.85 307.649 146.613C307.237 146.376 306.787 146.257 306.3 146.257C305.826 146.257 305.376 146.382 304.952 146.632C304.54 146.869 304.202 147.219 303.94 147.681C303.69 148.143 303.566 148.686 303.566 149.31C303.566 149.935 303.69 150.478 303.94 150.94C304.202 151.402 304.54 151.758 304.952 152.008C305.376 152.245 305.826 152.364 306.3 152.364C306.787 152.364 307.237 152.239 307.649 151.989C308.074 151.739 308.411 151.383 308.661 150.921C308.923 150.459 309.054 149.91 309.054 149.273ZM312.964 149.273C312.964 148.224 313.17 147.294 313.582 146.482C314.007 145.67 314.575 145.046 315.287 144.609C316.011 144.172 316.816 143.953 317.703 143.953C318.477 143.953 319.152 144.109 319.726 144.421C320.313 144.734 320.781 145.127 321.131 145.601V144.122H323.772V154.499H321.131V152.982C320.794 153.469 320.325 153.875 319.726 154.199C319.139 154.512 318.458 154.668 317.684 154.668C316.81 154.668 316.011 154.443 315.287 153.993C314.575 153.544 314.007 152.913 313.582 152.101C313.17 151.277 312.964 150.334 312.964 149.273ZM321.131 149.31C321.131 148.673 321.006 148.13 320.756 147.681C320.506 147.219 320.169 146.869 319.745 146.632C319.32 146.382 318.864 146.257 318.377 146.257C317.89 146.257 317.441 146.376 317.029 146.613C316.616 146.85 316.279 147.2 316.017 147.662C315.767 148.112 315.642 148.649 315.642 149.273C315.642 149.897 315.767 150.447 316.017 150.921C316.279 151.383 316.616 151.739 317.029 151.989C317.453 152.239 317.903 152.364 318.377 152.364C318.864 152.364 319.32 152.245 319.745 152.008C320.169 151.758 320.506 151.408 320.756 150.959C321.006 150.497 321.131 149.947 321.131 149.31ZM332.084 143.972C333.32 143.972 334.319 144.365 335.081 145.152C335.843 145.926 336.224 147.013 336.224 148.411V154.499H333.601V148.767C333.601 147.943 333.395 147.312 332.983 146.875C332.571 146.426 332.009 146.201 331.297 146.201C330.573 146.201 329.998 146.426 329.574 146.875C329.162 147.312 328.956 147.943 328.956 148.767V154.499H326.333V144.122H328.956V145.414C329.305 144.965 329.749 144.615 330.286 144.365C330.835 144.103 331.435 143.972 332.084 143.972ZM344.861 154.499L341.34 150.078V154.499H338.717V140.638H341.34V148.524L344.824 144.122H348.233L343.663 149.329L348.271 154.499H344.861Z" fill="white"/>
<rect x="202.422" y="182.816" width="401.811" height="1.00428" fill="#EAECF0" fill-opacity="0.18"/>
<g clip-path="url(#clip1_174_988)">
<path d="M212.465 224.007C217.087 224.007 220.834 220.26 220.834 215.638C220.834 211.016 217.087 207.269 212.465 207.269C207.843 207.269 204.096 211.016 204.096 215.638C204.096 220.26 207.843 224.007 212.465 224.007Z" stroke="#EAECF0" stroke-width="2.0086" stroke-linecap="round" stroke-linejoin="round"/>
<path d="M220.834 215.638H217.486" stroke="#EAECF0" stroke-width="2.0086" stroke-linecap="round" stroke-linejoin="round"/>
<path d="M207.443 215.638H204.096" stroke="#EAECF0" stroke-width="2.0086" stroke-linecap="round" stroke-linejoin="round"/>
<path d="M212.465 210.616V207.269" stroke="#EAECF0" stroke-width="2.0086" stroke-linecap="round" stroke-linejoin="round"/>
<path d="M212.465 224.007V220.659" stroke="#EAECF0" stroke-width="2.0086" stroke-linecap="round" stroke-linejoin="round"/>
</g>
<path d="M242.205 210.018L238.909 221.138H236.845L234.509 212.722L232.029 221.138L229.981 221.154L226.829 210.018H228.765L231.069 219.074L233.565 210.018H235.613L237.933 219.026L240.253 210.018H242.205ZM251.79 216.514C251.79 216.844 251.768 217.143 251.726 217.41H244.99C245.043 218.114 245.304 218.679 245.774 219.106C246.243 219.532 246.819 219.746 247.502 219.746C248.483 219.746 249.176 219.335 249.582 218.514H251.55C251.283 219.324 250.798 219.991 250.094 220.514C249.4 221.026 248.536 221.282 247.502 221.282C246.659 221.282 245.902 221.095 245.23 220.722C244.568 220.338 244.046 219.804 243.662 219.122C243.288 218.428 243.102 217.628 243.102 216.722C243.102 215.815 243.283 215.02 243.646 214.338C244.019 213.644 244.536 213.111 245.198 212.738C245.87 212.364 246.638 212.178 247.502 212.178C248.334 212.178 249.075 212.359 249.726 212.722C250.376 213.084 250.883 213.596 251.246 214.258C251.608 214.908 251.79 215.66 251.79 216.514ZM249.886 215.938C249.875 215.266 249.635 214.727 249.166 214.322C248.696 213.916 248.115 213.714 247.422 213.714C246.792 213.714 246.254 213.916 245.806 214.322C245.358 214.716 245.091 215.255 245.006 215.938H249.886ZM252.977 216.69C252.977 215.804 253.158 215.02 253.521 214.338C253.894 213.655 254.395 213.127 255.025 212.754C255.665 212.37 256.369 212.178 257.137 212.178C257.83 212.178 258.433 212.316 258.945 212.594C259.467 212.86 259.883 213.196 260.193 213.602V212.322H262.033V221.138H260.193V219.826C259.883 220.242 259.462 220.588 258.929 220.866C258.395 221.143 257.787 221.282 257.105 221.282C256.347 221.282 255.654 221.09 255.025 220.706C254.395 220.311 253.894 219.767 253.521 219.074C253.158 218.37 252.977 217.575 252.977 216.69ZM260.193 216.722C260.193 216.114 260.065 215.586 259.809 215.138C259.563 214.69 259.238 214.348 258.833 214.114C258.427 213.879 257.99 213.762 257.521 213.762C257.051 213.762 256.614 213.879 256.209 214.114C255.803 214.338 255.473 214.674 255.217 215.122C254.971 215.559 254.849 216.082 254.849 216.69C254.849 217.298 254.971 217.831 255.217 218.29C255.473 218.748 255.803 219.1 256.209 219.346C256.625 219.58 257.062 219.698 257.521 219.698C257.99 219.698 258.427 219.58 258.833 219.346C259.238 219.111 259.563 218.77 259.809 218.322C260.065 217.863 260.193 217.33 260.193 216.722ZM266.253 209.298V221.138H264.429V209.298H266.253ZM270.775 213.81V218.69C270.775 219.02 270.85 219.26 270.999 219.41C271.159 219.548 271.426 219.618 271.799 219.618H272.919V221.138H271.479C270.658 221.138 270.029 220.946 269.591 220.562C269.154 220.178 268.935 219.554 268.935 218.69V213.81H267.895V212.322H268.935V210.13H270.775V212.322H272.919V213.81H270.775ZM279.16 212.178C279.832 212.178 280.43 212.322 280.952 212.61C281.486 212.898 281.902 213.324 282.2 213.89C282.51 214.455 282.664 215.138 282.664 215.938V221.138H280.856V216.21C280.856 215.42 280.659 214.818 280.264 214.402C279.87 213.975 279.331 213.762 278.648 213.762C277.966 213.762 277.422 213.975 277.016 214.402C276.622 214.818 276.424 215.42 276.424 216.21V221.138H274.6V209.298H276.424V213.346C276.734 212.972 277.123 212.684 277.592 212.482C278.072 212.279 278.595 212.178 279.16 212.178ZM299.819 212.178C300.513 212.178 301.131 212.322 301.675 212.61C302.23 212.898 302.662 213.324 302.971 213.89C303.291 214.455 303.451 215.138 303.451 215.938V221.138H301.643V216.21C301.643 215.42 301.446 214.818 301.051 214.402C300.657 213.975 300.118 213.762 299.435 213.762C298.753 213.762 298.209 213.975 297.803 214.402C297.409 214.818 297.211 215.42 297.211 216.21V221.138H295.403V216.21C295.403 215.42 295.206 214.818 294.811 214.402C294.417 213.975 293.878 213.762 293.195 213.762C292.513 213.762 291.969 213.975 291.563 214.402C291.169 214.818 290.971 215.42 290.971 216.21V221.138H289.147V212.322H290.971V213.33C291.27 212.967 291.649 212.684 292.107 212.482C292.566 212.279 293.057 212.178 293.579 212.178C294.283 212.178 294.913 212.327 295.467 212.626C296.022 212.924 296.449 213.356 296.747 213.922C297.014 213.388 297.43 212.967 297.995 212.658C298.561 212.338 299.169 212.178 299.819 212.178ZM305.164 216.69C305.164 215.804 305.346 215.02 305.708 214.338C306.082 213.655 306.583 213.127 307.212 212.754C307.852 212.37 308.556 212.178 309.324 212.178C310.018 212.178 310.62 212.316 311.132 212.594C311.655 212.86 312.071 213.196 312.38 213.602V212.322H314.22V221.138H312.38V219.826C312.071 220.242 311.65 220.588 311.116 220.866C310.583 221.143 309.975 221.282 309.292 221.282C308.535 221.282 307.842 221.09 307.212 220.706C306.583 220.311 306.082 219.767 305.708 219.074C305.346 218.37 305.164 217.575 305.164 216.69ZM312.38 216.722C312.38 216.114 312.252 215.586 311.996 215.138C311.751 214.69 311.426 214.348 311.02 214.114C310.615 213.879 310.178 213.762 309.708 213.762C309.239 213.762 308.802 213.879 308.396 214.114C307.991 214.338 307.66 214.674 307.404 215.122C307.159 215.559 307.036 216.082 307.036 216.69C307.036 217.298 307.159 217.831 307.404 218.29C307.66 218.748 307.991 219.1 308.396 219.346C308.812 219.58 309.25 219.698 309.708 219.698C310.178 219.698 310.615 219.58 311.02 219.346C311.426 219.111 311.751 218.77 311.996 218.322C312.252 217.863 312.38 217.33 312.38 216.722ZM321.064 212.178C321.757 212.178 322.376 212.322 322.92 212.61C323.475 212.898 323.907 213.324 324.216 213.89C324.525 214.455 324.68 215.138 324.68 215.938V221.138H322.872V216.21C322.872 215.42 322.675 214.818 322.28 214.402C321.885 213.975 321.347 213.762 320.664 213.762C319.981 213.762 319.437 213.975 319.032 214.402C318.637 214.818 318.44 215.42 318.44 216.21V221.138H316.616V212.322H318.44V213.33C318.739 212.967 319.117 212.684 319.576 212.482C320.045 212.279 320.541 212.178 321.064 212.178ZM326.399 216.69C326.399 215.804 326.58 215.02 326.943 214.338C327.316 213.655 327.817 213.127 328.447 212.754C329.087 212.37 329.791 212.178 330.559 212.178C331.252 212.178 331.855 212.316 332.367 212.594C332.889 212.86 333.305 213.196 333.615 213.602V212.322H335.455V221.138H333.615V219.826C333.305 220.242 332.884 220.588 332.351 220.866C331.817 221.143 331.209 221.282 330.527 221.282C329.769 221.282 329.076 221.09 328.447 220.706C327.817 220.311 327.316 219.767 326.943 219.074C326.58 218.37 326.399 217.575 326.399 216.69ZM333.615 216.722C333.615 216.114 333.487 215.586 333.231 215.138C332.985 214.69 332.66 214.348 332.255 214.114C331.849 213.879 331.412 213.762 330.943 213.762C330.473 213.762 330.036 213.879 329.631 214.114C329.225 214.338 328.895 214.674 328.639 215.122C328.393 215.559 328.271 216.082 328.271 216.69C328.271 217.298 328.393 217.831 328.639 218.29C328.895 218.748 329.225 219.1 329.631 219.346C330.047 219.58 330.484 219.698 330.943 219.698C331.412 219.698 331.849 219.58 332.255 219.346C332.66 219.111 332.985 218.77 333.231 218.322C333.487 217.863 333.615 217.33 333.615 216.722ZM341.402 212.178C342.085 212.178 342.688 212.316 343.21 212.594C343.744 212.86 344.16 213.196 344.458 213.602V212.322H346.298V221.282C346.298 222.092 346.128 222.812 345.786 223.442C345.445 224.082 344.949 224.583 344.298 224.946C343.658 225.308 342.89 225.49 341.994 225.49C340.8 225.49 339.808 225.207 339.018 224.642C338.229 224.087 337.781 223.33 337.674 222.37H339.482C339.621 222.828 339.914 223.196 340.362 223.474C340.821 223.762 341.365 223.906 341.994 223.906C342.73 223.906 343.322 223.682 343.77 223.234C344.229 222.786 344.458 222.135 344.458 221.282V219.81C344.149 220.226 343.728 220.578 343.194 220.866C342.672 221.143 342.074 221.282 341.402 221.282C340.634 221.282 339.93 221.09 339.29 220.706C338.661 220.311 338.16 219.767 337.786 219.074C337.424 218.37 337.242 217.575 337.242 216.69C337.242 215.804 337.424 215.02 337.786 214.338C338.16 213.655 338.661 213.127 339.29 212.754C339.93 212.37 340.634 212.178 341.402 212.178ZM344.458 216.722C344.458 216.114 344.33 215.586 344.074 215.138C343.829 214.69 343.504 214.348 343.098 214.114C342.693 213.879 342.256 213.762 341.786 213.762C341.317 213.762 340.88 213.879 340.474 214.114C340.069 214.338 339.738 214.674 339.482 215.122C339.237 215.559 339.114 216.082 339.114 216.69C339.114 217.298 339.237 217.831 339.482 218.29C339.738 218.748 340.069 219.1 340.474 219.346C340.89 219.58 341.328 219.698 341.786 219.698C342.256 219.698 342.693 219.58 343.098 219.346C343.504 219.111 343.829 218.77 344.074 218.322C344.33 217.863 344.458 217.33 344.458 216.722ZM356.774 216.514C356.774 216.844 356.753 217.143 356.71 217.41H349.974C350.027 218.114 350.289 218.679 350.758 219.106C351.227 219.532 351.803 219.746 352.486 219.746C353.467 219.746 354.161 219.335 354.566 218.514H356.534C356.267 219.324 355.782 219.991 355.078 220.514C354.385 221.026 353.521 221.282 352.486 221.282C351.643 221.282 350.886 221.095 350.214 220.722C349.553 220.338 349.03 219.804 348.646 219.122C348.273 218.428 348.086 217.628 348.086 216.722C348.086 215.815 348.267 215.02 348.63 214.338C349.003 213.644 349.521 213.111 350.182 212.738C350.854 212.364 351.622 212.178 352.486 212.178C353.318 212.178 354.059 212.359 354.71 212.722C355.361 213.084 355.867 213.596 356.23 214.258C356.593 214.908 356.774 215.66 356.774 216.514ZM354.87 215.938C354.859 215.266 354.619 214.727 354.15 214.322C353.681 213.916 353.099 213.714 352.406 213.714C351.777 213.714 351.238 213.916 350.79 214.322C350.342 214.716 350.075 215.255 349.99 215.938H354.87ZM369.241 212.178C369.934 212.178 370.553 212.322 371.097 212.61C371.652 212.898 372.084 213.324 372.393 213.89C372.713 214.455 372.873 215.138 372.873 215.938V221.138H371.065V216.21C371.065 215.42 370.868 214.818 370.473 214.402C370.078 213.975 369.54 213.762 368.857 213.762C368.174 213.762 367.63 213.975 367.225 214.402C366.83 214.818 366.633 215.42 366.633 216.21V221.138H364.825V216.21C364.825 215.42 364.628 214.818 364.233 214.402C363.838 213.975 363.3 213.762 362.617 213.762C361.934 213.762 361.39 213.975 360.985 214.402C360.59 214.818 360.393 215.42 360.393 216.21V221.138H358.569V212.322H360.393V213.33C360.692 212.967 361.07 212.684 361.529 212.482C361.988 212.279 362.478 212.178 363.001 212.178C363.705 212.178 364.334 212.327 364.889 212.626C365.444 212.924 365.87 213.356 366.169 213.922C366.436 213.388 366.852 212.967 367.417 212.658C367.982 212.338 368.59 212.178 369.241 212.178ZM383.274 216.514C383.274 216.844 383.253 217.143 383.21 217.41H376.474C376.527 218.114 376.789 218.679 377.258 219.106C377.727 219.532 378.303 219.746 378.986 219.746C379.967 219.746 380.661 219.335 381.066 218.514H383.034C382.767 219.324 382.282 219.991 381.578 220.514C380.885 221.026 380.021 221.282 378.986 221.282C378.143 221.282 377.386 221.095 376.714 220.722C376.053 220.338 375.53 219.804 375.146 219.122C374.773 218.428 374.586 217.628 374.586 216.722C374.586 215.815 374.767 215.02 375.13 214.338C375.503 213.644 376.021 213.111 376.682 212.738C377.354 212.364 378.122 212.178 378.986 212.178C379.818 212.178 380.559 212.359 381.21 212.722C381.861 213.084 382.367 213.596 382.73 214.258C383.093 214.908 383.274 215.66 383.274 216.514ZM381.37 215.938C381.359 215.266 381.119 214.727 380.65 214.322C380.181 213.916 379.599 213.714 378.906 213.714C378.277 213.714 377.738 213.916 377.29 214.322C376.842 214.716 376.575 215.255 376.49 215.938H381.37ZM389.517 212.178C390.21 212.178 390.829 212.322 391.373 212.61C391.928 212.898 392.36 213.324 392.669 213.89C392.978 214.455 393.133 215.138 393.133 215.938V221.138H391.325V216.21C391.325 215.42 391.128 214.818 390.733 214.402C390.338 213.975 389.8 213.762 389.117 213.762C388.434 213.762 387.89 213.975 387.485 214.402C387.09 214.818 386.893 215.42 386.893 216.21V221.138H385.069V212.322H386.893V213.33C387.192 212.967 387.57 212.684 388.029 212.482C388.498 212.279 388.994 212.178 389.517 212.178ZM397.588 213.81V218.69C397.588 219.02 397.662 219.26 397.812 219.41C397.972 219.548 398.238 219.618 398.612 219.618H399.732V221.138H398.292C397.47 221.138 396.841 220.946 396.404 220.562C395.966 220.178 395.748 219.554 395.748 218.69V213.81H394.708V212.322H395.748V210.13H397.588V212.322H399.732V213.81H397.588Z" fill="#EAECF0"/>
<g clip-path="url(#clip2_174_988)">
<path d="M479.031 208.942H467.314C466.39 208.942 465.641 209.692 465.641 210.616V222.333C465.641 223.258 466.39 224.007 467.314 224.007H479.031C479.956 224.007 480.705 223.258 480.705 222.333V210.616C480.705 209.692 479.956 208.942 479.031 208.942Z" stroke="#EAECF0" stroke-width="2.0086" stroke-linecap="round" stroke-linejoin="round"/>
<path d="M476.521 207.269V210.616" stroke="#EAECF0" stroke-width="2.0086" stroke-linecap="round" stroke-linejoin="round"/>
<path d="M469.825 207.269V210.616" stroke="#EAECF0" stroke-width="2.0086" stroke-linecap="round" stroke-linejoin="round"/>
<path d="M465.641 213.964H480.705" stroke="#EAECF0" stroke-width="2.0086" stroke-linecap="round" stroke-linejoin="round"/>
</g>
<path d="M488.865 212.354C488.929 211.362 489.307 210.588 490.001 210.034C490.705 209.479 491.601 209.202 492.689 209.202C493.435 209.202 494.081 209.335 494.625 209.602C495.169 209.868 495.579 210.231 495.857 210.69C496.134 211.148 496.273 211.666 496.273 212.242C496.273 212.903 496.097 213.468 495.745 213.938C495.393 214.407 494.971 214.722 494.481 214.882V214.946C495.11 215.138 495.601 215.49 495.953 216.002C496.305 216.503 496.481 217.148 496.481 217.938C496.481 218.567 496.337 219.127 496.049 219.618C495.761 220.108 495.334 220.498 494.769 220.786C494.203 221.063 493.526 221.202 492.737 221.202C491.585 221.202 490.635 220.908 489.889 220.322C489.153 219.724 488.758 218.871 488.705 217.762H490.465C490.507 218.327 490.726 218.791 491.121 219.154C491.515 219.506 492.049 219.682 492.721 219.682C493.371 219.682 493.873 219.506 494.225 219.154C494.577 218.791 494.753 218.327 494.753 217.762C494.753 217.015 494.513 216.487 494.033 216.178C493.563 215.858 492.838 215.698 491.857 215.698H491.441V214.194H491.873C492.737 214.183 493.393 214.039 493.841 213.762C494.299 213.484 494.529 213.047 494.529 212.45C494.529 211.938 494.363 211.532 494.033 211.234C493.702 210.924 493.233 210.77 492.625 210.77C492.027 210.77 491.563 210.924 491.233 211.234C490.902 211.532 490.705 211.906 490.641 212.354H488.865ZM498.157 211.138V209.474H501.485V221.138H499.645V211.138H498.157ZM520.099 210.018V221.138H518.275V213.522L514.883 221.138H513.619L510.211 213.522V221.138H508.387V210.018H510.355L514.259 218.738L518.147 210.018H520.099ZM521.888 216.69C521.888 215.804 522.069 215.02 522.432 214.338C522.805 213.655 523.307 213.127 523.936 212.754C524.576 212.37 525.28 212.178 526.048 212.178C526.741 212.178 527.344 212.316 527.856 212.594C528.379 212.86 528.795 213.196 529.104 213.602V212.322H530.944V221.138H529.104V219.826C528.795 220.242 528.373 220.588 527.84 220.866C527.307 221.143 526.699 221.282 526.016 221.282C525.259 221.282 524.565 221.09 523.936 220.706C523.307 220.311 522.805 219.767 522.432 219.074C522.069 218.37 521.888 217.575 521.888 216.69ZM529.104 216.722C529.104 216.114 528.976 215.586 528.72 215.138C528.475 214.69 528.149 214.348 527.744 214.114C527.339 213.879 526.901 213.762 526.432 213.762C525.963 213.762 525.525 213.879 525.12 214.114C524.715 214.338 524.384 214.674 524.128 215.122C523.883 215.559 523.76 216.082 523.76 216.69C523.76 217.298 523.883 217.831 524.128 218.29C524.384 218.748 524.715 219.1 525.12 219.346C525.536 219.58 525.973 219.698 526.432 219.698C526.901 219.698 527.339 219.58 527.744 219.346C528.149 219.111 528.475 218.77 528.72 218.322C528.976 217.863 529.104 217.33 529.104 216.722ZM535.164 213.602C535.43 213.154 535.782 212.807 536.22 212.562C536.668 212.306 537.196 212.178 537.804 212.178V214.066H537.34C536.625 214.066 536.081 214.247 535.708 214.61C535.345 214.972 535.164 215.602 535.164 216.498V221.138H533.34V212.322H535.164V213.602ZM538.872 216.722C538.872 215.815 539.054 215.02 539.416 214.338C539.79 213.644 540.302 213.111 540.952 212.738C541.603 212.364 542.35 212.178 543.192 212.178C544.259 212.178 545.139 212.434 545.832 212.946C546.536 213.447 547.011 214.167 547.256 215.106H545.288C545.128 214.668 544.872 214.327 544.52 214.082C544.168 213.836 543.726 213.714 543.192 213.714C542.446 213.714 541.848 213.98 541.4 214.514C540.963 215.036 540.744 215.772 540.744 216.722C540.744 217.671 540.963 218.412 541.4 218.946C541.848 219.479 542.446 219.746 543.192 219.746C544.248 219.746 544.947 219.282 545.288 218.354H547.256C547 219.25 546.52 219.964 545.816 220.498C545.112 221.02 544.238 221.282 543.192 221.282C542.35 221.282 541.603 221.095 540.952 220.722C540.302 220.338 539.79 219.804 539.416 219.122C539.054 218.428 538.872 217.628 538.872 216.722ZM553.634 212.178C554.306 212.178 554.903 212.322 555.426 212.61C555.959 212.898 556.375 213.324 556.674 213.89C556.983 214.455 557.138 215.138 557.138 215.938V221.138H555.33V216.21C555.33 215.42 555.133 214.818 554.738 214.402C554.343 213.975 553.805 213.762 553.122 213.762C552.439 213.762 551.895 213.975 551.49 214.402C551.095 214.818 550.898 215.42 550.898 216.21V221.138H549.074V209.298H550.898V213.346C551.207 212.972 551.597 212.684 552.066 212.482C552.546 212.279 553.069 212.178 553.634 212.178ZM561.465 218.946L559.529 223.362H558.345L559.481 218.946H561.465ZM567.983 218.658C569.007 217.772 569.812 217.047 570.399 216.482C570.996 215.906 571.492 215.308 571.887 214.69C572.281 214.071 572.479 213.452 572.479 212.834C572.479 212.194 572.324 211.692 572.015 211.33C571.716 210.967 571.241 210.786 570.591 210.786C569.961 210.786 569.471 210.988 569.119 211.394C568.777 211.788 568.596 212.322 568.575 212.994H566.815C566.847 211.778 567.209 210.85 567.903 210.21C568.607 209.559 569.497 209.234 570.575 209.234C571.737 209.234 572.644 209.554 573.295 210.194C573.956 210.834 574.287 211.687 574.287 212.754C574.287 213.522 574.089 214.263 573.695 214.978C573.311 215.682 572.847 216.316 572.303 216.882C571.769 217.436 571.087 218.082 570.255 218.818L569.535 219.458H574.607V220.978H566.831V219.65L567.983 218.658ZM576.209 215.154C576.209 213.308 576.518 211.868 577.137 210.834C577.766 209.788 578.844 209.266 580.369 209.266C581.894 209.266 582.966 209.788 583.585 210.834C584.214 211.868 584.529 213.308 584.529 215.154C584.529 217.02 584.214 218.482 583.585 219.538C582.966 220.583 581.894 221.106 580.369 221.106C578.844 221.106 577.766 220.583 577.137 219.538C576.518 218.482 576.209 217.02 576.209 215.154ZM582.737 215.154C582.737 214.29 582.678 213.559 582.561 212.962C582.454 212.364 582.23 211.879 581.889 211.506C581.548 211.122 581.041 210.93 580.369 210.93C579.697 210.93 579.19 211.122 578.849 211.506C578.508 211.879 578.278 212.364 578.161 212.962C578.054 213.559 578.001 214.29 578.001 215.154C578.001 216.05 578.054 216.802 578.161 217.41C578.268 218.018 578.492 218.508 578.833 218.882C579.185 219.255 579.697 219.442 580.369 219.442C581.041 219.442 581.548 219.255 581.889 218.882C582.241 218.508 582.47 218.018 582.577 217.41C582.684 216.802 582.737 216.05 582.737 215.154ZM587.467 218.658C588.491 217.772 589.296 217.047 589.883 216.482C590.48 215.906 590.976 215.308 591.371 214.69C591.766 214.071 591.963 213.452 591.963 212.834C591.963 212.194 591.808 211.692 591.499 211.33C591.2 210.967 590.726 210.786 590.075 210.786C589.446 210.786 588.955 210.988 588.603 211.394C588.262 211.788 588.08 212.322 588.059 212.994H586.299C586.331 211.778 586.694 210.85 587.387 210.21C588.091 209.559 588.982 209.234 590.059 209.234C591.222 209.234 592.128 209.554 592.779 210.194C593.44 210.834 593.771 211.687 593.771 212.754C593.771 213.522 593.574 214.263 593.179 214.978C592.795 215.682 592.331 216.316 591.787 216.882C591.254 217.436 590.571 218.082 589.739 218.818L589.019 219.458H594.091V220.978H586.315V219.65L587.467 218.658ZM595.661 212.354C595.725 211.362 596.104 210.588 596.797 210.034C597.501 209.479 598.397 209.202 599.485 209.202C600.232 209.202 600.877 209.335 601.421 209.602C601.965 209.868 602.376 210.231 602.653 210.69C602.931 211.148 603.069 211.666 603.069 212.242C603.069 212.903 602.893 213.468 602.541 213.938C602.189 214.407 601.768 214.722 601.277 214.882V214.946C601.907 215.138 602.397 215.49 602.749 216.002C603.101 216.503 603.277 217.148 603.277 217.938C603.277 218.567 603.133 219.127 602.845 219.618C602.557 220.108 602.131 220.498 601.565 220.786C601 221.063 600.323 221.202 599.533 221.202C598.381 221.202 597.432 220.908 596.685 220.322C595.949 219.724 595.555 218.871 595.501 217.762H597.261C597.304 218.327 597.523 218.791 597.917 219.154C598.312 219.506 598.845 219.682 599.517 219.682C600.168 219.682 600.669 219.506 601.021 219.154C601.373 218.791 601.549 218.327 601.549 217.762C601.549 217.015 601.309 216.487 600.829 216.178C600.36 215.858 599.635 215.698 598.653 215.698H598.237V214.194H598.669C599.533 214.183 600.189 214.039 600.637 213.762C601.096 213.484 601.325 213.047 601.325 212.45C601.325 211.938 601.16 211.532 600.829 211.234C600.499 210.924 600.029 210.77 599.421 210.77C598.824 210.77 598.36 210.924 598.029 211.234C597.699 211.532 597.501 211.906 597.437 212.354H595.661Z" fill="#EAECF0"/>
</g>
<circle cx="390" cy="428.391" r="6" fill="#F9FAFB"/>
<circle opacity="0.4" cx="407" cy="428.391" r="4" fill="#F9FAFB"/>
<circle opacity="0.4" cx="422" cy="428.391" r="4" fill="#F9FAFB"/>
<defs>
<linearGradient id="paint0_linear_174_988" x1="585.231" y1="187.764" x2="203.555" y2="296.768" gradientUnits="userSpaceOnUse">
<stop stop-color="#E0E0E0" stop-opacity="0.18"/>
<stop offset="1" stop-color="#C9C9C9" stop-opacity="0.3"/>
</linearGradient>
<linearGradient id="paint1_linear_174_988" x1="596.938" y1="133.385" x2="188.493" y2="246.255" gradientUnits="userSpaceOnUse">
<stop stop-color="#E0E0E0" stop-opacity="0.18"/>
<stop offset="1" stop-color="#C9C9C9" stop-opacity="0.3"/>
</linearGradient>
<linearGradient id="paint2_linear_174_988" x1="608.646" y1="93.4475" x2="179.05" y2="219.301" gradientUnits="userSpaceOnUse">
<stop stop-color="#E0E0E0" stop-opacity="0.18"/>
<stop offset="1" stop-color="#C9C9C9" stop-opacity="0.3"/>
</linearGradient>
<linearGradient id="paint3_linear_174_988" x1="618.011" y1="69.6882" x2="172.738" y2="215.915" gradientUnits="userSpaceOnUse">
<stop stop-color="#E0E0E0" stop-opacity="0.18"/>
<stop offset="1" stop-color="#C9C9C9" stop-opacity="0.3"/>
</linearGradient>
<clipPath id="clip0_174_988">
<rect width="435" height="407.782" fill="white" transform="translate(187.5 4.60889)"/>
</clipPath>
<clipPath id="clip1_174_988">
<rect width="20.086" height="20.086" fill="white" transform="translate(202.422 205.595)"/>
</clipPath>
<clipPath id="clip2_174_988">
<rect width="20.086" height="20.086" fill="white" transform="translate(463.13 205.595)"/>
</clipPath>
</defs>
</svg>
