<svg width="476" height="96" viewBox="0 0 476 96" fill="none" xmlns="http://www.w3.org/2000/svg">
<g clip-path="url(#clip0_1_15)">
<path d="M467.828 0.618935H8.17151C4.25659 0.618935 1.08292 3.7926 1.08292 7.70752V87.778C1.08292 91.693 4.25659 94.8666 8.17151 94.8666H467.828C471.743 94.8666 474.917 91.693 474.917 87.778V7.70752C474.917 3.7926 471.743 0.618935 467.828 0.618935Z" fill="white" fill-opacity="0.25"/>
<path d="M467.828 0.618935H8.17151C4.25659 0.618935 1.08292 3.7926 1.08292 7.70752V87.778C1.08292 91.693 4.25659 94.8666 8.17151 94.8666H467.828C471.743 94.8666 474.917 91.693 474.917 87.778V7.70752C474.917 3.7926 471.743 0.618935 467.828 0.618935Z" stroke="url(#paint0_linear_1_15)" stroke-width="0.945145"/>
<path d="M29.6899 30.8394H63.4969V64.6464H29.6899V30.8394Z" fill="#ED232A"/>
<path d="M35.6069 36.7565H57.5839V58.7334H35.6069V36.7565Z" fill="white"/>
<path d="M44.9033 30.8394H48.2827V64.6464H44.9033V30.8394Z" fill="white"/>
<path d="M29.6899 46.0574H63.4969V49.4368H29.6899V46.0574Z" fill="white"/>
<path d="M41.5244 42.6737H51.6669V52.8163H41.5244V42.6737Z" fill="#004C8F"/>
<path d="M95.7637 24.016V39.0474H92.7488V32.6515H86.3099V39.0474H83.295V24.016H86.3099V30.1965H92.7488V24.016H95.7637ZM103.986 24.016C105.565 24.016 106.95 24.3247 108.142 24.942C109.348 25.5593 110.274 26.4423 110.92 27.5908C111.58 28.725 111.91 30.0458 111.91 31.5532C111.91 33.0607 111.58 34.3815 110.92 35.5156C110.274 36.6355 109.348 37.504 108.142 38.1214C106.95 38.7387 105.565 39.0474 103.986 39.0474H98.7311V24.016H103.986ZM103.878 36.4847C105.457 36.4847 106.677 36.054 107.539 35.1926C108.4 34.3312 108.831 33.1181 108.831 31.5532C108.831 29.9884 108.4 28.768 107.539 27.8923C106.677 27.0022 105.457 26.5571 103.878 26.5571H101.746V36.4847H103.878ZM123.449 24.016V26.4495H117.182V30.3042H121.984V32.6946H117.182V39.0474H114.167V24.016H123.449ZM124.854 31.5102C124.854 30.0314 125.185 28.7106 125.845 27.5477C126.52 26.3705 127.431 25.4589 128.58 24.8128C129.743 24.1524 131.042 23.8222 132.478 23.8222C134.158 23.8222 135.629 24.2529 136.892 25.1143C138.156 25.9757 139.039 27.1673 139.541 28.6891H136.074C135.73 27.9713 135.241 27.4329 134.61 27.074C133.992 26.7151 133.275 26.5356 132.456 26.5356C131.581 26.5356 130.798 26.7438 130.109 27.1601C129.434 27.5621 128.903 28.1364 128.515 28.8829C128.142 29.6294 127.955 30.5052 127.955 31.5102C127.955 32.5008 128.142 33.3765 128.515 34.1374C128.903 34.884 129.434 35.4654 130.109 35.8817C130.798 36.2837 131.581 36.4847 132.456 36.4847C133.275 36.4847 133.992 36.3053 134.61 35.9463C135.241 35.5731 135.73 35.0275 136.074 34.3097H139.541C139.039 35.8458 138.156 37.0446 136.892 37.906C135.643 38.7531 134.172 39.1766 132.478 39.1766C131.042 39.1766 129.743 38.8535 128.58 38.2075C127.431 37.5471 126.52 36.6355 125.845 35.4726C125.185 34.3097 124.854 32.9889 124.854 31.5102ZM150.263 28.8614C150.65 28.2871 151.181 27.8205 151.856 27.4616C152.545 27.1027 153.328 26.9232 154.203 26.9232C155.223 26.9232 156.142 27.1745 156.96 27.6769C157.793 28.1794 158.446 28.8973 158.92 29.8304C159.408 30.7493 159.652 31.8188 159.652 33.0391C159.652 34.2594 159.408 35.3434 158.92 36.2909C158.446 37.2241 157.793 37.9491 156.96 38.4659C156.142 38.9828 155.223 39.2412 154.203 39.2412C153.313 39.2412 152.531 39.0689 151.856 38.7243C151.196 38.3654 150.665 37.906 150.263 37.3461V39.0474H147.248V23.1115H150.263V28.8614ZM156.572 33.0391C156.572 32.3213 156.422 31.704 156.12 31.1871C155.833 30.6559 155.445 30.254 154.957 29.9812C154.483 29.7084 153.967 29.572 153.407 29.572C152.861 29.572 152.344 29.7156 151.856 30.0027C151.382 30.2755 150.995 30.6775 150.693 31.2087C150.406 31.7399 150.263 32.3644 150.263 33.0822C150.263 33.8 150.406 34.4245 150.693 34.9557C150.995 35.4869 151.382 35.8961 151.856 36.1832C152.344 36.456 152.861 36.5924 153.407 36.5924C153.967 36.5924 154.483 36.4488 154.957 36.1617C155.445 35.8746 155.833 35.4654 156.12 34.9342C156.422 34.403 156.572 33.7713 156.572 33.0391ZM161.067 33.0391C161.067 31.8332 161.304 30.7636 161.778 29.8304C162.266 28.8973 162.919 28.1794 163.738 27.6769C164.57 27.1745 165.496 26.9232 166.516 26.9232C167.406 26.9232 168.181 27.1027 168.841 27.4616C169.516 27.8205 170.055 28.2727 170.457 28.8183V27.117H173.493V39.0474H170.457V37.303C170.069 37.8629 169.531 38.3295 168.841 38.7028C168.167 39.0617 167.384 39.2412 166.494 39.2412C165.489 39.2412 164.57 38.9828 163.738 38.4659C162.919 37.9491 162.266 37.2241 161.778 36.2909C161.304 35.3434 161.067 34.2594 161.067 33.0391ZM170.457 33.0822C170.457 32.35 170.313 31.7255 170.026 31.2087C169.739 30.6775 169.351 30.2755 168.863 30.0027C168.375 29.7156 167.851 29.572 167.291 29.572C166.731 29.572 166.214 29.7084 165.74 29.9812C165.267 30.254 164.879 30.6559 164.578 31.1871C164.29 31.704 164.147 32.3213 164.147 33.0391C164.147 33.757 164.29 34.3886 164.578 34.9342C164.879 35.4654 165.267 35.8746 165.74 36.1617C166.229 36.4488 166.745 36.5924 167.291 36.5924C167.851 36.5924 168.375 36.456 168.863 36.1832C169.351 35.8961 169.739 35.4941 170.026 34.9773C170.313 34.4461 170.457 33.8144 170.457 33.0822ZM183.049 26.9448C184.47 26.9448 185.619 27.397 186.494 28.3015C187.37 29.1916 187.808 30.4406 187.808 32.0485V39.0474H184.793V32.4577C184.793 31.5102 184.556 30.7851 184.082 30.2827C183.609 29.7658 182.963 29.5074 182.144 29.5074C181.312 29.5074 180.651 29.7658 180.163 30.2827C179.689 30.7851 179.452 31.5102 179.452 32.4577V39.0474H176.438V27.117H179.452V28.6029C179.854 28.0861 180.364 27.6841 180.981 27.397C181.613 27.0955 182.302 26.9448 183.049 26.9448ZM197.738 39.0474L193.69 33.9651V39.0474H190.675V23.1115H193.69V32.1777L197.695 27.117H201.615L196.36 33.1037L201.658 39.0474H197.738Z" fill="white"/>
<path d="M82.5036 68.8015C82.5036 67.7032 82.7512 66.718 83.2465 65.8458C83.7418 64.9629 84.4148 64.2738 85.2654 63.7785C86.1268 63.2832 87.0797 63.0355 88.1242 63.0355C89.3517 63.0355 90.423 63.3316 91.3383 63.9238C92.2535 64.516 92.9211 65.3559 93.341 66.4434H91.5805C91.2683 65.7651 90.816 65.2428 90.2238 64.8767C89.6424 64.5107 88.9425 64.3276 88.1242 64.3276C87.3382 64.3276 86.6329 64.5107 86.0084 64.8767C85.3839 65.2428 84.894 65.7651 84.5386 66.4434C84.1833 67.111 84.0056 67.897 84.0056 68.8015C84.0056 69.6952 84.1833 70.4812 84.5386 71.1595C84.894 71.8271 85.3839 72.344 86.0084 72.7101C86.6329 73.0762 87.3382 73.2592 88.1242 73.2592C88.9425 73.2592 89.6424 73.0815 90.2238 72.7262C90.816 72.3601 91.2683 71.8379 91.5805 71.1595H93.341C92.9211 72.2363 92.2535 73.0708 91.3383 73.663C90.423 74.2444 89.3517 74.5351 88.1242 74.5351C87.0797 74.5351 86.1268 74.2929 85.2654 73.8083C84.4148 73.313 83.7418 72.6293 83.2465 71.7571C82.7512 70.885 82.5036 69.8998 82.5036 68.8015ZM103.378 65.5874V74.4382H101.909V73.13C101.629 73.5822 101.236 73.9375 100.73 74.196C100.234 74.4436 99.6851 74.5674 99.0821 74.5674C98.393 74.5674 97.7739 74.4275 97.2247 74.1475C96.6756 73.8568 96.2395 73.4261 95.9165 72.8554C95.6042 72.2847 95.4481 71.5902 95.4481 70.7719V65.5874H96.9017V70.5781C96.9017 71.4503 97.1224 72.1232 97.5639 72.597C98.0054 73.06 98.6084 73.2915 99.3728 73.2915C100.159 73.2915 100.778 73.0492 101.23 72.5647C101.682 72.0802 101.909 71.3749 101.909 70.4489V65.5874H103.378ZM107.33 67.0248C107.588 66.5188 107.954 66.1258 108.428 65.8458C108.913 65.5659 109.499 65.4259 110.188 65.4259V66.9441H109.801C108.153 66.9441 107.33 67.8378 107.33 69.6252V74.4382H105.86V65.5874H107.33V67.0248ZM113.355 67.0248C113.613 66.5188 113.979 66.1258 114.453 65.8458C114.938 65.5659 115.524 65.4259 116.214 65.4259V66.9441H115.826C114.179 66.9441 113.355 67.8378 113.355 69.6252V74.4382H111.885V65.5874H113.355V67.0248ZM125.986 69.6736C125.986 69.9536 125.97 70.2497 125.937 70.562H118.863C118.917 71.4341 119.213 72.1178 119.751 72.6132C120.301 73.0977 120.963 73.34 121.738 73.34C122.373 73.34 122.901 73.1946 123.321 72.9039C123.752 72.6024 124.053 72.204 124.225 71.7087H125.808C125.571 72.5593 125.097 73.2538 124.387 73.7922C123.676 74.3198 122.793 74.5836 121.738 74.5836C120.898 74.5836 120.144 74.3952 119.477 74.0183C118.82 73.6414 118.303 73.1085 117.926 72.4193C117.55 71.7195 117.361 70.9119 117.361 69.9967C117.361 69.0814 117.544 68.2793 117.91 67.5901C118.276 66.901 118.788 66.3734 119.445 66.0073C120.112 65.6305 120.877 65.442 121.738 65.442C122.578 65.442 123.321 65.6251 123.967 65.9912C124.613 66.3573 125.108 66.8633 125.453 67.5094C125.808 68.1447 125.986 68.8661 125.986 69.6736ZM124.468 69.3668C124.468 68.8069 124.344 68.3277 124.096 67.9293C123.848 67.5202 123.509 67.2133 123.079 67.0087C122.659 66.7933 122.19 66.6857 121.673 66.6857C120.93 66.6857 120.295 66.9226 119.768 67.3963C119.251 67.8701 118.955 68.5269 118.879 69.3668H124.468ZM132.238 65.4259C133.315 65.4259 134.187 65.7543 134.855 66.4111C135.522 67.0572 135.856 67.9939 135.856 69.2214V74.4382H134.402V69.4314C134.402 68.5484 134.182 67.8755 133.74 67.4125C133.299 66.9387 132.696 66.7018 131.931 66.7018C131.156 66.7018 130.537 66.9441 130.074 67.4286C129.622 67.9132 129.396 68.6184 129.396 69.5444V74.4382H127.926V65.5874H129.396V66.8472C129.686 66.395 130.079 66.045 130.575 65.7974C131.081 65.5497 131.635 65.4259 132.238 65.4259ZM140.05 66.7987V72.0156C140.05 72.4463 140.141 72.7531 140.324 72.9362C140.507 73.1085 140.825 73.1946 141.277 73.1946H142.359V74.4382H141.035C140.217 74.4382 139.603 74.2498 139.194 73.8729C138.784 73.4961 138.58 72.877 138.58 72.0156V66.7987H137.433V65.5874H138.58V63.3585H140.05V65.5874H142.359V66.7987H140.05ZM150.287 76.1503H148.817V61.5981H150.287V76.1503ZM162.459 63.617L163.04 64.6668L160.795 65.6035L163.057 66.5242L162.443 67.6063L160.489 66.185L160.747 68.6238H159.536L159.778 66.185L157.824 67.6224L157.194 66.5242L159.439 65.5874L157.194 64.6829L157.791 63.6008L159.794 65.0383L159.536 62.5833H160.763L160.489 65.0383L162.459 63.617ZM170.314 63.617L170.895 64.6668L168.65 65.6035L170.911 66.5242L170.298 67.6063L168.343 66.185L168.602 68.6238H167.39L167.633 66.185L165.678 67.6224L165.049 66.5242L167.294 65.5874L165.049 64.6829L165.646 63.6008L167.649 65.0383L167.39 62.5833H168.618L168.343 65.0383L170.314 63.617ZM172.742 73.2592C174.109 72.1609 175.181 71.2618 175.956 70.562C176.731 69.8513 177.383 69.1137 177.91 68.3492C178.449 67.574 178.718 66.8149 178.718 66.0719C178.718 65.372 178.545 64.8229 178.201 64.4245C177.867 64.0153 177.323 63.8108 176.57 63.8108C175.837 63.8108 175.267 64.0423 174.858 64.5053C174.459 64.9575 174.244 65.5659 174.212 66.3303H172.79C172.833 65.1244 173.199 64.193 173.889 63.5362C174.578 62.8794 175.466 62.551 176.553 62.551C177.662 62.551 178.54 62.8578 179.186 63.4716C179.843 64.0853 180.171 64.9306 180.171 66.0073C180.171 66.901 179.902 67.7732 179.364 68.6238C178.836 69.4637 178.233 70.2066 177.555 70.8527C176.876 71.488 176.01 72.2309 174.954 73.0815H180.51V74.309H172.742V73.2592ZM184.341 68.3654C183.738 68.1285 183.275 67.784 182.952 67.3317C182.629 66.8795 182.468 66.3303 182.468 65.6843C182.468 65.1029 182.613 64.5806 182.904 64.1176C183.195 63.6439 183.625 63.2724 184.196 63.0032C184.778 62.7233 185.477 62.5833 186.296 62.5833C187.114 62.5833 187.809 62.7233 188.379 63.0032C188.961 63.2724 189.397 63.6439 189.687 64.1176C189.989 64.5806 190.14 65.1029 190.14 65.6843C190.14 66.3088 189.973 66.858 189.639 67.3317C189.305 67.7947 188.848 68.1393 188.266 68.3654C188.934 68.57 189.461 68.9307 189.849 69.4475C190.247 69.9536 190.447 70.5673 190.447 71.2888C190.447 71.9886 190.274 72.6024 189.93 73.13C189.585 73.6468 189.095 74.0506 188.46 74.3413C187.835 74.6213 187.114 74.7613 186.296 74.7613C185.477 74.7613 184.756 74.6213 184.131 74.3413C183.518 74.0506 183.039 73.6468 182.694 73.13C182.349 72.6024 182.177 71.9886 182.177 71.2888C182.177 70.5673 182.371 69.9482 182.759 69.4314C183.146 68.9145 183.674 68.5592 184.341 68.3654ZM188.718 65.862C188.718 65.2052 188.503 64.6991 188.072 64.3438C187.642 63.9884 187.049 63.8108 186.296 63.8108C185.553 63.8108 184.966 63.9884 184.535 64.3438C184.105 64.6991 183.889 65.2105 183.889 65.8781C183.889 66.4811 184.11 66.9656 184.551 67.3317C185.004 67.6978 185.585 67.8809 186.296 67.8809C187.017 67.8809 187.599 67.6978 188.04 67.3317C188.492 66.9549 188.718 66.4649 188.718 65.862ZM186.296 69.0114C185.499 69.0114 184.848 69.1999 184.341 69.5767C183.835 69.9428 183.582 70.4973 183.582 71.2403C183.582 71.9294 183.825 72.4839 184.309 72.9039C184.804 73.3238 185.467 73.5338 186.296 73.5338C187.125 73.5338 187.782 73.3238 188.266 72.9039C188.751 72.4839 188.993 71.9294 188.993 71.2403C188.993 70.5189 188.745 69.9697 188.25 69.5929C187.755 69.2053 187.103 69.0114 186.296 69.0114ZM192.366 65.7005C192.442 64.7098 192.824 63.9346 193.513 63.3747C194.202 62.8148 195.096 62.5348 196.194 62.5348C196.926 62.5348 197.556 62.6694 198.084 62.9386C198.622 63.197 199.026 63.5523 199.295 64.0046C199.575 64.4568 199.715 64.9683 199.715 65.5389C199.715 66.2065 199.521 66.7826 199.134 67.2671C198.757 67.7517 198.261 68.0639 197.648 68.2039V68.2846C198.348 68.4569 198.902 68.7961 199.311 69.3022C199.72 69.8082 199.925 70.4704 199.925 71.2888C199.925 71.9025 199.785 72.457 199.505 72.9523C199.225 73.4369 198.805 73.8191 198.245 74.0991C197.685 74.379 197.012 74.519 196.226 74.519C195.085 74.519 194.148 74.2229 193.416 73.6307C192.684 73.0277 192.275 72.1771 192.189 71.0788H193.61C193.685 71.7248 193.949 72.2524 194.401 72.6616C194.854 73.0708 195.457 73.2753 196.21 73.2753C196.964 73.2753 197.535 73.0815 197.922 72.6939C198.321 72.2955 198.52 71.7841 198.52 71.1595C198.52 70.352 198.251 69.7705 197.712 69.4152C197.174 69.0599 196.361 68.8822 195.274 68.8822H194.902V67.6547H195.29C196.28 67.644 197.029 67.4825 197.535 67.1702C198.041 66.8472 198.294 66.3519 198.294 65.6843C198.294 65.1136 198.105 64.656 197.729 64.3115C197.362 63.9669 196.835 63.7946 196.146 63.7946C195.478 63.7946 194.94 63.9669 194.531 64.3115C194.121 64.656 193.879 65.119 193.804 65.7005H192.366ZM201.732 73.2592C203.099 72.1609 204.171 71.2618 204.946 70.562C205.721 69.8513 206.373 69.1137 206.9 68.3492C207.439 67.574 207.708 66.8149 207.708 66.0719C207.708 65.372 207.535 64.8229 207.191 64.4245C206.857 64.0153 206.313 63.8108 205.56 63.8108C204.827 63.8108 204.257 64.0423 203.848 64.5053C203.449 64.9575 203.234 65.5659 203.202 66.3303H201.78C201.823 65.1244 202.189 64.193 202.879 63.5362C203.568 62.8794 204.456 62.551 205.544 62.551C206.653 62.551 207.53 62.8578 208.176 63.4716C208.833 64.0853 209.161 64.9306 209.161 66.0073C209.161 66.901 208.892 67.7732 208.354 68.6238C207.826 69.4637 207.223 70.2066 206.545 70.8527C205.867 71.488 205 72.2309 203.945 73.0815H209.501V74.309H201.732V73.2592Z" fill="white"/>
</g>
<defs>
<linearGradient id="paint0_linear_1_15" x1="0.610347" y1="93.549" x2="455.938" y2="-56.9237" gradientUnits="userSpaceOnUse">
<stop stop-color="#DBDBDB" stop-opacity="0.28"/>
<stop offset="1" stop-color="#999999" stop-opacity="0.3"/>
</linearGradient>
<clipPath id="clip0_1_15">
<rect width="476" height="96" fill="white"/>
</clipPath>
</defs>
</svg>
