<svg width="436" height="408" viewBox="0 0 436 408" fill="none" xmlns="http://www.w3.org/2000/svg">
<g clip-path="url(#clip0_201_902)">
<rect x="38.2789" y="141.544" width="359.442" height="185.971" rx="6.18976" fill="white" fill-opacity="0.2"/>
<rect x="38.2789" y="141.544" width="359.442" height="185.971" rx="6.18976" stroke="url(#paint0_linear_201_902)" stroke-width="0.825301"/>
<rect x="26.6131" y="87.064" width="382.774" height="204.687" rx="6.81268" fill="white" fill-opacity="0.05"/>
<rect x="26.6131" y="87.064" width="382.774" height="204.687" rx="6.81268" stroke="url(#paint1_linear_201_902)" stroke-width="0.908357"/>
<rect x="14.9253" y="47.1448" width="406.149" height="204.821" rx="7.10489" fill="white" fill-opacity="0.05"/>
<rect x="14.9253" y="47.1448" width="406.149" height="204.821" rx="7.10489" stroke="url(#paint2_linear_201_902)" stroke-width="0.947319"/>
<rect x="3.24653" y="23.5021" width="429.507" height="193.116" rx="7.53211" fill="white" fill-opacity="0.15"/>
<rect x="3.24653" y="23.5021" width="429.507" height="193.116" rx="7.53211" stroke="url(#paint3_linear_201_902)" stroke-width="1.00428"/>
<path d="M38.3795 70.6856C40.4915 74.2765 42.6218 77.8569 44.711 81.4614C41.3342 87.3567 38.0062 93.2808 34.5151 99.1113C33.1757 101.349 31.8728 103.609 30.5486 105.854C26.2545 105.88 21.9604 105.878 17.6663 105.872C17.7973 105.581 17.9268 105.289 18.0853 105.011C24.8465 93.5673 31.6336 82.1385 38.3795 70.6856Z" fill="#AE285D"/>
<path d="M38.3806 92.5779C42.69 92.5764 46.9993 92.5463 51.3087 92.6172C53.8748 97.0451 56.5232 101.425 59.0664 105.865C54.7571 105.886 50.4492 105.869 46.1399 105.866C43.5753 101.423 40.8964 97.0481 38.3806 92.5779Z" fill="#AE285D"/>
<path d="M83.1756 68.2061L78.7549 76.729V81.2808H76.1325V76.729L71.6931 68.2061H74.6527L77.4625 74.1815L80.2535 68.2061H83.1756ZM89.296 81.4494C88.297 81.4494 87.3979 81.2309 86.5987 80.7938C85.7995 80.3443 85.1688 79.7136 84.7068 78.9019C84.2572 78.0902 84.0324 77.1536 84.0324 76.0922C84.0324 75.0307 84.2635 74.0941 84.7255 73.2824C85.2 72.4707 85.8432 71.8463 86.6549 71.4093C87.4666 70.9597 88.3719 70.7349 89.371 70.7349C90.37 70.7349 91.2753 70.9597 92.087 71.4093C92.8988 71.8463 93.5356 72.4707 93.9977 73.2824C94.4722 74.0941 94.7095 75.0307 94.7095 76.0922C94.7095 77.1536 94.466 78.0902 93.9789 78.9019C93.5044 79.7136 92.855 80.3443 92.0309 80.7938C91.2191 81.2309 90.3075 81.4494 89.296 81.4494ZM89.296 79.1642C89.7706 79.1642 90.2139 79.0518 90.626 78.827C91.0506 78.5897 91.3877 78.2401 91.6375 77.778C91.8872 77.316 92.0121 76.754 92.0121 76.0922C92.0121 75.1056 91.7499 74.3501 91.2254 73.8256C90.7134 73.2887 90.0828 73.0202 89.3335 73.0202C88.5842 73.0202 87.9536 73.2887 87.4416 73.8256C86.9421 74.3501 86.6923 75.1056 86.6923 76.0922C86.6923 77.0787 86.9358 77.8405 87.4229 78.3774C87.9224 78.9019 88.5468 79.1642 89.296 79.1642ZM106.43 70.9035V81.2808H103.789V79.9696C103.451 80.4192 103.008 80.7751 102.459 81.0373C101.922 81.2871 101.335 81.412 100.698 81.412C99.8862 81.412 99.1681 81.2434 98.5438 80.9062C97.9194 80.5565 97.4261 80.0508 97.064 79.3889C96.7143 78.7146 96.5395 77.9154 96.5395 76.9913V70.9035H99.1619V76.6167C99.1619 77.4408 99.368 78.0777 99.7801 78.5273C100.192 78.9644 100.754 79.1829 101.466 79.1829C102.19 79.1829 102.758 78.9644 103.17 78.5273C103.583 78.0777 103.789 77.4408 103.789 76.6167V70.9035H106.43ZM110.666 66.333L110.441 70.3041H108.661L108.418 66.333H110.666ZM117.003 78.8645L119.625 70.9035H122.416L118.576 81.2808H115.392L111.571 70.9035H114.38L117.003 78.8645ZM133.536 75.8674C133.536 76.242 133.511 76.5792 133.461 76.8789H125.875C125.937 77.6282 126.199 78.2151 126.661 78.6397C127.123 79.0643 127.692 79.2766 128.366 79.2766C129.34 79.2766 130.033 78.8582 130.445 78.0215H133.274C132.974 79.0206 132.4 79.8447 131.55 80.4941C130.701 81.131 129.658 81.4494 128.422 81.4494C127.423 81.4494 126.524 81.2309 125.725 80.7938C124.938 80.3443 124.32 79.7136 123.87 78.9019C123.433 78.0902 123.215 77.1536 123.215 76.0922C123.215 75.0182 123.433 74.0754 123.87 73.2637C124.307 72.452 124.919 71.8276 125.706 71.3905C126.493 70.9535 127.398 70.7349 128.422 70.7349C129.409 70.7349 130.289 70.9472 131.063 71.3718C131.85 71.7964 132.456 72.402 132.88 73.1888C133.317 73.963 133.536 74.8559 133.536 75.8674ZM130.82 75.1181C130.807 74.4438 130.564 73.9068 130.089 73.5072C129.615 73.0951 129.034 72.8891 128.347 72.8891C127.698 72.8891 127.148 73.0889 126.699 73.4885C126.262 73.8756 125.993 74.4188 125.893 75.1181H130.82ZM142.536 72.5144C142.873 71.965 143.31 71.5341 143.847 71.2219C144.397 70.9097 145.021 70.7536 145.72 70.7536V73.5072H145.027C144.203 73.5072 143.579 73.7008 143.154 74.0879C142.742 74.475 142.536 75.1493 142.536 76.1109V81.2808H139.913V70.9035H142.536V72.5144ZM157.133 75.8674C157.133 76.242 157.108 76.5792 157.059 76.8789H149.472C149.535 77.6282 149.797 78.2151 150.259 78.6397C150.721 79.0643 151.289 79.2766 151.964 79.2766C152.938 79.2766 153.631 78.8582 154.043 78.0215H156.871C156.571 79.0206 155.997 79.8447 155.148 80.4941C154.299 81.131 153.256 81.4494 152.02 81.4494C151.021 81.4494 150.122 81.2309 149.322 80.7938C148.536 80.3443 147.917 79.7136 147.468 78.9019C147.031 78.0902 146.812 77.1536 146.812 76.0922C146.812 75.0182 147.031 74.0754 147.468 73.2637C147.905 72.452 148.517 71.8276 149.304 71.3905C150.09 70.9535 150.996 70.7349 152.02 70.7349C153.006 70.7349 153.887 70.9472 154.661 71.3718C155.448 71.7964 156.053 72.402 156.478 73.1888C156.915 73.963 157.133 74.8559 157.133 75.8674ZM154.417 75.1181C154.405 74.4438 154.161 73.9068 153.687 73.5072C153.212 73.0951 152.632 72.8891 151.945 72.8891C151.295 72.8891 150.746 73.0889 150.296 73.4885C149.859 73.8756 149.591 74.4188 149.491 75.1181H154.417ZM158.373 76.0922C158.373 75.0182 158.592 74.0816 159.029 73.2824C159.466 72.4707 160.072 71.8463 160.846 71.4093C161.62 70.9597 162.507 70.7349 163.506 70.7349C164.792 70.7349 165.853 71.0596 166.69 71.709C167.539 72.3458 168.107 73.245 168.395 74.4063H165.566C165.416 73.9568 165.16 73.6071 164.798 73.3573C164.449 73.0951 164.011 72.964 163.487 72.964C162.738 72.964 162.145 73.2387 161.707 73.7882C161.27 74.3252 161.052 75.0931 161.052 76.0922C161.052 77.0787 161.27 77.8467 161.707 78.3962C162.145 78.9331 162.738 79.2016 163.487 79.2016C164.548 79.2016 165.242 78.7271 165.566 77.778H168.395C168.107 78.9019 167.539 79.7948 166.69 80.4566C165.841 81.1185 164.779 81.4494 163.506 81.4494C162.507 81.4494 161.62 81.2309 160.846 80.7938C160.072 80.3443 159.466 79.7199 159.029 78.9206C158.592 78.1089 158.373 77.1661 158.373 76.0922ZM179.963 75.8674C179.963 76.242 179.938 76.5792 179.888 76.8789H172.301C172.364 77.6282 172.626 78.2151 173.088 78.6397C173.55 79.0643 174.118 79.2766 174.793 79.2766C175.767 79.2766 176.46 78.8582 176.872 78.0215H179.7C179.401 79.0206 178.826 79.8447 177.977 80.4941C177.128 81.131 176.085 81.4494 174.849 81.4494C173.85 81.4494 172.951 81.2309 172.152 80.7938C171.365 80.3443 170.747 79.7136 170.297 78.9019C169.86 78.0902 169.641 77.1536 169.641 76.0922C169.641 75.0182 169.86 74.0754 170.297 73.2637C170.734 72.452 171.346 71.8276 172.133 71.3905C172.92 70.9535 173.825 70.7349 174.849 70.7349C175.835 70.7349 176.716 70.9472 177.49 71.3718C178.277 71.7964 178.882 72.402 179.307 73.1888C179.744 73.963 179.963 74.8559 179.963 75.8674ZM177.247 75.1181C177.234 74.4438 176.991 73.9068 176.516 73.5072C176.041 73.0951 175.461 72.8891 174.774 72.8891C174.125 72.8891 173.575 73.0889 173.126 73.4885C172.689 73.8756 172.42 74.4188 172.32 75.1181H177.247ZM183.207 69.6672C182.745 69.6672 182.358 69.5236 182.045 69.2364C181.746 68.9367 181.596 68.5683 181.596 68.1312C181.596 67.6941 181.746 67.332 182.045 67.0448C182.358 66.7451 182.745 66.5952 183.207 66.5952C183.669 66.5952 184.05 66.7451 184.349 67.0448C184.662 67.332 184.818 67.6941 184.818 68.1312C184.818 68.5683 184.662 68.9367 184.349 69.2364C184.05 69.5236 183.669 69.6672 183.207 69.6672ZM184.499 70.9035V81.2808H181.877V70.9035H184.499ZM191.417 78.8645L194.04 70.9035H196.831L192.991 81.2808H189.806L185.985 70.9035H188.795L191.417 78.8645ZM207.95 75.8674C207.95 76.242 207.925 76.5792 207.875 76.8789H200.289C200.352 77.6282 200.614 78.2151 201.076 78.6397C201.538 79.0643 202.106 79.2766 202.78 79.2766C203.754 79.2766 204.448 78.8582 204.86 78.0215H207.688C207.388 79.0206 206.814 79.8447 205.965 80.4941C205.116 81.131 204.073 81.4494 202.837 81.4494C201.838 81.4494 200.938 81.2309 200.139 80.7938C199.353 80.3443 198.734 79.7136 198.285 78.9019C197.848 78.0902 197.629 77.1536 197.629 76.0922C197.629 75.0182 197.848 74.0754 198.285 73.2637C198.722 72.452 199.334 71.8276 200.121 71.3905C200.907 70.9535 201.813 70.7349 202.837 70.7349C203.823 70.7349 204.704 70.9472 205.478 71.3718C206.265 71.7964 206.87 72.402 207.295 73.1888C207.732 73.963 207.95 74.8559 207.95 75.8674ZM205.234 75.1181C205.222 74.4438 204.978 73.9068 204.504 73.5072C204.029 73.0951 203.449 72.8891 202.762 72.8891C202.112 72.8891 201.563 73.0889 201.113 73.4885C200.676 73.8756 200.408 74.4188 200.308 75.1181H205.234ZM209.19 76.0547C209.19 75.0057 209.396 74.0754 209.808 73.2637C210.233 72.452 210.807 71.8276 211.532 71.3905C212.256 70.9535 213.061 70.7349 213.948 70.7349C214.622 70.7349 215.265 70.8848 215.877 71.1845C216.489 71.4717 216.976 71.8588 217.338 72.3458V67.4194H219.998V81.2808H217.338V79.7448C217.014 80.2568 216.558 80.6689 215.971 80.9811C215.384 81.2933 214.704 81.4494 213.929 81.4494C213.055 81.4494 212.256 81.2246 211.532 80.7751C210.807 80.3255 210.233 79.6949 209.808 78.8832C209.396 78.059 209.19 77.1162 209.19 76.0547ZM217.357 76.0922C217.357 75.4553 217.232 74.9121 216.983 74.4625C216.733 74.0005 216.396 73.6508 215.971 73.4135C215.546 73.1638 215.091 73.0389 214.604 73.0389C214.117 73.0389 213.667 73.1575 213.255 73.3948C212.843 73.6321 212.506 73.9817 212.243 74.4438C211.994 74.8933 211.869 75.4303 211.869 76.0547C211.869 76.6791 211.994 77.2286 212.243 77.7031C212.506 78.1651 212.843 78.521 213.255 78.7708C213.68 79.0206 214.129 79.1454 214.604 79.1454C215.091 79.1454 215.546 79.0268 215.971 78.7895C216.396 78.5398 216.733 78.1901 216.983 77.7406C217.232 77.2785 217.357 76.729 217.357 76.0922ZM232.774 70.7536C234.01 70.7536 235.009 71.147 235.771 71.9337C236.532 72.708 236.913 73.7944 236.913 75.1931V81.2808H234.291V75.549C234.291 74.7248 234.085 74.0941 233.673 73.6571C233.261 73.2075 232.699 72.9827 231.987 72.9827C231.263 72.9827 230.688 73.2075 230.264 73.6571C229.851 74.0941 229.645 74.7248 229.645 75.549V81.2808H227.023V70.9035H229.645V72.196C229.995 71.7464 230.438 71.3968 230.975 71.147C231.525 70.8848 232.124 70.7536 232.774 70.7536ZM249.054 75.8674C249.054 76.242 249.029 76.5792 248.979 76.8789H241.393C241.455 77.6282 241.717 78.2151 242.179 78.6397C242.641 79.0643 243.21 79.2766 243.884 79.2766C244.858 79.2766 245.551 78.8582 245.963 78.0215H248.792C248.492 79.0206 247.918 79.8447 247.068 80.4941C246.219 81.131 245.176 81.4494 243.94 81.4494C242.941 81.4494 242.042 81.2309 241.243 80.7938C240.456 80.3443 239.838 79.7136 239.388 78.9019C238.951 78.0902 238.733 77.1536 238.733 76.0922C238.733 75.0182 238.951 74.0754 239.388 73.2637C239.825 72.452 240.437 71.8276 241.224 71.3905C242.011 70.9535 242.916 70.7349 243.94 70.7349C244.927 70.7349 245.807 70.9472 246.581 71.3718C247.368 71.7964 247.974 72.402 248.398 73.1888C248.835 73.963 249.054 74.8559 249.054 75.8674ZM246.338 75.1181C246.325 74.4438 246.082 73.9068 245.607 73.5072C245.133 73.0951 244.552 72.8891 243.865 72.8891C243.216 72.8891 242.666 73.0889 242.217 73.4885C241.78 73.8756 241.511 74.4188 241.411 75.1181H246.338ZM265.354 70.9035L262.319 81.2808H259.491L257.599 74.0317L255.707 81.2808H252.86L249.807 70.9035H252.467L254.302 78.8083L256.288 70.9035H259.06L261.008 78.7895L262.844 70.9035H265.354ZM270.562 76.0922C270.562 75.0182 270.78 74.0816 271.218 73.2824C271.655 72.4707 272.26 71.8463 273.035 71.4093C273.809 70.9597 274.695 70.7349 275.694 70.7349C276.981 70.7349 278.042 71.0596 278.879 71.709C279.728 72.3458 280.296 73.245 280.583 74.4063H277.755C277.605 73.9568 277.349 73.6071 276.987 73.3573C276.637 73.0951 276.2 72.964 275.676 72.964C274.926 72.964 274.333 73.2387 273.896 73.7882C273.459 74.3252 273.241 75.0931 273.241 76.0922C273.241 77.0787 273.459 77.8467 273.896 78.3962C274.333 78.9331 274.926 79.2016 275.676 79.2016C276.737 79.2016 277.43 78.7271 277.755 77.778H280.583C280.296 78.9019 279.728 79.7948 278.879 80.4566C278.03 81.1185 276.968 81.4494 275.694 81.4494C274.695 81.4494 273.809 81.2309 273.035 80.7938C272.26 80.3443 271.655 79.7199 271.218 78.9206C270.78 78.1089 270.562 77.1661 270.562 76.0922ZM287.113 81.4494C286.113 81.4494 285.214 81.2309 284.415 80.7938C283.616 80.3443 282.985 79.7136 282.523 78.9019C282.074 78.0902 281.849 77.1536 281.849 76.0922C281.849 75.0307 282.08 74.0941 282.542 73.2824C283.017 72.4707 283.66 71.8463 284.471 71.4093C285.283 70.9597 286.188 70.7349 287.187 70.7349C288.186 70.7349 289.092 70.9597 289.904 71.4093C290.715 71.8463 291.352 72.4707 291.814 73.2824C292.289 74.0941 292.526 75.0307 292.526 76.0922C292.526 77.1536 292.282 78.0902 291.795 78.9019C291.321 79.7136 290.672 80.3443 289.847 80.7938C289.036 81.2309 288.124 81.4494 287.113 81.4494ZM287.113 79.1642C287.587 79.1642 288.03 79.0518 288.442 78.827C288.867 78.5897 289.204 78.2401 289.454 77.778C289.704 77.316 289.829 76.754 289.829 76.0922C289.829 75.1056 289.566 74.3501 289.042 73.8256C288.53 73.2887 287.899 73.0202 287.15 73.0202C286.401 73.0202 285.77 73.2887 285.258 73.8256C284.759 74.3501 284.509 75.1056 284.509 76.0922C284.509 77.0787 284.752 77.8405 285.239 78.3774C285.739 78.9019 286.363 79.1642 287.113 79.1642ZM300.2 70.7536C301.437 70.7536 302.436 71.147 303.197 71.9337C303.959 72.708 304.34 73.7944 304.34 75.1931V81.2808H301.717V75.549C301.717 74.7248 301.511 74.0941 301.099 73.6571C300.687 73.2075 300.125 72.9827 299.414 72.9827C298.689 72.9827 298.115 73.2075 297.69 73.6571C297.278 74.0941 297.072 74.7248 297.072 75.549V81.2808H294.45V70.9035H297.072V72.196C297.422 71.7464 297.865 71.3968 298.402 71.147C298.951 70.8848 299.551 70.7536 300.2 70.7536ZM310.805 81.4494C309.956 81.4494 309.194 81.2996 308.52 80.9999C307.845 80.6877 307.308 80.2693 306.909 79.7448C306.522 79.2204 306.309 78.6397 306.272 78.0028H308.913C308.963 78.4024 309.156 78.7333 309.494 78.9956C309.843 79.2578 310.274 79.3889 310.786 79.3889C311.286 79.3889 311.673 79.289 311.947 79.0892C312.235 78.8894 312.378 78.6334 312.378 78.3212C312.378 77.9841 312.203 77.7343 311.854 77.572C311.517 77.3971 310.973 77.2098 310.224 77.01C309.45 76.8227 308.813 76.6291 308.314 76.4293C307.827 76.2295 307.402 75.9236 307.04 75.5115C306.69 75.0994 306.515 74.5437 306.515 73.8444C306.515 73.2699 306.678 72.7454 307.002 72.2709C307.339 71.7964 307.814 71.4217 308.426 71.147C309.05 70.8723 309.781 70.7349 310.618 70.7349C311.854 70.7349 312.84 71.0471 313.577 71.6715C314.314 72.2834 314.72 73.1138 314.795 74.1628H312.285C312.247 73.7507 312.072 73.426 311.76 73.1888C311.46 72.939 311.055 72.8141 310.543 72.8141C310.068 72.8141 309.7 72.9015 309.437 73.0764C309.188 73.2512 309.063 73.4947 309.063 73.8069C309.063 74.1566 309.238 74.4251 309.587 74.6124C309.937 74.7872 310.48 74.9683 311.217 75.1556C311.966 75.3429 312.584 75.5365 313.071 75.7363C313.558 75.9361 313.977 76.2483 314.326 76.6729C314.689 77.0849 314.876 77.6344 314.888 78.3212C314.888 78.9206 314.72 79.4576 314.383 79.9322C314.058 80.4067 313.583 80.7813 312.959 81.0561C312.347 81.3183 311.629 81.4494 310.805 81.4494ZM326.688 75.8674C326.688 76.242 326.663 76.5792 326.613 76.8789H319.027C319.089 77.6282 319.351 78.2151 319.813 78.6397C320.275 79.0643 320.844 79.2766 321.518 79.2766C322.492 79.2766 323.185 78.8582 323.597 78.0215H326.426C326.126 79.0206 325.551 79.8447 324.702 80.4941C323.853 81.131 322.81 81.4494 321.574 81.4494C320.575 81.4494 319.676 81.2309 318.877 80.7938C318.09 80.3443 317.472 79.7136 317.022 78.9019C316.585 78.0902 316.367 77.1536 316.367 76.0922C316.367 75.0182 316.585 74.0754 317.022 73.2637C317.459 72.452 318.071 71.8276 318.858 71.3905C319.645 70.9535 320.55 70.7349 321.574 70.7349C322.561 70.7349 323.441 70.9472 324.215 71.3718C325.002 71.7964 325.608 72.402 326.032 73.1888C326.469 73.963 326.688 74.8559 326.688 75.8674ZM323.972 75.1181C323.959 74.4438 323.716 73.9068 323.241 73.5072C322.767 73.0951 322.186 72.8891 321.499 72.8891C320.85 72.8891 320.3 73.0889 319.851 73.4885C319.414 73.8756 319.145 74.4188 319.045 75.1181H323.972ZM334.353 70.7536C335.589 70.7536 336.588 71.147 337.35 71.9337C338.111 72.708 338.492 73.7944 338.492 75.1931V81.2808H335.87V75.549C335.87 74.7248 335.664 74.0941 335.252 73.6571C334.84 73.2075 334.278 72.9827 333.566 72.9827C332.842 72.9827 332.267 73.2075 331.843 73.6571C331.43 74.0941 331.224 74.7248 331.224 75.549V81.2808H328.602V70.9035H331.224V72.196C331.574 71.7464 332.017 71.3968 332.554 71.147C333.104 70.8848 333.703 70.7536 334.353 70.7536ZM344.039 73.0576V78.0777C344.039 78.4274 344.12 78.6834 344.283 78.8457C344.458 78.9956 344.745 79.0705 345.144 79.0705H346.362V81.2808H344.714C342.503 81.2808 341.398 80.2069 341.398 78.059V73.0576H340.162V70.9035H341.398V68.3373H344.039V70.9035H346.362V73.0576H344.039ZM357.469 73.0576H355.653V81.2808H352.993V73.0576H351.813V70.9035H352.993V70.379C352.993 69.1053 353.355 68.1687 354.079 67.5693C354.803 66.9699 355.896 66.6889 357.357 66.7263V68.9367C356.72 68.9242 356.277 69.0303 356.027 69.2551C355.777 69.4799 355.653 69.8857 355.653 70.4727V70.9035H357.469V73.0576ZM361.791 72.5144C362.129 71.965 362.566 71.5341 363.103 71.2219C363.652 70.9097 364.276 70.7536 364.976 70.7536V73.5072H364.283C363.458 73.5072 362.834 73.7008 362.409 74.0879C361.997 74.475 361.791 75.1493 361.791 76.1109V81.2808H359.169V70.9035H361.791V72.5144ZM371.35 81.4494C370.351 81.4494 369.452 81.2309 368.653 80.7938C367.853 80.3443 367.223 79.7136 366.761 78.9019C366.311 78.0902 366.086 77.1536 366.086 76.0922C366.086 75.0307 366.317 74.0941 366.78 73.2824C367.254 72.4707 367.897 71.8463 368.709 71.4093C369.521 70.9597 370.426 70.7349 371.425 70.7349C372.424 70.7349 373.329 70.9597 374.141 71.4093C374.953 71.8463 375.59 72.4707 376.052 73.2824C376.526 74.0941 376.764 75.0307 376.764 76.0922C376.764 77.1536 376.52 78.0902 376.033 78.9019C375.558 79.7136 374.909 80.3443 374.085 80.7938C373.273 81.2309 372.362 81.4494 371.35 81.4494ZM371.35 79.1642C371.825 79.1642 372.268 79.0518 372.68 78.827C373.105 78.5897 373.442 78.2401 373.692 77.778C373.941 77.316 374.066 76.754 374.066 76.0922C374.066 75.1056 373.804 74.3501 373.279 73.8256C372.767 73.2887 372.137 73.0202 371.388 73.0202C370.638 73.0202 370.008 73.2887 369.496 73.8256C368.996 74.3501 368.746 75.1056 368.746 76.0922C368.746 77.0787 368.99 77.8405 369.477 78.3774C369.976 78.9019 370.601 79.1642 371.35 79.1642ZM391.575 70.7536C392.848 70.7536 393.872 71.147 394.647 71.9337C395.433 72.708 395.827 73.7944 395.827 75.1931V81.2808H393.204V75.549C393.204 74.7372 392.998 74.1191 392.586 73.6945C392.174 73.2574 391.612 73.0389 390.9 73.0389C390.188 73.0389 389.62 73.2574 389.196 73.6945C388.784 74.1191 388.577 74.7372 388.577 75.549V81.2808H385.955V75.549C385.955 74.7372 385.749 74.1191 385.337 73.6945C384.925 73.2574 384.363 73.0389 383.651 73.0389C382.927 73.0389 382.352 73.2574 381.928 73.6945C381.516 74.1191 381.31 74.7372 381.31 75.549V81.2808H378.687V70.9035H381.31V72.1585C381.647 71.7215 382.078 71.378 382.602 71.1283C383.139 70.8785 383.726 70.7536 384.363 70.7536C385.175 70.7536 385.899 70.9285 386.536 71.2781C387.173 71.6153 387.666 72.1023 388.016 72.7392C388.353 72.1398 388.84 71.659 389.477 71.2969C390.126 70.9347 390.825 70.7536 391.575 70.7536ZM80.7967 106.79H75.5893L74.7276 109.281H71.9741L76.6757 96.1874H79.729L84.4306 109.281H81.6583L80.7967 106.79ZM80.0849 104.692L78.193 99.2219L76.3011 104.692H80.0849ZM91.9199 109.281L89.7845 106.059L87.8926 109.281H85.0829L88.4733 104.073L85.0454 98.9035H88.005L90.1217 102.107L92.0323 98.9035H94.8421L91.4329 104.073L94.8795 109.281H91.9199ZM97.6338 97.6672C97.1718 97.6672 96.7846 97.5236 96.4724 97.2364C96.1727 96.9367 96.0229 96.5683 96.0229 96.1312C96.0229 95.6941 96.1727 95.332 96.4724 95.0448C96.7846 94.7451 97.1718 94.5952 97.6338 94.5952C98.0959 94.5952 98.4767 94.7451 98.7764 95.0448C99.0886 95.332 99.2447 95.6941 99.2447 96.1312C99.2447 96.5683 99.0886 96.9367 98.7764 97.2364C98.4767 97.5236 98.0959 97.6672 97.6338 97.6672ZM98.9263 98.9035V109.281H96.3039V98.9035H98.9263ZM105.488 109.449C104.639 109.449 103.877 109.3 103.203 109C102.529 108.688 101.992 108.269 101.592 107.745C101.205 107.22 100.993 106.64 100.955 106.003H103.596C103.646 106.402 103.84 106.733 104.177 106.996C104.527 107.258 104.958 107.389 105.47 107.389C105.969 107.389 106.356 107.289 106.631 107.089C106.918 106.889 107.062 106.633 107.062 106.321C107.062 105.984 106.887 105.734 106.537 105.572C106.2 105.397 105.657 105.21 104.908 105.01C104.133 104.823 103.497 104.629 102.997 104.429C102.51 104.23 102.085 103.924 101.723 103.511C101.374 103.099 101.199 102.544 101.199 101.844C101.199 101.27 101.361 100.745 101.686 100.271C102.023 99.7964 102.498 99.4217 103.109 99.147C103.734 98.8723 104.464 98.7349 105.301 98.7349C106.537 98.7349 107.524 99.0471 108.261 99.6715C108.997 100.283 109.403 101.114 109.478 102.163H106.968C106.931 101.751 106.756 101.426 106.444 101.189C106.144 100.939 105.738 100.814 105.226 100.814C104.752 100.814 104.383 100.902 104.121 101.076C103.871 101.251 103.746 101.495 103.746 101.807C103.746 102.157 103.921 102.425 104.271 102.612C104.62 102.787 105.164 102.968 105.9 103.156C106.65 103.343 107.268 103.536 107.755 103.736C108.242 103.936 108.66 104.248 109.01 104.673C109.372 105.085 109.559 105.634 109.572 106.321C109.572 106.921 109.403 107.458 109.066 107.932C108.741 108.407 108.267 108.781 107.643 109.056C107.031 109.318 106.313 109.449 105.488 109.449ZM118.81 100.421C119.148 99.9213 119.61 99.5154 120.197 99.2032C120.796 98.891 121.477 98.7349 122.238 98.7349C123.125 98.7349 123.924 98.9535 124.636 99.3905C125.36 99.8276 125.928 100.452 126.341 101.264C126.765 102.063 126.977 102.993 126.977 104.055C126.977 105.116 126.765 106.059 126.341 106.883C125.928 107.695 125.36 108.326 124.636 108.775C123.924 109.225 123.125 109.449 122.238 109.449C121.464 109.449 120.783 109.3 120.197 109C119.622 108.688 119.16 108.288 118.81 107.801V109.281H116.188V95.4194H118.81V100.421ZM124.299 104.055C124.299 103.43 124.168 102.893 123.905 102.444C123.656 101.982 123.318 101.632 122.894 101.395C122.482 101.158 122.032 101.039 121.545 101.039C121.071 101.039 120.621 101.164 120.197 101.414C119.784 101.651 119.447 102 119.185 102.463C118.935 102.925 118.81 103.468 118.81 104.092C118.81 104.717 118.935 105.26 119.185 105.722C119.447 106.184 119.784 106.54 120.197 106.79C120.621 107.027 121.071 107.145 121.545 107.145C122.032 107.145 122.482 107.021 122.894 106.771C123.318 106.521 123.656 106.165 123.905 105.703C124.168 105.241 124.299 104.692 124.299 104.055ZM128.209 104.055C128.209 103.006 128.415 102.075 128.827 101.264C129.251 100.452 129.82 99.8276 130.531 99.3905C131.256 98.9535 132.061 98.7349 132.948 98.7349C133.722 98.7349 134.396 98.891 134.971 99.2032C135.558 99.5154 136.026 99.9088 136.376 100.383V98.9035H139.017V109.281H136.376V107.764C136.039 108.251 135.57 108.656 134.971 108.981C134.384 109.293 133.703 109.449 132.929 109.449C132.055 109.449 131.256 109.225 130.531 108.775C129.82 108.326 129.251 107.695 128.827 106.883C128.415 106.059 128.209 105.116 128.209 104.055ZM136.376 104.092C136.376 103.455 136.251 102.912 136.001 102.463C135.751 102 135.414 101.651 134.99 101.414C134.565 101.164 134.109 101.039 133.622 101.039C133.135 101.039 132.686 101.158 132.273 101.395C131.861 101.632 131.524 101.982 131.262 102.444C131.012 102.893 130.887 103.43 130.887 104.055C130.887 104.679 131.012 105.229 131.262 105.703C131.524 106.165 131.861 106.521 132.273 106.771C132.698 107.021 133.148 107.145 133.622 107.145C134.109 107.145 134.565 107.027 134.99 106.79C135.414 106.54 135.751 106.19 136.001 105.741C136.251 105.279 136.376 104.729 136.376 104.092ZM147.329 98.7536C148.565 98.7536 149.564 99.147 150.326 99.9337C151.088 100.708 151.468 101.794 151.468 103.193V109.281H148.846V103.549C148.846 102.725 148.64 102.094 148.228 101.657C147.816 101.207 147.254 100.983 146.542 100.983C145.818 100.983 145.243 101.207 144.819 101.657C144.407 102.094 144.201 102.725 144.201 103.549V109.281H141.578V98.9035H144.201V100.196C144.55 99.7464 144.994 99.3968 145.53 99.147C146.08 98.8848 146.679 98.7536 147.329 98.7536ZM160.106 109.281L156.585 104.86V109.281H153.962V95.4194H156.585V103.305L160.069 98.9035H163.478L158.907 104.111L163.515 109.281H160.106Z" fill="white"/>
<rect x="17.6663" y="137.598" width="401.811" height="1.00428" fill="#EAECF0" fill-opacity="0.18"/>
<g clip-path="url(#clip1_201_902)">
<path d="M27.7095 178.789C32.3317 178.789 36.0787 175.042 36.0787 170.42C36.0787 165.797 32.3317 162.05 27.7095 162.05C23.0873 162.05 19.3403 165.797 19.3403 170.42C19.3403 175.042 23.0873 178.789 27.7095 178.789Z" stroke="#EAECF0" stroke-width="2.0086" stroke-linecap="round" stroke-linejoin="round"/>
<path d="M36.0784 170.419H32.7307" stroke="#EAECF0" stroke-width="2.0086" stroke-linecap="round" stroke-linejoin="round"/>
<path d="M22.688 170.419H19.3403" stroke="#EAECF0" stroke-width="2.0086" stroke-linecap="round" stroke-linejoin="round"/>
<path d="M27.7092 165.398V162.05" stroke="#EAECF0" stroke-width="2.0086" stroke-linecap="round" stroke-linejoin="round"/>
<path d="M27.7092 178.789V175.441" stroke="#EAECF0" stroke-width="2.0086" stroke-linecap="round" stroke-linejoin="round"/>
</g>
<path d="M57.4495 164.799L54.1535 175.919H52.0895L49.7535 167.503L47.2735 175.919L45.2255 175.935L42.0735 164.799H44.0095L46.3135 173.855L48.8095 164.799H50.8575L53.1775 173.807L55.4975 164.799H57.4495ZM67.0339 171.295C67.0339 171.626 67.0126 171.925 66.9699 172.191H60.2339C60.2872 172.895 60.5486 173.461 61.0179 173.887C61.4872 174.314 62.0632 174.527 62.7459 174.527C63.7272 174.527 64.4206 174.117 64.8259 173.295H66.7939C66.5272 174.106 66.0419 174.773 65.3379 175.295C64.6446 175.807 63.7806 176.063 62.7459 176.063C61.9032 176.063 61.1459 175.877 60.4739 175.503C59.8126 175.119 59.2899 174.586 58.9059 173.903C58.5326 173.21 58.3459 172.41 58.3459 171.503C58.3459 170.597 58.5272 169.802 58.8899 169.119C59.2632 168.426 59.7806 167.893 60.4419 167.519C61.1139 167.146 61.8819 166.959 62.7459 166.959C63.5779 166.959 64.3192 167.141 64.9699 167.503C65.6206 167.866 66.1272 168.378 66.4899 169.039C66.8526 169.69 67.0339 170.442 67.0339 171.295ZM65.1299 170.719C65.1192 170.047 64.8792 169.509 64.4099 169.103C63.9406 168.698 63.3592 168.495 62.6659 168.495C62.0366 168.495 61.4979 168.698 61.0499 169.103C60.6019 169.498 60.3352 170.037 60.2499 170.719H65.1299ZM68.2209 171.471C68.2209 170.586 68.4022 169.802 68.7649 169.119C69.1382 168.437 69.6396 167.909 70.2689 167.535C70.9089 167.151 71.6129 166.959 72.3809 166.959C73.0742 166.959 73.6769 167.098 74.1889 167.375C74.7116 167.642 75.1276 167.978 75.4369 168.383V167.103H77.2769V175.919H75.4369V174.607C75.1276 175.023 74.7062 175.37 74.1729 175.647C73.6396 175.925 73.0316 176.063 72.3489 176.063C71.5916 176.063 70.8982 175.871 70.2689 175.487C69.6396 175.093 69.1382 174.549 68.7649 173.855C68.4022 173.151 68.2209 172.357 68.2209 171.471ZM75.4369 171.503C75.4369 170.895 75.3089 170.367 75.0529 169.919C74.8076 169.471 74.4822 169.13 74.0769 168.895C73.6716 168.661 73.2342 168.543 72.7649 168.543C72.2956 168.543 71.8582 168.661 71.4529 168.895C71.0476 169.119 70.7169 169.455 70.4609 169.903C70.2156 170.341 70.0929 170.863 70.0929 171.471C70.0929 172.079 70.2156 172.613 70.4609 173.071C70.7169 173.53 71.0476 173.882 71.4529 174.127C71.8689 174.362 72.3062 174.479 72.7649 174.479C73.2342 174.479 73.6716 174.362 74.0769 174.127C74.4822 173.893 74.8076 173.551 75.0529 173.103C75.3089 172.645 75.4369 172.111 75.4369 171.503ZM81.4967 164.079V175.919H79.6727V164.079H81.4967ZM86.0194 168.591V173.471C86.0194 173.802 86.0941 174.042 86.2434 174.191C86.4034 174.33 86.6701 174.399 87.0434 174.399H88.1634V175.919H86.7234C85.9021 175.919 85.2727 175.727 84.8354 175.343C84.3981 174.959 84.1794 174.335 84.1794 173.471V168.591H83.1394V167.103H84.1794V164.911H86.0194V167.103H88.1634V168.591H86.0194ZM94.4045 166.959C95.0765 166.959 95.6739 167.103 96.1965 167.391C96.7299 167.679 97.1459 168.106 97.4445 168.671C97.7539 169.237 97.9085 169.919 97.9085 170.719V175.919H96.1005V170.991C96.1005 170.202 95.9032 169.599 95.5085 169.183C95.1139 168.757 94.5752 168.543 93.8925 168.543C93.2099 168.543 92.6659 168.757 92.2605 169.183C91.8659 169.599 91.6685 170.202 91.6685 170.991V175.919H89.8445V164.079H91.6685V168.127C91.9779 167.754 92.3672 167.466 92.8365 167.263C93.3165 167.061 93.8392 166.959 94.4045 166.959ZM115.063 166.959C115.757 166.959 116.375 167.103 116.919 167.391C117.474 167.679 117.906 168.106 118.215 168.671C118.535 169.237 118.695 169.919 118.695 170.719V175.919H116.887V170.991C116.887 170.202 116.69 169.599 116.295 169.183C115.901 168.757 115.362 168.543 114.679 168.543C113.997 168.543 113.453 168.757 113.047 169.183C112.653 169.599 112.455 170.202 112.455 170.991V175.919H110.647V170.991C110.647 170.202 110.45 169.599 110.055 169.183C109.661 168.757 109.122 168.543 108.439 168.543C107.757 168.543 107.213 168.757 106.807 169.183C106.413 169.599 106.215 170.202 106.215 170.991V175.919H104.391V167.103H106.215V168.111C106.514 167.749 106.893 167.466 107.351 167.263C107.81 167.061 108.301 166.959 108.823 166.959C109.527 166.959 110.157 167.109 110.711 167.407C111.266 167.706 111.693 168.138 111.991 168.703C112.258 168.17 112.674 167.749 113.239 167.439C113.805 167.119 114.413 166.959 115.063 166.959ZM120.408 171.471C120.408 170.586 120.59 169.802 120.952 169.119C121.326 168.437 121.827 167.909 122.456 167.535C123.096 167.151 123.8 166.959 124.568 166.959C125.262 166.959 125.864 167.098 126.376 167.375C126.899 167.642 127.315 167.978 127.624 168.383V167.103H129.464V175.919H127.624V174.607C127.315 175.023 126.894 175.37 126.36 175.647C125.827 175.925 125.219 176.063 124.536 176.063C123.779 176.063 123.086 175.871 122.456 175.487C121.827 175.093 121.326 174.549 120.952 173.855C120.59 173.151 120.408 172.357 120.408 171.471ZM127.624 171.503C127.624 170.895 127.496 170.367 127.24 169.919C126.995 169.471 126.67 169.13 126.264 168.895C125.859 168.661 125.422 168.543 124.952 168.543C124.483 168.543 124.046 168.661 123.64 168.895C123.235 169.119 122.904 169.455 122.648 169.903C122.403 170.341 122.28 170.863 122.28 171.471C122.28 172.079 122.403 172.613 122.648 173.071C122.904 173.53 123.235 173.882 123.64 174.127C124.056 174.362 124.494 174.479 124.952 174.479C125.422 174.479 125.859 174.362 126.264 174.127C126.67 173.893 126.995 173.551 127.24 173.103C127.496 172.645 127.624 172.111 127.624 171.503ZM136.308 166.959C137.001 166.959 137.62 167.103 138.164 167.391C138.719 167.679 139.151 168.106 139.46 168.671C139.769 169.237 139.924 169.919 139.924 170.719V175.919H138.116V170.991C138.116 170.202 137.919 169.599 137.524 169.183C137.129 168.757 136.591 168.543 135.908 168.543C135.225 168.543 134.681 168.757 134.276 169.183C133.881 169.599 133.684 170.202 133.684 170.991V175.919H131.86V167.103H133.684V168.111C133.983 167.749 134.361 167.466 134.82 167.263C135.289 167.061 135.785 166.959 136.308 166.959ZM141.643 171.471C141.643 170.586 141.824 169.802 142.187 169.119C142.56 168.437 143.061 167.909 143.691 167.535C144.331 167.151 145.035 166.959 145.803 166.959C146.496 166.959 147.099 167.098 147.611 167.375C148.133 167.642 148.549 167.978 148.859 168.383V167.103H150.699V175.919H148.859V174.607C148.549 175.023 148.128 175.37 147.595 175.647C147.061 175.925 146.453 176.063 145.771 176.063C145.013 176.063 144.32 175.871 143.691 175.487C143.061 175.093 142.56 174.549 142.187 173.855C141.824 173.151 141.643 172.357 141.643 171.471ZM148.859 171.503C148.859 170.895 148.731 170.367 148.475 169.919C148.229 169.471 147.904 169.13 147.499 168.895C147.093 168.661 146.656 168.543 146.187 168.543C145.717 168.543 145.28 168.661 144.875 168.895C144.469 169.119 144.139 169.455 143.883 169.903C143.637 170.341 143.515 170.863 143.515 171.471C143.515 172.079 143.637 172.613 143.883 173.071C144.139 173.53 144.469 173.882 144.875 174.127C145.291 174.362 145.728 174.479 146.187 174.479C146.656 174.479 147.093 174.362 147.499 174.127C147.904 173.893 148.229 173.551 148.475 173.103C148.731 172.645 148.859 172.111 148.859 171.503ZM156.647 166.959C157.329 166.959 157.932 167.098 158.455 167.375C158.988 167.642 159.404 167.978 159.703 168.383V167.103H161.543V176.063C161.543 176.874 161.372 177.594 161.031 178.223C160.689 178.863 160.193 179.365 159.543 179.727C158.903 180.09 158.135 180.271 157.239 180.271C156.044 180.271 155.052 179.989 154.263 179.423C153.473 178.869 153.025 178.111 152.919 177.151H154.727C154.865 177.61 155.159 177.978 155.607 178.255C156.065 178.543 156.609 178.687 157.239 178.687C157.975 178.687 158.567 178.463 159.015 178.015C159.473 177.567 159.703 176.917 159.703 176.063V174.591C159.393 175.007 158.972 175.359 158.439 175.647C157.916 175.925 157.319 176.063 156.647 176.063C155.879 176.063 155.175 175.871 154.535 175.487C153.905 175.093 153.404 174.549 153.031 173.855C152.668 173.151 152.487 172.357 152.487 171.471C152.487 170.586 152.668 169.802 153.031 169.119C153.404 168.437 153.905 167.909 154.535 167.535C155.175 167.151 155.879 166.959 156.647 166.959ZM159.703 171.503C159.703 170.895 159.575 170.367 159.319 169.919C159.073 169.471 158.748 169.13 158.343 168.895C157.937 168.661 157.5 168.543 157.031 168.543C156.561 168.543 156.124 168.661 155.719 168.895C155.313 169.119 154.983 169.455 154.727 169.903C154.481 170.341 154.359 170.863 154.359 171.471C154.359 172.079 154.481 172.613 154.727 173.071C154.983 173.53 155.313 173.882 155.719 174.127C156.135 174.362 156.572 174.479 157.031 174.479C157.5 174.479 157.937 174.362 158.343 174.127C158.748 173.893 159.073 173.551 159.319 173.103C159.575 172.645 159.703 172.111 159.703 171.503ZM172.018 171.295C172.018 171.626 171.997 171.925 171.954 172.191H165.218C165.272 172.895 165.533 173.461 166.002 173.887C166.472 174.314 167.048 174.527 167.73 174.527C168.712 174.527 169.405 174.117 169.81 173.295H171.778C171.512 174.106 171.026 174.773 170.322 175.295C169.629 175.807 168.765 176.063 167.73 176.063C166.888 176.063 166.13 175.877 165.458 175.503C164.797 175.119 164.274 174.586 163.89 173.903C163.517 173.21 163.33 172.41 163.33 171.503C163.33 170.597 163.512 169.802 163.874 169.119C164.248 168.426 164.765 167.893 165.426 167.519C166.098 167.146 166.866 166.959 167.73 166.959C168.562 166.959 169.304 167.141 169.954 167.503C170.605 167.866 171.112 168.378 171.474 169.039C171.837 169.69 172.018 170.442 172.018 171.295ZM170.114 170.719C170.104 170.047 169.864 169.509 169.394 169.103C168.925 168.698 168.344 168.495 167.65 168.495C167.021 168.495 166.482 168.698 166.034 169.103C165.586 169.498 165.32 170.037 165.234 170.719H170.114ZM184.485 166.959C185.179 166.959 185.797 167.103 186.341 167.391C186.896 167.679 187.328 168.106 187.637 168.671C187.957 169.237 188.117 169.919 188.117 170.719V175.919H186.309V170.991C186.309 170.202 186.112 169.599 185.717 169.183C185.323 168.757 184.784 168.543 184.101 168.543C183.419 168.543 182.875 168.757 182.469 169.183C182.075 169.599 181.877 170.202 181.877 170.991V175.919H180.069V170.991C180.069 170.202 179.872 169.599 179.477 169.183C179.083 168.757 178.544 168.543 177.861 168.543C177.179 168.543 176.635 168.757 176.229 169.183C175.835 169.599 175.637 170.202 175.637 170.991V175.919H173.813V167.103H175.637V168.111C175.936 167.749 176.315 167.466 176.773 167.263C177.232 167.061 177.723 166.959 178.245 166.959C178.949 166.959 179.579 167.109 180.133 167.407C180.688 167.706 181.115 168.138 181.413 168.703C181.68 168.17 182.096 167.749 182.661 167.439C183.227 167.119 183.835 166.959 184.485 166.959ZM198.518 171.295C198.518 171.626 198.497 171.925 198.454 172.191H191.718C191.772 172.895 192.033 173.461 192.502 173.887C192.972 174.314 193.548 174.527 194.23 174.527C195.212 174.527 195.905 174.117 196.31 173.295H198.278C198.012 174.106 197.526 174.773 196.822 175.295C196.129 175.807 195.265 176.063 194.23 176.063C193.388 176.063 192.63 175.877 191.958 175.503C191.297 175.119 190.774 174.586 190.39 173.903C190.017 173.21 189.83 172.41 189.83 171.503C189.83 170.597 190.012 169.802 190.374 169.119C190.748 168.426 191.265 167.893 191.926 167.519C192.598 167.146 193.366 166.959 194.23 166.959C195.062 166.959 195.804 167.141 196.454 167.503C197.105 167.866 197.612 168.378 197.974 169.039C198.337 169.69 198.518 170.442 198.518 171.295ZM196.614 170.719C196.604 170.047 196.364 169.509 195.894 169.103C195.425 168.698 194.844 168.495 194.15 168.495C193.521 168.495 192.982 168.698 192.534 169.103C192.086 169.498 191.82 170.037 191.734 170.719H196.614ZM204.761 166.959C205.455 166.959 206.073 167.103 206.617 167.391C207.172 167.679 207.604 168.106 207.913 168.671C208.223 169.237 208.377 169.919 208.377 170.719V175.919H206.569V170.991C206.569 170.202 206.372 169.599 205.977 169.183C205.583 168.757 205.044 168.543 204.361 168.543C203.679 168.543 203.135 168.757 202.729 169.183C202.335 169.599 202.137 170.202 202.137 170.991V175.919H200.313V167.103H202.137V168.111C202.436 167.749 202.815 167.466 203.273 167.263C203.743 167.061 204.239 166.959 204.761 166.959ZM212.832 168.591V173.471C212.832 173.802 212.907 174.042 213.056 174.191C213.216 174.33 213.483 174.399 213.856 174.399H214.976V175.919H213.536C212.715 175.919 212.085 175.727 211.648 175.343C211.211 174.959 210.992 174.335 210.992 173.471V168.591H209.952V167.103H210.992V164.911H212.832V167.103H214.976V168.591H212.832Z" fill="#EAECF0"/>
<path d="M294.276 163.724H282.559C281.635 163.724 280.885 164.473 280.885 165.398V177.115C280.885 178.039 281.635 178.789 282.559 178.789H294.276C295.2 178.789 295.95 178.039 295.95 177.115V165.398C295.95 164.473 295.2 163.724 294.276 163.724Z" stroke="#EAECF0" stroke-width="2.0086" stroke-linecap="round" stroke-linejoin="round"/>
<path d="M291.765 162.05V165.398" stroke="#EAECF0" stroke-width="2.0086" stroke-linecap="round" stroke-linejoin="round"/>
<path d="M285.07 162.05V165.398" stroke="#EAECF0" stroke-width="2.0086" stroke-linecap="round" stroke-linejoin="round"/>
<path d="M280.885 168.746H295.95" stroke="#EAECF0" stroke-width="2.0086" stroke-linecap="round" stroke-linejoin="round"/>
<path d="M304.109 167.135C304.173 166.143 304.552 165.37 305.245 164.815C305.949 164.261 306.845 163.983 307.933 163.983C308.68 163.983 309.325 164.117 309.869 164.383C310.413 164.65 310.824 165.013 311.101 165.471C311.378 165.93 311.517 166.447 311.517 167.023C311.517 167.685 311.341 168.25 310.989 168.719C310.637 169.189 310.216 169.503 309.725 169.663V169.727C310.354 169.919 310.845 170.271 311.197 170.783C311.549 171.285 311.725 171.93 311.725 172.719C311.725 173.349 311.581 173.909 311.293 174.399C311.005 174.89 310.578 175.279 310.013 175.567C309.448 175.845 308.77 175.983 307.981 175.983C306.829 175.983 305.88 175.69 305.133 175.103C304.397 174.506 304.002 173.653 303.949 172.543H305.709C305.752 173.109 305.97 173.573 306.365 173.935C306.76 174.287 307.293 174.463 307.965 174.463C308.616 174.463 309.117 174.287 309.469 173.935C309.821 173.573 309.997 173.109 309.997 172.543C309.997 171.797 309.757 171.269 309.277 170.959C308.808 170.639 308.082 170.479 307.101 170.479H306.685V168.975H307.117C307.981 168.965 308.637 168.821 309.085 168.543C309.544 168.266 309.773 167.829 309.773 167.231C309.773 166.719 309.608 166.314 309.277 166.015C308.946 165.706 308.477 165.551 307.869 165.551C307.272 165.551 306.808 165.706 306.477 166.015C306.146 166.314 305.949 166.687 305.885 167.135H304.109ZM313.401 165.919V164.255H316.729V175.919H314.889V165.919H313.401ZM335.343 164.799V175.919H333.519V168.303L330.127 175.919H328.863L325.455 168.303V175.919H323.631V164.799H325.599L329.503 173.519L333.391 164.799H335.343ZM337.132 171.471C337.132 170.586 337.314 169.802 337.676 169.119C338.05 168.437 338.551 167.909 339.18 167.535C339.82 167.151 340.524 166.959 341.292 166.959C341.986 166.959 342.588 167.098 343.1 167.375C343.623 167.642 344.039 167.978 344.348 168.383V167.103H346.188V175.919H344.348V174.607C344.039 175.023 343.618 175.37 343.084 175.647C342.551 175.925 341.943 176.063 341.26 176.063C340.503 176.063 339.81 175.871 339.18 175.487C338.551 175.093 338.05 174.549 337.676 173.855C337.314 173.151 337.132 172.357 337.132 171.471ZM344.348 171.503C344.348 170.895 344.22 170.367 343.964 169.919C343.719 169.471 343.394 169.13 342.988 168.895C342.583 168.661 342.146 168.543 341.676 168.543C341.207 168.543 340.77 168.661 340.364 168.895C339.959 169.119 339.628 169.455 339.372 169.903C339.127 170.341 339.004 170.863 339.004 171.471C339.004 172.079 339.127 172.613 339.372 173.071C339.628 173.53 339.959 173.882 340.364 174.127C340.78 174.362 341.218 174.479 341.676 174.479C342.146 174.479 342.583 174.362 342.988 174.127C343.394 173.893 343.719 173.551 343.964 173.103C344.22 172.645 344.348 172.111 344.348 171.503ZM350.408 168.383C350.675 167.935 351.027 167.589 351.464 167.343C351.912 167.087 352.44 166.959 353.048 166.959V168.847H352.584C351.869 168.847 351.325 169.029 350.952 169.391C350.589 169.754 350.408 170.383 350.408 171.279V175.919H348.584V167.103H350.408V168.383ZM354.117 171.503C354.117 170.597 354.298 169.802 354.661 169.119C355.034 168.426 355.546 167.893 356.197 167.519C356.847 167.146 357.594 166.959 358.437 166.959C359.503 166.959 360.383 167.215 361.077 167.727C361.781 168.229 362.255 168.949 362.501 169.887H360.533C360.373 169.45 360.117 169.109 359.765 168.863C359.413 168.618 358.97 168.495 358.437 168.495C357.69 168.495 357.093 168.762 356.645 169.295C356.207 169.818 355.989 170.554 355.989 171.503C355.989 172.453 356.207 173.194 356.645 173.727C357.093 174.261 357.69 174.527 358.437 174.527C359.493 174.527 360.191 174.063 360.533 173.135H362.501C362.245 174.031 361.765 174.746 361.061 175.279C360.357 175.802 359.482 176.063 358.437 176.063C357.594 176.063 356.847 175.877 356.197 175.503C355.546 175.119 355.034 174.586 354.661 173.903C354.298 173.21 354.117 172.41 354.117 171.503ZM368.878 166.959C369.55 166.959 370.148 167.103 370.67 167.391C371.204 167.679 371.62 168.106 371.918 168.671C372.228 169.237 372.382 169.919 372.382 170.719V175.919H370.574V170.991C370.574 170.202 370.377 169.599 369.982 169.183C369.588 168.757 369.049 168.543 368.366 168.543C367.684 168.543 367.14 168.757 366.734 169.183C366.34 169.599 366.142 170.202 366.142 170.991V175.919H364.318V164.079H366.142V168.127C366.452 167.754 366.841 167.466 367.31 167.263C367.79 167.061 368.313 166.959 368.878 166.959ZM376.709 173.727L374.773 178.143H373.589L374.725 173.727H376.709ZM383.227 173.439C384.251 172.554 385.056 171.829 385.643 171.263C386.24 170.687 386.736 170.09 387.131 169.471C387.526 168.853 387.723 168.234 387.723 167.615C387.723 166.975 387.568 166.474 387.259 166.111C386.96 165.749 386.486 165.567 385.835 165.567C385.206 165.567 384.715 165.77 384.363 166.175C384.022 166.57 383.84 167.103 383.819 167.775H382.059C382.091 166.559 382.454 165.631 383.147 164.991C383.851 164.341 384.742 164.015 385.819 164.015C386.982 164.015 387.888 164.335 388.539 164.975C389.2 165.615 389.531 166.469 389.531 167.535C389.531 168.303 389.334 169.045 388.939 169.759C388.555 170.463 388.091 171.098 387.547 171.663C387.014 172.218 386.331 172.863 385.499 173.599L384.779 174.239H389.851V175.759H382.075V174.431L383.227 173.439ZM391.453 169.935C391.453 168.09 391.763 166.65 392.381 165.615C393.011 164.57 394.088 164.047 395.613 164.047C397.139 164.047 398.211 164.57 398.829 165.615C399.459 166.65 399.773 168.09 399.773 169.935C399.773 171.802 399.459 173.263 398.829 174.319C398.211 175.365 397.139 175.887 395.613 175.887C394.088 175.887 393.011 175.365 392.381 174.319C391.763 173.263 391.453 171.802 391.453 169.935ZM397.981 169.935C397.981 169.071 397.923 168.341 397.805 167.743C397.699 167.146 397.475 166.661 397.133 166.287C396.792 165.903 396.285 165.711 395.613 165.711C394.941 165.711 394.435 165.903 394.093 166.287C393.752 166.661 393.523 167.146 393.405 167.743C393.299 168.341 393.245 169.071 393.245 169.935C393.245 170.831 393.299 171.583 393.405 172.191C393.512 172.799 393.736 173.29 394.077 173.663C394.429 174.037 394.941 174.223 395.613 174.223C396.285 174.223 396.792 174.037 397.133 173.663C397.485 173.29 397.715 172.799 397.821 172.191C397.928 171.583 397.981 170.831 397.981 169.935ZM402.711 173.439C403.735 172.554 404.541 171.829 405.127 171.263C405.725 170.687 406.221 170.09 406.615 169.471C407.01 168.853 407.207 168.234 407.207 167.615C407.207 166.975 407.053 166.474 406.743 166.111C406.445 165.749 405.97 165.567 405.319 165.567C404.69 165.567 404.199 165.77 403.847 166.175C403.506 166.57 403.325 167.103 403.303 167.775H401.543C401.575 166.559 401.938 165.631 402.631 164.991C403.335 164.341 404.226 164.015 405.303 164.015C406.466 164.015 407.373 164.335 408.023 164.975C408.685 165.615 409.015 166.469 409.015 167.535C409.015 168.303 408.818 169.045 408.423 169.759C408.039 170.463 407.575 171.098 407.031 171.663C406.498 172.218 405.815 172.863 404.983 173.599L404.263 174.239H409.335V175.759H401.559V174.431L402.711 173.439ZM410.906 167.135C410.97 166.143 411.348 165.37 412.042 164.815C412.746 164.261 413.642 163.983 414.73 163.983C415.476 163.983 416.122 164.117 416.666 164.383C417.21 164.65 417.62 165.013 417.898 165.471C418.175 165.93 418.314 166.447 418.314 167.023C418.314 167.685 418.138 168.25 417.786 168.719C417.434 169.189 417.012 169.503 416.522 169.663V169.727C417.151 169.919 417.642 170.271 417.994 170.783C418.346 171.285 418.522 171.93 418.522 172.719C418.522 173.349 418.378 173.909 418.09 174.399C417.802 174.89 417.375 175.279 416.81 175.567C416.244 175.845 415.567 175.983 414.778 175.983C413.626 175.983 412.676 175.69 411.93 175.103C411.194 174.506 410.799 173.653 410.746 172.543H412.506C412.548 173.109 412.767 173.573 413.162 173.935C413.556 174.287 414.09 174.463 414.762 174.463C415.412 174.463 415.914 174.287 416.266 173.935C416.618 173.573 416.794 173.109 416.794 172.543C416.794 171.797 416.554 171.269 416.074 170.959C415.604 170.639 414.879 170.479 413.898 170.479H413.482V168.975H413.914C414.778 168.965 415.434 168.821 415.882 168.543C416.34 168.266 416.57 167.829 416.57 167.231C416.57 166.719 416.404 166.314 416.074 166.015C415.743 165.706 415.274 165.551 414.666 165.551C414.068 165.551 413.604 165.706 413.274 166.015C412.943 166.314 412.746 166.687 412.682 167.135H410.906Z" fill="#EAECF0"/>
<circle cx="203" cy="401.782" r="6" fill="#F9FAFB"/>
<circle opacity="0.4" cx="220" cy="401.782" r="4" fill="#F9FAFB"/>
<circle opacity="0.4" cx="235" cy="401.782" r="4" fill="#F9FAFB"/>
</g>
<defs>
<linearGradient id="paint0_linear_201_902" x1="398.134" y1="142.546" x2="16.4572" y2="251.549" gradientUnits="userSpaceOnUse">
<stop stop-color="#E0E0E0" stop-opacity="0.18"/>
<stop offset="1" stop-color="#C9C9C9" stop-opacity="0.3"/>
</linearGradient>
<linearGradient id="paint1_linear_201_902" x1="409.841" y1="88.1668" x2="1.39578" y2="201.037" gradientUnits="userSpaceOnUse">
<stop stop-color="#E0E0E0" stop-opacity="0.18"/>
<stop offset="1" stop-color="#C9C9C9" stop-opacity="0.3"/>
</linearGradient>
<linearGradient id="paint2_linear_201_902" x1="421.548" y1="48.2294" x2="-8.04688" y2="174.083" gradientUnits="userSpaceOnUse">
<stop stop-color="#E0E0E0" stop-opacity="0.18"/>
<stop offset="1" stop-color="#C9C9C9" stop-opacity="0.3"/>
</linearGradient>
<linearGradient id="paint3_linear_201_902" x1="433.256" y1="24.47" x2="-12.0181" y2="170.697" gradientUnits="userSpaceOnUse">
<stop stop-color="#E0E0E0" stop-opacity="0.18"/>
<stop offset="1" stop-color="#C9C9C9" stop-opacity="0.3"/>
</linearGradient>
<clipPath id="clip0_201_902">
<rect width="435" height="407.782" fill="white" transform="translate(0.5)"/>
</clipPath>
<clipPath id="clip1_201_902">
<rect width="20.086" height="20.086" fill="white" transform="translate(17.6663 160.376)"/>
</clipPath>
</defs>
</svg>
