<svg width="600" height="2001" viewBox="0 0 600 2001" fill="none" xmlns="http://www.w3.org/2000/svg">
<g clip-path="url(#clip0_3993_2478)">
<rect width="600" height="2000" transform="translate(0 0.5)" fill="#00B2C1"/>
<g filter="url(#filter0_f_3993_2478)">
<path fill-rule="evenodd" clip-rule="evenodd" d="M430.032 296.543C513.089 291.635 571.691 405.003 631.582 491.317C693.289 580.248 778.086 665.001 774.612 793.145C771.177 919.87 685.136 998.473 615.855 1071.42C560.803 1129.39 497.078 1147.25 430.032 1155.97C353.331 1165.95 275.531 1182.01 208.857 1124.36C119.688 1047.26 1.63256 946.777 10.4271 793.145C19.264 638.775 162.612 610.299 243.784 514.232C308.016 438.213 348.226 301.377 430.032 296.543Z" fill="#00B2C1"/>
<path fill-rule="evenodd" clip-rule="evenodd" d="M42.0089 864.671C133.951 859.238 198.823 984.733 265.122 1080.28C333.431 1178.73 427.299 1272.55 423.454 1414.4C419.651 1554.68 324.405 1641.7 247.712 1722.45C186.771 1786.62 116.228 1806.39 42.0089 1816.04C-42.8982 1827.09 -129.021 1844.87 -202.828 1781.05C-301.537 1695.7 -432.222 1584.47 -422.487 1414.4C-412.704 1243.52 -254.021 1211.99 -164.165 1105.65C-93.0606 1021.5 -48.5491 870.022 42.0089 864.671Z" fill="#006B74"/>
<path fill-rule="evenodd" clip-rule="evenodd" d="M756.664 25.9023C860.149 49.8186 970.831 -37.6109 1059.71 36.5433C1164.69 124.127 1242.26 273.899 1250.41 437.846C1258.97 610.055 1203.59 786.918 1102.42 895.708C1008.23 996.988 874.2 1008.63 756.664 968.774C661.473 936.492 609.378 814.542 551.892 709.01C506.99 626.579 493.199 533.598 467.456 437.846C414.694 241.601 218.366 19.4197 325.475 -133.145C431.084 -283.573 603.869 -9.41 756.664 25.9023Z" fill="#008E9A"/>
<path fill-rule="evenodd" clip-rule="evenodd" d="M44.6846 -119.178C153.762 -112.673 218.596 -17.2231 304.471 44.7273C411.953 122.265 598.234 157.42 601.769 282.701C605.296 407.719 415.371 445.404 318.255 533.301C222.315 620.134 178.238 769.678 44.6846 786.904C-95.5312 804.989 -221.098 709.541 -318.55 615.437C-413.103 524.132 -491.401 407.901 -477.455 282.701C-464.352 165.073 -350.11 87.644 -251.286 11.5815C-164.108 -55.5171 -68.9403 -125.955 44.6846 -119.178Z" fill="#00474D"/>
<path fill-rule="evenodd" clip-rule="evenodd" d="M879.991 1938.31C842.355 2059.02 670.593 2062.88 544.326 2088.42C406.954 2116.2 260.638 2158.04 122.969 2091.44C-16.3846 2024.02 -125.557 1884.78 -173.704 1741.03C-217.385 1610.61 -98.0578 1501.03 -119.224 1368.32C-151.002 1169.07 -397.407 970.968 -324.111 797.982C-256.372 638.112 -6.00022 616.275 177.996 666.85C349.194 713.908 404.17 956.21 564.544 1042.25C722.245 1126.85 1009.58 974.155 1060.82 1140.48C1119.5 1330.96 757.569 1355.12 716.606 1535.85C686.441 1668.94 920.247 1809.19 879.991 1938.31Z" fill="#008E9A"/>
<path fill-rule="evenodd" clip-rule="evenodd" d="M775.933 728.26C858.99 723.352 917.592 836.719 977.483 923.033C1039.19 1011.96 1123.99 1096.72 1120.51 1224.86C1117.08 1351.59 1031.04 1430.19 961.756 1503.14C906.704 1561.1 842.979 1578.96 775.933 1587.69C699.232 1597.66 621.432 1613.73 554.758 1556.08C465.589 1478.98 347.534 1378.49 356.328 1224.86C365.165 1070.49 508.513 1042.02 589.685 945.949C653.917 869.93 694.127 733.094 775.933 728.26Z" fill="#00474D"/>
</g>
</g>
<defs>
<filter id="filter0_f_3993_2478" x="-829.071" y="-527.89" width="2430.35" height="3005.04" filterUnits="userSpaceOnUse" color-interpolation-filters="sRGB">
<feFlood flood-opacity="0" result="BackgroundImageFix"/>
<feBlend mode="normal" in="SourceGraphic" in2="BackgroundImageFix" result="shape"/>
<feGaussianBlur stdDeviation="175" result="effect1_foregroundBlur_3993_2478"/>
</filter>
<clipPath id="clip0_3993_2478">
<rect width="600" height="2000" fill="white" transform="translate(0 0.5)"/>
</clipPath>
</defs>
</svg>
